<svg xmlns="http://www.w3.org/2000/svg" xmlns:xlink="http://www.w3.org/1999/xlink" version="1.1" id="Ebene_1" x="0px" y="0px" width="40" height="40" viewBox="0 0 40 40" enable-background="new 0 0 40 40" xml:space="preserve">
<circle display="none" fill="#1D1D1F" cx="20" cy="20" r="20"/>
<g id="codepen" display="none">
	<polygon display="inline" fill="#1D1D1F" points="9.8,18.2 9.8,21.8 12.4,20  "/>
	<polygon display="inline" fill="#1D1D1F" points="18.9,15.6 18.9,10.7 10.6,16.2 14.3,18.7  "/>
	<polygon display="inline" fill="#1D1D1F" points="29.4,16.2 21.1,10.7 21.1,15.6 25.7,18.7  "/>
	<polygon display="inline" fill="#1D1D1F" points="10.6,23.8 18.9,29.3 18.9,24.4 14.3,21.3  "/>
	<polygon display="inline" fill="#1D1D1F" points="21.1,24.4 21.1,29.3 29.4,23.8 25.7,21.3  "/>
	<polygon display="inline" fill="#1D1D1F" points="20,17.5 16.2,20 20,22.5 23.8,20  "/>
	<path display="inline" fill="#1D1D1F" d="M20,0C9,0,0,9,0,20c0,11,9,20,20,20c11,0,20-9,20-20C40,9,31,0,20,0z M32.4,23.8   c0,0,0,0.1,0,0.1c0,0,0,0,0,0c0,0,0,0.1,0,0.1c0,0,0,0,0,0.1c0,0,0,0.1,0,0.1c0,0,0,0,0,0.1c0,0,0,0,0,0.1c0,0,0,0,0,0   c0,0,0,0,0,0.1c0,0,0,0,0,0c0,0,0,0-0.1,0.1c0,0,0,0,0,0c0,0,0,0-0.1,0.1c0,0,0,0,0,0c0,0,0,0,0,0l-11.3,7.5   c-0.2,0.1-0.4,0.2-0.6,0.2c-0.2,0-0.4-0.1-0.6-0.2L8.1,24.7c0,0,0,0,0,0c0,0,0,0,0,0c0,0,0,0-0.1-0.1c0,0,0,0,0,0c0,0,0,0-0.1-0.1   c0,0,0,0,0,0c0,0,0,0,0-0.1c0,0,0,0,0,0c0,0,0,0,0-0.1c0,0,0,0,0-0.1c0,0,0-0.1,0-0.1c0,0,0,0,0-0.1c0,0,0-0.1,0-0.1c0,0,0,0,0,0   c0,0,0-0.1,0-0.1v-7.5c0,0,0-0.1,0-0.1c0,0,0,0,0,0c0,0,0-0.1,0-0.1c0,0,0,0,0-0.1c0,0,0-0.1,0-0.1c0,0,0,0,0-0.1c0,0,0,0,0-0.1   c0,0,0,0,0,0c0,0,0,0,0-0.1c0,0,0,0,0,0c0,0,0,0,0.1-0.1c0,0,0,0,0,0c0,0,0,0,0.1-0.1c0,0,0,0,0,0c0,0,0,0,0,0l11.3-7.5   c0.4-0.2,0.8-0.2,1.2,0l11.3,7.5c0,0,0,0,0,0c0,0,0,0,0,0c0,0,0,0,0.1,0.1c0,0,0,0,0,0c0,0,0,0,0.1,0.1c0,0,0,0,0,0c0,0,0,0,0,0.1   c0,0,0,0,0,0c0,0,0,0,0,0.1c0,0,0,0,0,0.1c0,0,0,0.1,0,0.1c0,0,0,0,0,0.1c0,0,0,0.1,0,0.1c0,0,0,0,0,0c0,0,0,0.1,0,0.1V23.8z"/>
	<polygon display="inline" fill="#1D1D1F" points="30.2,21.8 30.2,18.2 27.6,20  "/>
</g>
<path fill="#1D1D1F" d="M20,0C9,0,0,9,0,20c0,11,9,20,20,20s20-9,20-20C40,9,31,0,20,0z M15,29h-4V16h4V29z M12.8,14.8l0,0.2h0  c-1.4,0-2.3-1.1-2.3-2.3c0-1.2,0.9-2.2,2.3-2.2c1.4,0,2.3,1,2.3,2.2C15.2,13.8,14.3,14.8,12.8,14.8z M30,29h-4v-6.8  c0-1.7-0.8-2.8-2.3-2.8c-1.1,0-2.1,0.8-2.4,1.5c-0.1,0.3-0.4,0.6-0.4,1V29h-3.8c0,0,0.1-11,0-13H21v2.2c1-0.9,1.8-2.1,4-2.1  c2.7,0,5,1.8,5,5.6V29z"/>
</svg>