<svg xmlns="http://www.w3.org/2000/svg" xmlns:xlink="http://www.w3.org/1999/xlink" version="1.1" id="Ebene_1" x="0px" y="0px" width="40" height="40" viewBox="0 0 40 40" enable-background="new 0 0 40 40" xml:space="preserve">
<circle display="none" fill="#1D1D1F" cx="20" cy="20" r="20"/>
<g id="codepen" display="none">
	<polygon display="inline" fill="#1D1D1F" points="9.8,18.2 9.8,21.8 12.4,20  "/>
	<polygon display="inline" fill="#1D1D1F" points="18.9,15.6 18.9,10.7 10.6,16.2 14.3,18.7  "/>
	<polygon display="inline" fill="#1D1D1F" points="29.4,16.2 21.1,10.7 21.1,15.6 25.7,18.7  "/>
	<polygon display="inline" fill="#1D1D1F" points="10.6,23.8 18.9,29.3 18.9,24.4 14.3,21.3  "/>
	<polygon display="inline" fill="#1D1D1F" points="21.1,24.4 21.1,29.3 29.4,23.8 25.7,21.3  "/>
	<polygon display="inline" fill="#1D1D1F" points="20,17.5 16.2,20 20,22.5 23.8,20  "/>
	<path display="inline" fill="#1D1D1F" d="M20,0C9,0,0,9,0,20c0,11,9,20,20,20c11,0,20-9,20-20C40,9,31,0,20,0z M32.4,23.8   c0,0,0,0.1,0,0.1c0,0,0,0,0,0c0,0,0,0.1,0,0.1c0,0,0,0,0,0.1c0,0,0,0.1,0,0.1c0,0,0,0,0,0.1c0,0,0,0,0,0.1c0,0,0,0,0,0   c0,0,0,0,0,0.1c0,0,0,0,0,0c0,0,0,0-0.1,0.1c0,0,0,0,0,0c0,0,0,0-0.1,0.1c0,0,0,0,0,0c0,0,0,0,0,0l-11.3,7.5   c-0.2,0.1-0.4,0.2-0.6,0.2c-0.2,0-0.4-0.1-0.6-0.2L8.1,24.7c0,0,0,0,0,0c0,0,0,0,0,0c0,0,0,0-0.1-0.1c0,0,0,0,0,0c0,0,0,0-0.1-0.1   c0,0,0,0,0,0c0,0,0,0,0-0.1c0,0,0,0,0,0c0,0,0,0,0-0.1c0,0,0,0,0-0.1c0,0,0-0.1,0-0.1c0,0,0,0,0-0.1c0,0,0-0.1,0-0.1c0,0,0,0,0,0   c0,0,0-0.1,0-0.1v-7.5c0,0,0-0.1,0-0.1c0,0,0,0,0,0c0,0,0-0.1,0-0.1c0,0,0,0,0-0.1c0,0,0-0.1,0-0.1c0,0,0,0,0-0.1c0,0,0,0,0-0.1   c0,0,0,0,0,0c0,0,0,0,0-0.1c0,0,0,0,0,0c0,0,0,0,0.1-0.1c0,0,0,0,0,0c0,0,0,0,0.1-0.1c0,0,0,0,0,0c0,0,0,0,0,0l11.3-7.5   c0.4-0.2,0.8-0.2,1.2,0l11.3,7.5c0,0,0,0,0,0c0,0,0,0,0,0c0,0,0,0,0.1,0.1c0,0,0,0,0,0c0,0,0,0,0.1,0.1c0,0,0,0,0,0c0,0,0,0,0,0.1   c0,0,0,0,0,0c0,0,0,0,0,0.1c0,0,0,0,0,0.1c0,0,0,0.1,0,0.1c0,0,0,0,0,0.1c0,0,0,0.1,0,0.1c0,0,0,0,0,0c0,0,0,0.1,0,0.1V23.8z"/>
	<polygon display="inline" fill="#1D1D1F" points="30.2,21.8 30.2,18.2 27.6,20  "/>
</g>
<path id="linkedin" display="none" fill="#1D1D1F" d="M20,0C9,0,0,9,0,20c0,11,9,20,20,20s20-9,20-20C40,9,31,0,20,0z M15,29h-4V16  h4V29z M13,14.8V15h-0.2c-1.4,0-2.3-1.1-2.3-2.3c0-1.2,0.9-2.2,2.3-2.2c1.4,0,2.4,1,2.4,2.2C15.2,13.8,14,14.8,13,14.8z M30,29h-4  v-6.8c0-1.7-0.8-2.8-2.3-2.8c-1.1,0-2.1,0.8-2.4,1.5c-0.1,0.3-0.4,0.6-0.4,1V29h-3.8c0,0,0.1-11,0-13H21v2.2c1-0.9,1.8-2.1,4-2.1  c2.7,0,5,1.8,5,5.6V29z"/>
<path id="twitter" display="none" fill="#1D1D1F" d="M20,0C9,0,0,9,0,20c0,11,9,20,20,20s20-9,20-20C40,9,31,0,20,0z M29.7,15.2  c0,0.2,0,0.4,0,0.6c0,6-4.5,12.8-12.8,12.8c-2.5,0-4.9-0.7-6.9-2c0.4,0,0.7,0.1,1.1,0.1c2.1,0,4.1-0.7,5.6-1.9c-2,0-3.6-1.3-4.2-3.1  c0.3,0.1,0.6,0.1,0.8,0.1c0.4,0,0.9-0.1,1.3-0.2c-2.1-0.4-3.5-2.2-3.5-4.4c0,0,0,0,0-0.1c0,0.3,1.2,0.5,2,0.6  c-1.2-0.8-2.1-2.2-2.1-3.8c0-0.8,0.2-1.6,0.6-2.3c2.2,2.7,5.5,4.5,9.3,4.7c-0.1-0.3-0.1-0.7-0.1-1c0-2.5,2-4.5,4.5-4.5  c1.3,0,2.5,0.5,3.3,1.4c1-0.2,2-0.6,2.9-1.1c-0.3,1.1-1,1.9-2,2.5c0.9-0.1,1.8-0.3,2.6-0.7c0,0,0,0,0,0l0,0c0,0,0,0,0,0  C31.3,13.8,30.5,14.6,29.7,15.2z"/>
<path id="facebook" display="none" fill="#1D1D1F" d="M20,0C9,0,0,9,0,20c0,11,9,20,20,20s20-9,20-20C40,9,31,0,20,0z M26,12h-2.1  c-1.8,0-1.9,1-1.9,2.2V17h4l-0.5,4H22v11h-5V21h-3v-4h3v-3.2c0-3.6,2.4-5.6,5.6-5.6c1.5,0,3.4,0.1,3.4,0.2V12z"/>
<path display="none" fill="#1D1D1F" d="M20,0C9,0,0,9,0,20c0,11,9,20,20,20s20-9,20-20C40,9,31,0,20,0z M31,14h-1.2  c-0.3,0-0.8,0.5-0.8,0.8v10.4c0,0.3,0.5,0.7,0.8,0.7H31v2h-8v-2h2V15h-0.5l-3.7,13h-2.9l-3.7-13H14v11h2v2H9v-2h1.2  c0.3,0,0.8-0.5,0.8-0.7V14.8c0-0.3-0.5-0.8-0.8-0.8H9v-2h8.3l2.6,9H20l2.6-9H31V14z"/>
<path fill="#1D1D1F" d="M20,0C9,0,0,9,0,20c0,11,9,20,20,20s20-9,20-20C40,9,31,0,20,0z M13.3,26H9.5c-0.2,0-0.4-0.3-0.5-0.4  c-0.1-0.2-0.1-0.5,0-0.7l4.1-7.2c0,0,0,0,0,0l-2.6-4.5c-0.1-0.2-0.1-0.6,0-0.8c0.1-0.2,0.3-0.4,0.5-0.4h3.8c0.6,0,0.9,0.6,1.1,0.9  c0,0,2.6,4.6,2.6,4.7c-0.2,0.3-4.1,7.5-4.1,7.5C14.1,25.4,13.9,26,13.3,26z M31.3,8l-8.4,14.9c0,0,0,0,0,0l5.4,9.8  c0.1,0.2,0.1,0.6,0,0.8C28.2,33.7,28,34,27.8,34H24c-0.6,0-0.9-0.6-1.1-0.9c0,0-5.4-10-5.4-10C17.7,22.6,26,7.9,26,7.9  C26.2,7.5,26.4,7,27,7h3.9c0.2,0,0.4,0.2,0.5,0.3C31.4,7.5,31.4,7.8,31.3,8z"/>
</svg>