<svg xmlns="http://www.w3.org/2000/svg" xmlns:xlink="http://www.w3.org/1999/xlink" version="1.1" id="Ebene_1" x="0px" y="0px" width="40" height="40" viewBox="0 0 40 40" enable-background="new 0 0 40 40" xml:space="preserve">
<path fill-rule="evenodd" clip-rule="evenodd" fill="#1D1D1F" d="M20,0C8.954,0,0,8.954,0,20s8.954,20,20,20s20-8.954,20-20  S31.046,0,20,0z M22.991,27.42c0.593,0.508,1.118,1.514,1.118,3.053c0,2.207-0.019,3.984-0.019,4.527h-8.179  c0-0.393-0.014-1.43-0.022-2.807c-4.589,0.996-5.558-2.211-5.558-2.211C9.582,28.076,8.5,27.568,8.5,27.568  c-1.498-1.023,0.113-1.002,0.113-1.002c1.656,0.117,2.527,1.699,2.527,1.699c1.472,2.521,3.861,1.795,4.8,1.371  c0.151-1.066,0.577-1.793,1.049-2.205c-3.664-0.416-7.515-1.832-7.515-8.154c0-1.801,0.643-3.273,1.698-4.426  c-0.17-0.418-0.736-2.095,0.162-4.366c0,0,1.385-0.443,4.537,1.691c1.316-0.366,2.727-0.549,4.129-0.555  c1.402,0.006,2.813,0.189,4.131,0.555c3.152-2.135,4.534-1.691,4.534-1.691c0.898,2.271,0.333,3.948,0.164,4.366  c1.057,1.152,1.696,2.625,1.696,4.426C30.525,25.615,26.667,27.01,22.991,27.42z"/>
</svg>