<svg xmlns="http://www.w3.org/2000/svg" xmlns:xlink="http://www.w3.org/1999/xlink" version="1.1" id="Ebene_1" x="0px" y="0px" width="40" height="40" viewBox="0 0 40 40" enable-background="new 0 0 40 40" xml:space="preserve">
<g>
	<polygon fill="#1D1D1F" points="9.8,18.2 9.8,21.8 12.4,20  "/>
	<polygon fill="#1D1D1F" points="18.9,15.6 18.9,10.7 10.6,16.2 14.3,18.7  "/>
	<polygon fill="#1D1D1F" points="29.4,16.2 21.1,10.7 21.1,15.6 25.7,18.7  "/>
	<polygon fill="#1D1D1F" points="10.6,23.8 18.9,29.3 18.9,24.4 14.3,21.3  "/>
	<polygon fill="#1D1D1F" points="21.1,24.4 21.1,29.3 29.4,23.8 25.7,21.3  "/>
	<polygon fill="#1D1D1F" points="20,17.5 16.2,20 20,22.5 23.8,20  "/>
	<path fill="#1D1D1F" d="M20,0C9,0,0,9,0,20c0,11,9,20,20,20c11,0,20-9,20-20C40,9,31,0,20,0z M32.4,23.8c0,0,0,0.1,0,0.1   c0,0,0,0,0,0c0,0,0,0.1,0,0.1c0,0,0,0,0,0.1c0,0,0,0.1,0,0.1c0,0,0,0,0,0.1c0,0,0,0,0,0.1c0,0,0,0,0,0c0,0,0,0,0,0.1c0,0,0,0,0,0   c0,0,0,0-0.1,0.1c0,0,0,0,0,0c0,0,0,0-0.1,0.1c0,0,0,0,0,0c0,0,0,0,0,0l-11.3,7.5c-0.2,0.1-0.4,0.2-0.6,0.2c-0.2,0-0.4-0.1-0.6-0.2   L8.1,24.7c0,0,0,0,0,0c0,0,0,0,0,0c0,0,0,0-0.1-0.1c0,0,0,0,0,0c0,0,0,0-0.1-0.1c0,0,0,0,0,0c0,0,0,0,0-0.1c0,0,0,0,0,0   c0,0,0,0,0-0.1c0,0,0,0,0-0.1c0,0,0-0.1,0-0.1c0,0,0,0,0-0.1c0,0,0-0.1,0-0.1c0,0,0,0,0,0c0,0,0-0.1,0-0.1v-7.5c0,0,0-0.1,0-0.1   c0,0,0,0,0,0c0,0,0-0.1,0-0.1c0,0,0,0,0-0.1c0,0,0-0.1,0-0.1c0,0,0,0,0-0.1c0,0,0,0,0-0.1c0,0,0,0,0,0c0,0,0,0,0-0.1c0,0,0,0,0,0   c0,0,0,0,0.1-0.1c0,0,0,0,0,0c0,0,0,0,0.1-0.1c0,0,0,0,0,0c0,0,0,0,0,0l11.3-7.5c0.4-0.2,0.8-0.2,1.2,0l11.3,7.5c0,0,0,0,0,0   c0,0,0,0,0,0c0,0,0,0,0.1,0.1c0,0,0,0,0,0c0,0,0,0,0.1,0.1c0,0,0,0,0,0c0,0,0,0,0,0.1c0,0,0,0,0,0c0,0,0,0,0,0.1c0,0,0,0,0,0.1   c0,0,0,0.1,0,0.1c0,0,0,0,0,0.1c0,0,0,0.1,0,0.1c0,0,0,0,0,0c0,0,0,0.1,0,0.1V23.8z"/>
	<polygon fill="#1D1D1F" points="30.2,21.8 30.2,18.2 27.6,20  "/>
</g>
</svg>