<svg xmlns:xlink="http://www.w3.org/1999/xlink" class="gem__icon-waves" xmlns="http://www.w3.org/2000/svg" width="80" height="54" viewBox="0 0 79.4 53.9">
							<g fill="none" stroke="#1D1D1F" stroke-width="3px" stroke-linejoin="bevel" stroke-miterlimit="10">
								<path class="wave-1" d="M19.2,18.1c8.8,0,10.2-7.8,10.2-7.8c0,0,1.4,7.8,10.2,7.8s10.2-7.8,10.2-7.8s1.4,7.8,10.2,7.8" stroke="#1D1D1F" fill="none" stroke-width="3px"></path>
								<path class="wave-2" d="M19.2,31.1c8.8,0,10.2-7.8,10.2-7.8c0,0,1.4,7.8,10.2,7.8s10.2-7.8,10.2-7.8s1.4,7.8,10.2,7.8" stroke="#1D1D1F" fill="none" stroke-width="3px"></path>
								<path class="wave-3" d="M19.2,44.1c8.8,0,10.2-7.8,10.2-7.8c0,0,1.4,7.8,10.2,7.8s10.2-7.8,10.2-7.8s1.4,7.8,10.2,7.8" stroke="#1D1D1F" fill="none" stroke-width="3px"></path>
							</g>
						</svg>