<svg xmlns="http://www.w3.org/2000/svg" xmlns:xlink="http://www.w3.org/1999/xlink" version="1.1" id="Ebene_1" x="0px" y="0px" width="350" height="820" viewBox="0 0 350 820" enable-background="new 0 0 350 820" xml:space="preserve">
<g>
	<g>
		<circle fill="none" stroke="#000000" stroke-miterlimit="10" stroke-dasharray="2.0086,2.0086" cx="113.7" cy="65.2" r="55"/>
	</g>
	<g>
		<circle fill="none" stroke="#000000" stroke-miterlimit="10" stroke-dasharray="2.0086,2.0086" cx="113.7" cy="754.2" r="55"/>
	</g>
	<g>
		<circle fill="none" stroke="#000000" stroke-miterlimit="10" stroke-dasharray="1.9993,1.9993" cx="115.7" cy="170.4" r="70"/>
	</g>
	<g>
		<circle fill="none" stroke="#000000" stroke-miterlimit="10" stroke-dasharray="2.0031,2.0031" cx="113.7" cy="315.2" r="95"/>
	</g>
	<g>
		<circle fill="none" stroke="#000000" stroke-miterlimit="10" stroke-dasharray="2.0031,2.0031" cx="113.7" cy="624.2" r="95"/>
	</g>
	<g>
		<circle fill="none" stroke="#000000" stroke-miterlimit="10" stroke-dasharray="1.9947,1.9947" cx="113.7" cy="469.2" r="80"/>
	</g>
</g>
<g>
	<g>
		<line fill="none" stroke="#000000" stroke-miterlimit="10" x1="186" y1="170.2" x2="186" y2="228.2"/>
		<g>
			<polygon points="181.7,224.7 182.4,224 185.8,227.6 189.1,224 189.8,224.7 185.8,229.1    "/>
		</g>
	</g>
</g>
<g>
	<g>
		<line fill="none" stroke="#000000" stroke-miterlimit="10" x1="209" y1="315.2" x2="209" y2="373.2"/>
		<g>
			<polygon points="204.7,369.7 205.4,369 208.8,372.6 212.1,369 212.8,369.7 208.8,374.1    "/>
		</g>
	</g>
</g>
<g>
	<g>
		<line fill="none" stroke="#000000" stroke-miterlimit="10" x1="19" y1="625.2" x2="19" y2="567.2"/>
		<g>
			<polygon points="22.8,571 22.1,571.7 18.8,568.1 15.4,571.7 14.7,571 18.8,566.6    "/>
		</g>
	</g>
</g>
<g>
	<g>
		<line fill="none" stroke="#000000" stroke-miterlimit="10" x1="194" y1="469.2" x2="194" y2="527.2"/>
		<g>
			<polygon points="189.7,523.7 190.4,523 193.8,526.6 197.1,523 197.8,523.7 193.8,528.1    "/>
		</g>
	</g>
</g>
<g>
	<g>
		<line fill="none" stroke="#000000" stroke-miterlimit="10" x1="209" y1="624.2" x2="209" y2="682.2"/>
		<g>
			<polygon points="204.7,678.7 205.4,678 208.8,681.6 212.1,678 212.8,678.7 208.8,683.1    "/>
		</g>
	</g>
</g>
<g>
	<g>
		<line fill="none" stroke="#000000" stroke-miterlimit="10" x1="169" y1="65.2" x2="169" y2="107.2"/>
		<g>
			<polygon points="164.7,103.8 165.4,103.1 168.8,106.8 172.1,103.1 172.8,103.8 168.8,108.2    "/>
		</g>
	</g>
</g>
<g>
	<g>
		<line fill="none" stroke="#000000" stroke-miterlimit="10" x1="59" y1="754.2" x2="59" y2="712.2"/>
		<g>
			<polygon points="62.8,716 62.1,716.7 58.8,713.1 55.4,716.7 54.7,716 58.8,711.6    "/>
		</g>
	</g>
</g>
<g>
	<g>
		<line fill="none" stroke="#000000" stroke-miterlimit="10" x1="34" y1="469.2" x2="34" y2="411.2"/>
		<g>
			<polygon points="37.8,415 37.1,415.7 33.8,412.1 30.4,415.7 29.7,415 33.8,410.6    "/>
		</g>
	</g>
</g>
<g>
	<g>
		<line fill="none" stroke="#000000" stroke-miterlimit="10" x1="19" y1="316.2" x2="19" y2="258.2"/>
		<g>
			<polygon points="22.8,262 22.1,262.7 18.8,259.1 15.4,262.7 14.7,262 18.8,257.6    "/>
		</g>
	</g>
</g>
<g>
	<g>
		<line fill="none" stroke="#000000" stroke-miterlimit="10" x1="46" y1="170.2" x2="46" y2="112.2"/>
		<g>
			<polygon points="49.8,116 49.1,116.7 45.8,113.1 42.4,116.7 41.7,116 45.8,111.6    "/>
		</g>
	</g>
</g>
<path fill="none" stroke="#000000" stroke-miterlimit="10" d="M168.7,754.2c0-16.8-7.5-31.8-19.4-41.9  c34.8-14.1,59.4-48.2,59.4-88.1c0-38-22.3-70.8-54.6-86c23.7-13.9,39.6-39.601,39.6-69c0-29-15.5-54.5-38.6-68.5  c31.7-15.4,53.6-47.9,53.6-85.5c0-38.1-22.5-71-54.9-86.1c19.2-12.5,31.9-34.1,31.9-58.7c0-27-15.3-50.5-37.8-62.1  c12.6-10.1,20.8-25.6,20.8-43c0-30.4-24.6-55-55-55c-30.4,0-55,24.6-55,55c0,18.2,8.8,34.3,22.4,44.3c-21.1,12-35.4,34.8-35.4,60.8  c0,23.9,12,45,30.3,57.6c-33.7,14.6-57.3,48.1-57.3,87.2c0,37.6,21.9,70.1,53.6,85.5c-23.1,14-38.6,39.399-38.6,68.5  c0,29.399,15.9,55.1,39.6,69c-32.2,15.2-54.6,48-54.6,86c0,39.899,24.6,74,59.4,88.1C66.2,722.4,58.7,737.4,58.7,754.2  c0,30.399,24.6,55,55,55C144.1,809.2,168.7,784.6,168.7,754.2z"/>
<defs>
	<filter id="Adobe_OpacityMaskFilter" filterUnits="userSpaceOnUse" x="3.847" y="-146.753" width="227.606" height="1115.107">
		<feColorMatrix type="matrix" values="1 0 0 0 0  0 1 0 0 0  0 0 1 0 0  0 0 0 1 0"/>
	</filter>
</defs>
<mask maskUnits="userSpaceOnUse" x="3.847" y="-146.753" width="227.606" height="1115.107" id="SVGID_1_">
	<g filter="url(#Adobe_OpacityMaskFilter)">
		<g>
			<circle fill="#FFFFFF" cx="113.7" cy="65.2" r="35"/>
			<circle fill="#FFFFFF" cx="113.7" cy="754.2" r="35"/>
			<circle fill="#FFFFFF" cx="115.7" cy="170.4" r="60"/>
			<circle fill="#FFFFFF" cx="113.7" cy="315.2" r="85"/>
			<circle fill="#FFFFFF" cx="113.7" cy="624.2" r="85"/>
			<circle fill="#FFFFFF" cx="113.7" cy="469.2" r="35"/>
			<path fill="#FFFFFF" d="M141.7,86.3c-8.3,11.1-8.8,21.9,10.2,36.2l-74.1,1.4c18.4-15,17.6-25.8,8.8-36.5L141.7,86.3z"/>
			<path fill="#FFFFFF" d="M146.9,221.6c-6.3,3.8-4.9,12.7,4.5,17.3l-73.1-1c9.5-4.4,11.2-13.2,5-17.2L146.9,221.6z"/>
			<path fill="#FFFFFF" d="M163.1,383.6c-39.1,28-32.4,48-20.9,64h-57c11.5-16,18.2-36-20.9-64H163.1z"/>
			<path fill="#FFFFFF" d="M64.3,553.6c39.6-28,32.7-49,21-65h56.9c-11.7,16-18.6,37,21,65H64.3z"/>
			<path fill="#FFFFFF" d="M86.6,730.6c7-8,7.3-21-15.8-34h85.8c-23.2,13-22.8,26-15.8,34H86.6z"/>
		</g>
	</g>
</mask>
<g mask="url(#SVGID_1_)">
	<line fill="none" stroke="#87C6BD" stroke-miterlimit="10" x1="4.2" y1="-146.4" x2="231.1" y2="80.5"/>
	<line fill="none" stroke="#87C6BD" stroke-miterlimit="10" x1="4.2" y1="-140.4" x2="231.1" y2="86.5"/>
	<line fill="none" stroke="#87C6BD" stroke-miterlimit="10" x1="4.2" y1="-134.4" x2="231.1" y2="92.5"/>
	<line fill="none" stroke="#87C6BD" stroke-miterlimit="10" x1="4.2" y1="-128.4" x2="231.1" y2="98.5"/>
	<line fill="none" stroke="#87C6BD" stroke-miterlimit="10" x1="4.2" y1="-122.4" x2="231.1" y2="104.5"/>
	<line fill="none" stroke="#87C6BD" stroke-miterlimit="10" x1="4.2" y1="-116.4" x2="231.1" y2="110.5"/>
	<line fill="none" stroke="#87C6BD" stroke-miterlimit="10" x1="4.2" y1="-110.4" x2="231.1" y2="116.5"/>
	<line fill="none" stroke="#87C6BD" stroke-miterlimit="10" x1="4.2" y1="-104.4" x2="231.1" y2="122.5"/>
	<line fill="none" stroke="#87C6BD" stroke-miterlimit="10" x1="4.2" y1="-98.4" x2="231.1" y2="128.5"/>
	<line fill="none" stroke="#87C6BD" stroke-miterlimit="10" x1="4.2" y1="-92.4" x2="231.1" y2="134.5"/>
	<line fill="none" stroke="#87C6BD" stroke-miterlimit="10" x1="4.2" y1="-86.4" x2="231.1" y2="140.5"/>
	<line fill="none" stroke="#87C6BD" stroke-miterlimit="10" x1="4.2" y1="-80.4" x2="231.1" y2="146.5"/>
	<line fill="none" stroke="#87C6BD" stroke-miterlimit="10" x1="4.2" y1="-74.4" x2="231.1" y2="152.5"/>
	<line fill="none" stroke="#87C6BD" stroke-miterlimit="10" x1="4.2" y1="-68.4" x2="231.1" y2="158.5"/>
	<line fill="none" stroke="#87C6BD" stroke-miterlimit="10" x1="4.2" y1="-62.4" x2="231.1" y2="164.5"/>
	<line fill="none" stroke="#87C6BD" stroke-miterlimit="10" x1="4.2" y1="-56.4" x2="231.1" y2="170.5"/>
	<line fill="none" stroke="#87C6BD" stroke-miterlimit="10" x1="4.2" y1="-50.4" x2="231.1" y2="176.5"/>
	<line fill="none" stroke="#87C6BD" stroke-miterlimit="10" x1="4.2" y1="-44.4" x2="231.1" y2="182.5"/>
	<line fill="none" stroke="#87C6BD" stroke-miterlimit="10" x1="4.2" y1="-38.4" x2="231.1" y2="188.5"/>
	<line fill="none" stroke="#87C6BD" stroke-miterlimit="10" x1="4.2" y1="-32.4" x2="231.1" y2="194.4"/>
	<line fill="none" stroke="#87C6BD" stroke-miterlimit="10" x1="4.2" y1="-26.4" x2="231.1" y2="200.4"/>
	<line fill="none" stroke="#87C6BD" stroke-miterlimit="10" x1="4.2" y1="-20.4" x2="231.1" y2="206.4"/>
	<line fill="none" stroke="#87C6BD" stroke-miterlimit="10" x1="4.2" y1="-14.4" x2="231.1" y2="212.4"/>
	<line fill="none" stroke="#87C6BD" stroke-miterlimit="10" x1="4.2" y1="-8.4" x2="231.1" y2="218.4"/>
	<line fill="none" stroke="#87C6BD" stroke-miterlimit="10" x1="4.2" y1="-2.4" x2="231.1" y2="224.4"/>
	<line fill="none" stroke="#87C6BD" stroke-miterlimit="10" x1="4.2" y1="3.6" x2="231.1" y2="230.4"/>
	<line fill="none" stroke="#87C6BD" stroke-miterlimit="10" x1="4.2" y1="9.6" x2="231.1" y2="236.4"/>
	<line fill="none" stroke="#87C6BD" stroke-miterlimit="10" x1="4.2" y1="15.6" x2="231.1" y2="242.4"/>
	<line fill="none" stroke="#87C6BD" stroke-miterlimit="10" x1="4.2" y1="21.6" x2="231.1" y2="248.4"/>
	<line fill="none" stroke="#87C6BD" stroke-miterlimit="10" x1="4.2" y1="27.6" x2="231.1" y2="254.4"/>
	<line fill="none" stroke="#87C6BD" stroke-miterlimit="10" x1="4.2" y1="33.5" x2="231.1" y2="260.4"/>
	<line fill="none" stroke="#87C6BD" stroke-miterlimit="10" x1="4.2" y1="39.5" x2="231.1" y2="266.4"/>
	<line fill="none" stroke="#87C6BD" stroke-miterlimit="10" x1="4.2" y1="45.5" x2="231.1" y2="272.4"/>
	<line fill="none" stroke="#87C6BD" stroke-miterlimit="10" x1="4.2" y1="51.5" x2="231.1" y2="278.4"/>
	<line fill="none" stroke="#87C6BD" stroke-miterlimit="10" x1="4.2" y1="57.5" x2="231.1" y2="284.4"/>
	<line fill="none" stroke="#87C6BD" stroke-miterlimit="10" x1="4.2" y1="63.5" x2="231.1" y2="290.4"/>
	<line fill="none" stroke="#87C6BD" stroke-miterlimit="10" x1="4.2" y1="69.5" x2="231.1" y2="296.4"/>
	<line fill="none" stroke="#87C6BD" stroke-miterlimit="10" x1="4.2" y1="75.5" x2="231.1" y2="302.4"/>
	<line fill="none" stroke="#87C6BD" stroke-miterlimit="10" x1="4.2" y1="81.5" x2="231.1" y2="308.4"/>
	<line fill="none" stroke="#87C6BD" stroke-miterlimit="10" x1="4.2" y1="87.5" x2="231.1" y2="314.4"/>
	<line fill="none" stroke="#87C6BD" stroke-miterlimit="10" x1="4.2" y1="93.5" x2="231.1" y2="320.4"/>
	<line fill="none" stroke="#87C6BD" stroke-miterlimit="10" x1="4.2" y1="99.5" x2="231.1" y2="326.4"/>
	<line fill="none" stroke="#87C6BD" stroke-miterlimit="10" x1="4.2" y1="105.5" x2="231.1" y2="332.4"/>
	<line fill="none" stroke="#87C6BD" stroke-miterlimit="10" x1="4.2" y1="111.5" x2="231.1" y2="338.4"/>
	<line fill="none" stroke="#87C6BD" stroke-miterlimit="10" x1="4.2" y1="117.5" x2="231.1" y2="344.4"/>
	<line fill="none" stroke="#87C6BD" stroke-miterlimit="10" x1="4.2" y1="123.5" x2="231.1" y2="350.4"/>
	<line fill="none" stroke="#87C6BD" stroke-miterlimit="10" x1="4.2" y1="129.5" x2="231.1" y2="356.4"/>
	<line fill="none" stroke="#87C6BD" stroke-miterlimit="10" x1="4.2" y1="135.5" x2="231.1" y2="362.4"/>
	<line fill="none" stroke="#87C6BD" stroke-miterlimit="10" x1="4.2" y1="141.5" x2="231.1" y2="368.4"/>
	<line fill="none" stroke="#87C6BD" stroke-miterlimit="10" x1="4.2" y1="147.5" x2="231.1" y2="374.3"/>
	<line fill="none" stroke="#87C6BD" stroke-miterlimit="10" x1="4.2" y1="153.5" x2="231.1" y2="380.3"/>
	<line fill="none" stroke="#87C6BD" stroke-miterlimit="10" x1="4.2" y1="159.5" x2="231.1" y2="386.3"/>
	<line fill="none" stroke="#87C6BD" stroke-miterlimit="10" x1="4.2" y1="165.5" x2="231.1" y2="392.3"/>
	<line fill="none" stroke="#87C6BD" stroke-miterlimit="10" x1="4.2" y1="171.5" x2="231.1" y2="398.3"/>
	<line fill="none" stroke="#87C6BD" stroke-miterlimit="10" x1="4.2" y1="177.5" x2="231.1" y2="404.3"/>
	<line fill="none" stroke="#87C6BD" stroke-miterlimit="10" x1="4.2" y1="183.5" x2="231.1" y2="410.3"/>
	<line fill="none" stroke="#87C6BD" stroke-miterlimit="10" x1="4.2" y1="189.5" x2="231.1" y2="416.3"/>
	<line fill="none" stroke="#87C6BD" stroke-miterlimit="10" x1="4.2" y1="195.5" x2="231.1" y2="422.3"/>
	<line fill="none" stroke="#87C6BD" stroke-miterlimit="10" x1="4.2" y1="201.5" x2="231.1" y2="428.3"/>
	<line fill="none" stroke="#87C6BD" stroke-miterlimit="10" x1="4.2" y1="207.5" x2="231.1" y2="434.3"/>
	<line fill="none" stroke="#87C6BD" stroke-miterlimit="10" x1="4.2" y1="213.5" x2="231.1" y2="440.3"/>
	<line fill="none" stroke="#87C6BD" stroke-miterlimit="10" x1="4.2" y1="219.4" x2="231.1" y2="446.3"/>
	<line fill="none" stroke="#87C6BD" stroke-miterlimit="10" x1="4.2" y1="225.4" x2="231.1" y2="452.3"/>
	<line fill="none" stroke="#87C6BD" stroke-miterlimit="10" x1="4.2" y1="231.4" x2="231.1" y2="458.3"/>
	<line fill="none" stroke="#87C6BD" stroke-miterlimit="10" x1="4.2" y1="237.4" x2="231.1" y2="464.3"/>
	<line fill="none" stroke="#87C6BD" stroke-miterlimit="10" x1="4.2" y1="243.4" x2="231.1" y2="470.3"/>
	<line fill="none" stroke="#87C6BD" stroke-miterlimit="10" x1="4.2" y1="249.4" x2="231.1" y2="476.3"/>
	<line fill="none" stroke="#87C6BD" stroke-miterlimit="10" x1="4.2" y1="255.4" x2="231.1" y2="482.3"/>
	<line fill="none" stroke="#87C6BD" stroke-miterlimit="10" x1="4.2" y1="261.4" x2="231.1" y2="488.3"/>
	<line fill="none" stroke="#87C6BD" stroke-miterlimit="10" x1="4.2" y1="267.4" x2="231.1" y2="494.3"/>
	<line fill="none" stroke="#87C6BD" stroke-miterlimit="10" x1="4.2" y1="273.4" x2="231.1" y2="500.3"/>
	<line fill="none" stroke="#87C6BD" stroke-miterlimit="10" x1="4.2" y1="279.4" x2="231.1" y2="506.3"/>
	<line fill="none" stroke="#87C6BD" stroke-miterlimit="10" x1="4.2" y1="285.4" x2="231.1" y2="512.3"/>
	<line fill="none" stroke="#87C6BD" stroke-miterlimit="10" x1="4.2" y1="291.4" x2="231.1" y2="518.3"/>
	<line fill="none" stroke="#87C6BD" stroke-miterlimit="10" x1="4.2" y1="297.4" x2="231.1" y2="524.3"/>
	<line fill="none" stroke="#87C6BD" stroke-miterlimit="10" x1="4.2" y1="303.4" x2="231.1" y2="530.3"/>
	<line fill="none" stroke="#87C6BD" stroke-miterlimit="10" x1="4.2" y1="309.4" x2="231.1" y2="536.3"/>
	<line fill="none" stroke="#87C6BD" stroke-miterlimit="10" x1="4.2" y1="315.4" x2="231.1" y2="542.3"/>
	<line fill="none" stroke="#87C6BD" stroke-miterlimit="10" x1="4.2" y1="321.4" x2="231.1" y2="548.3"/>
	<line fill="none" stroke="#87C6BD" stroke-miterlimit="10" x1="4.2" y1="327.4" x2="231.1" y2="554.2"/>
	<line fill="none" stroke="#87C6BD" stroke-miterlimit="10" x1="4.2" y1="333.4" x2="231.1" y2="560.2"/>
	<line fill="none" stroke="#87C6BD" stroke-miterlimit="10" x1="4.2" y1="339.4" x2="231.1" y2="566.2"/>
	<line fill="none" stroke="#87C6BD" stroke-miterlimit="10" x1="4.2" y1="345.4" x2="231.1" y2="572.2"/>
	<line fill="none" stroke="#87C6BD" stroke-miterlimit="10" x1="4.2" y1="351.4" x2="231.1" y2="578.2"/>
	<line fill="none" stroke="#87C6BD" stroke-miterlimit="10" x1="4.2" y1="357.4" x2="231.1" y2="584.2"/>
	<line fill="none" stroke="#87C6BD" stroke-miterlimit="10" x1="4.2" y1="363.4" x2="231.1" y2="590.2"/>
	<line fill="none" stroke="#87C6BD" stroke-miterlimit="10" x1="4.2" y1="369.4" x2="231.1" y2="596.2"/>
	<line fill="none" stroke="#87C6BD" stroke-miterlimit="10" x1="4.2" y1="375.4" x2="231.1" y2="602.2"/>
	<line fill="none" stroke="#87C6BD" stroke-miterlimit="10" x1="4.2" y1="381.4" x2="231.1" y2="608.2"/>
	<line fill="none" stroke="#87C6BD" stroke-miterlimit="10" x1="4.2" y1="387.4" x2="231.1" y2="614.2"/>
	<line fill="none" stroke="#87C6BD" stroke-miterlimit="10" x1="4.2" y1="393.4" x2="231.1" y2="620.2"/>
	<line fill="none" stroke="#87C6BD" stroke-miterlimit="10" x1="4.2" y1="399.3" x2="231.1" y2="626.2"/>
	<line fill="none" stroke="#87C6BD" stroke-miterlimit="10" x1="4.2" y1="405.3" x2="231.1" y2="632.2"/>
	<line fill="none" stroke="#87C6BD" stroke-miterlimit="10" x1="4.2" y1="411.3" x2="231.1" y2="638.2"/>
	<line fill="none" stroke="#87C6BD" stroke-miterlimit="10" x1="4.2" y1="417.3" x2="231.1" y2="644.2"/>
	<line fill="none" stroke="#87C6BD" stroke-miterlimit="10" x1="4.2" y1="423.3" x2="231.1" y2="650.2"/>
	<line fill="none" stroke="#87C6BD" stroke-miterlimit="10" x1="4.2" y1="429.3" x2="231.1" y2="656.2"/>
	<line fill="none" stroke="#87C6BD" stroke-miterlimit="10" x1="4.2" y1="435.3" x2="231.1" y2="662.2"/>
	<line fill="none" stroke="#87C6BD" stroke-miterlimit="10" x1="4.2" y1="441.3" x2="231.1" y2="668.2"/>
	<line fill="none" stroke="#87C6BD" stroke-miterlimit="10" x1="4.2" y1="447.3" x2="231.1" y2="674.2"/>
	<line fill="none" stroke="#87C6BD" stroke-miterlimit="10" x1="4.2" y1="453.3" x2="231.1" y2="680.2"/>
	<line fill="none" stroke="#87C6BD" stroke-miterlimit="10" x1="4.2" y1="459.3" x2="231.1" y2="686.2"/>
	<line fill="none" stroke="#87C6BD" stroke-miterlimit="10" x1="4.2" y1="465.3" x2="231.1" y2="692.2"/>
	<line fill="none" stroke="#87C6BD" stroke-miterlimit="10" x1="4.2" y1="471.3" x2="231.1" y2="698.2"/>
	<line fill="none" stroke="#87C6BD" stroke-miterlimit="10" x1="4.2" y1="477.3" x2="231.1" y2="704.2"/>
	<line fill="none" stroke="#87C6BD" stroke-miterlimit="10" x1="4.2" y1="483.3" x2="231.1" y2="710.2"/>
	<line fill="none" stroke="#87C6BD" stroke-miterlimit="10" x1="4.2" y1="489.3" x2="231.1" y2="716.2"/>
	<line fill="none" stroke="#87C6BD" stroke-miterlimit="10" x1="4.2" y1="495.3" x2="231.1" y2="722.2"/>
	<line fill="none" stroke="#87C6BD" stroke-miterlimit="10" x1="4.2" y1="501.3" x2="231.1" y2="728.2"/>
	<line fill="none" stroke="#87C6BD" stroke-miterlimit="10" x1="4.2" y1="507.3" x2="231.1" y2="734.1"/>
	<line fill="none" stroke="#87C6BD" stroke-miterlimit="10" x1="4.2" y1="513.3" x2="231.1" y2="740.1"/>
	<line fill="none" stroke="#87C6BD" stroke-miterlimit="10" x1="4.2" y1="519.3" x2="231.1" y2="746.1"/>
	<line fill="none" stroke="#87C6BD" stroke-miterlimit="10" x1="4.2" y1="525.3" x2="231.1" y2="752.1"/>
	<line fill="none" stroke="#87C6BD" stroke-miterlimit="10" x1="4.2" y1="531.3" x2="231.1" y2="758.1"/>
	<line fill="none" stroke="#87C6BD" stroke-miterlimit="10" x1="4.2" y1="537.3" x2="231.1" y2="764.1"/>
	<line fill="none" stroke="#87C6BD" stroke-miterlimit="10" x1="4.2" y1="543.3" x2="231.1" y2="770.1"/>
	<line fill="none" stroke="#87C6BD" stroke-miterlimit="10" x1="4.2" y1="549.3" x2="231.1" y2="776.1"/>
	<line fill="none" stroke="#87C6BD" stroke-miterlimit="10" x1="4.2" y1="555.3" x2="231.1" y2="782.1"/>
	<line fill="none" stroke="#87C6BD" stroke-miterlimit="10" x1="4.2" y1="561.3" x2="231.1" y2="788.1"/>
	<line fill="none" stroke="#87C6BD" stroke-miterlimit="10" x1="4.2" y1="567.3" x2="231.1" y2="794.1"/>
	<line fill="none" stroke="#87C6BD" stroke-miterlimit="10" x1="4.2" y1="573.3" x2="231.1" y2="800.1"/>
	<line fill="none" stroke="#87C6BD" stroke-miterlimit="10" x1="4.2" y1="579.2" x2="231.1" y2="806.1"/>
	<line fill="none" stroke="#87C6BD" stroke-miterlimit="10" x1="4.2" y1="585.2" x2="231.1" y2="812.1"/>
	<line fill="none" stroke="#87C6BD" stroke-miterlimit="10" x1="4.2" y1="591.2" x2="231.1" y2="818.1"/>
	<line fill="none" stroke="#87C6BD" stroke-miterlimit="10" x1="4.2" y1="597.2" x2="231.1" y2="824.1"/>
	<line fill="none" stroke="#87C6BD" stroke-miterlimit="10" x1="4.2" y1="603.2" x2="231.1" y2="830.1"/>
	<line fill="none" stroke="#87C6BD" stroke-miterlimit="10" x1="4.2" y1="609.2" x2="231.1" y2="836.1"/>
	<line fill="none" stroke="#87C6BD" stroke-miterlimit="10" x1="4.2" y1="615.2" x2="231.1" y2="842.1"/>
	<line fill="none" stroke="#87C6BD" stroke-miterlimit="10" x1="4.2" y1="621.2" x2="231.1" y2="848.1"/>
	<line fill="none" stroke="#87C6BD" stroke-miterlimit="10" x1="4.2" y1="627.2" x2="231.1" y2="854.1"/>
	<line fill="none" stroke="#87C6BD" stroke-miterlimit="10" x1="4.2" y1="633.2" x2="231.1" y2="860.1"/>
	<line fill="none" stroke="#87C6BD" stroke-miterlimit="10" x1="4.2" y1="639.2" x2="231.1" y2="866.1"/>
	<line fill="none" stroke="#87C6BD" stroke-miterlimit="10" x1="4.2" y1="645.2" x2="231.1" y2="872.1"/>
	<line fill="none" stroke="#87C6BD" stroke-miterlimit="10" x1="4.2" y1="651.2" x2="231.1" y2="878.1"/>
	<line fill="none" stroke="#87C6BD" stroke-miterlimit="10" x1="4.2" y1="657.2" x2="231.1" y2="884.1"/>
	<line fill="none" stroke="#87C6BD" stroke-miterlimit="10" x1="4.2" y1="663.2" x2="231.1" y2="890.1"/>
	<line fill="none" stroke="#87C6BD" stroke-miterlimit="10" x1="4.2" y1="669.2" x2="231.1" y2="896.1"/>
	<line fill="none" stroke="#87C6BD" stroke-miterlimit="10" x1="4.2" y1="675.2" x2="231.1" y2="902.1"/>
	<line fill="none" stroke="#87C6BD" stroke-miterlimit="10" x1="4.2" y1="681.2" x2="231.1" y2="908.1"/>
	<line fill="none" stroke="#87C6BD" stroke-miterlimit="10" x1="4.2" y1="687.2" x2="231.1" y2="914.1"/>
	<line fill="none" stroke="#87C6BD" stroke-miterlimit="10" x1="4.2" y1="693.2" x2="231.1" y2="920"/>
	<line fill="none" stroke="#87C6BD" stroke-miterlimit="10" x1="4.2" y1="699.2" x2="231.1" y2="926"/>
	<line fill="none" stroke="#87C6BD" stroke-miterlimit="10" x1="4.2" y1="705.2" x2="231.1" y2="932"/>
	<line fill="none" stroke="#87C6BD" stroke-miterlimit="10" x1="4.2" y1="711.2" x2="231.1" y2="938"/>
	<line fill="none" stroke="#87C6BD" stroke-miterlimit="10" x1="4.2" y1="717.2" x2="231.1" y2="944"/>
	<line fill="none" stroke="#87C6BD" stroke-miterlimit="10" x1="4.2" y1="723.2" x2="231.1" y2="950"/>
	<line fill="none" stroke="#87C6BD" stroke-miterlimit="10" x1="4.2" y1="729.2" x2="231.1" y2="956"/>
	<line fill="none" stroke="#87C6BD" stroke-miterlimit="10" x1="4.2" y1="735.2" x2="231.1" y2="962"/>
	<line fill="none" stroke="#87C6BD" stroke-miterlimit="10" x1="4.2" y1="741.2" x2="231.1" y2="968"/>
</g>
<g enable-background="new    ">
	<path d="M242.053,61.479V65.2h-1.617v-8.402h3.059c0.768,0,1.383,0.211,1.834,0.627c0.498,0.475,0.744,1.043,0.744,1.717   s-0.246,1.242-0.744,1.717c-0.24,0.223-0.516,0.387-0.838,0.492l3.146,3.85h-2.004l-2.988-3.721H242.053z M242.053,58.239v1.799   h1.348c0.779,0,1.055-0.393,1.055-0.885c0-0.516-0.287-0.914-1.055-0.914H242.053z"/>
	<path d="M248.691,62.294c0-1.682,1.148-3.035,2.83-3.035c1.588,0,2.748,1.33,2.748,2.977c0,0.17-0.012,0.316-0.035,0.445h-4.031   c0.076,0.814,0.744,1.377,1.57,1.377c0.557,0,1.049-0.223,1.465-0.668l0.885,0.885c-0.562,0.656-1.471,1.043-2.385,1.043   C249.98,65.317,248.691,64.099,248.691,62.294z M252.676,61.538c-0.047-0.545-0.545-1.02-1.154-1.02   c-0.627,0-1.172,0.475-1.248,1.02H252.676z"/>
	<path d="M256.818,63.425c0.428,0.381,0.961,0.574,1.6,0.574c0.416,0,0.744-0.205,0.744-0.492c0-0.322-0.439-0.533-0.99-0.709   s-1.154-0.357-1.541-0.844c-0.193-0.24-0.293-0.539-0.293-0.885c0-1.072,1.037-1.811,2.232-1.811c0.721,0,1.57,0.27,1.969,0.592   l-0.732,1.125c-0.369-0.264-0.738-0.398-1.113-0.393c-0.445,0-0.791,0.182-0.791,0.463c0,0.275,0.434,0.445,0.996,0.621   c0.557,0.176,1.154,0.381,1.535,0.896c0.193,0.264,0.287,0.58,0.287,0.955c0,1.072-1.043,1.799-2.314,1.799   c-0.861,0-1.641-0.258-2.344-0.779L256.818,63.425z"/>
	<path d="M262.677,62.294c0-1.682,1.148-3.035,2.83-3.035c1.588,0,2.748,1.33,2.748,2.977c0,0.17-0.012,0.316-0.035,0.445h-4.031   c0.076,0.814,0.744,1.377,1.57,1.377c0.557,0,1.049-0.223,1.465-0.668l0.885,0.885c-0.562,0.656-1.471,1.043-2.385,1.043   C263.966,65.317,262.677,64.099,262.677,62.294z M266.661,61.538c-0.047-0.545-0.545-1.02-1.154-1.02   c-0.627,0-1.172,0.475-1.248,1.02H266.661z"/>
	<path d="M270.206,62.294c0-1.711,1.266-3.035,2.854-3.035c0.656,0,1.225,0.199,1.705,0.592v-0.469h1.5V65.2h-1.5v-0.469   c-0.463,0.393-1.008,0.586-1.623,0.586C271.354,65.317,270.206,63.864,270.206,62.294z M271.765,62.294   c0,0.914,0.65,1.588,1.535,1.588c0.604,0,1.072-0.24,1.406-0.721v-1.74c-0.357-0.48-0.838-0.721-1.441-0.721   C272.38,60.7,271.765,61.427,271.765,62.294z"/>
	<path d="M280.618,65.2h-1.559v-5.818h1.5v0.586c0.381-0.475,0.943-0.709,1.688-0.709c0.129,0,0.305,0.018,0.527,0.047l-0.176,1.453   c-0.123-0.041-0.311-0.059-0.562-0.059c-0.627,0-1.189,0.422-1.418,0.838V65.2z"/>
	<path d="M285.2,64.438c-0.592-0.58-0.891-1.295-0.891-2.145c0-1.693,1.354-3.035,3.129-3.035c0.99,0,1.887,0.463,2.449,1.166   l-1.102,0.973c-0.352-0.463-0.803-0.697-1.348-0.697c-0.896,0-1.57,0.703-1.57,1.594c0,0.914,0.668,1.588,1.605,1.588   c0.592,0,1.107-0.34,1.395-0.768l1.201,0.896c-0.656,0.873-1.535,1.307-2.643,1.307C286.53,65.317,285.792,65.024,285.2,64.438z"/>
	<path d="M293.819,65.2h-1.559v-8.52h1.559v3.117c0.463-0.357,0.99-0.539,1.582-0.539c1.646,0,2.613,1.201,2.619,2.977V65.2h-1.564   v-3.082c0-0.99-0.486-1.418-1.219-1.418c-0.592,0-1.16,0.352-1.418,0.721V65.2z"/>
</g>
<g enable-background="new    ">
	<path d="M242.053,166.645v3.422h-1.617v-8.402h3.152c1.951,0,2.848,1.09,2.848,2.496c0,1.412-0.879,2.484-2.848,2.484H242.053z    M242.053,163.105v2.104h1.465c0.943,0,1.295-0.504,1.295-1.049c0-0.562-0.352-1.049-1.295-1.055H242.053z"/>
	<path d="M250.127,170.066h-1.559v-5.818h1.5v0.586c0.381-0.475,0.943-0.709,1.688-0.709c0.129,0,0.305,0.018,0.527,0.047   l-0.176,1.453c-0.123-0.041-0.311-0.059-0.562-0.059c-0.627,0-1.189,0.422-1.418,0.838V170.066z"/>
	<path d="M254.709,169.305c-0.592-0.58-0.891-1.295-0.891-2.145c0-1.693,1.336-3.035,3.094-3.035s3.094,1.342,3.094,3.035   s-1.336,3.023-3.094,3.023C256.033,170.184,255.301,169.891,254.709,169.305z M255.811,166.029   c-0.287,0.311-0.434,0.686-0.434,1.131c0,0.896,0.639,1.588,1.535,1.588s1.535-0.691,1.535-1.588c0-0.891-0.639-1.594-1.535-1.594   C256.461,165.566,256.098,165.719,255.811,166.029z"/>
	<path d="M261.962,167.16c0-1.711,1.266-3.035,2.854-3.035c0.639,0,1.189,0.182,1.646,0.539v-3.117h1.559v8.52h-1.5v-0.469   c-0.463,0.393-1.008,0.586-1.623,0.586C263.11,170.184,261.962,168.73,261.962,167.16z M263.521,167.16   c0,0.914,0.65,1.588,1.535,1.588c0.604,0,1.072-0.24,1.406-0.721v-1.74c-0.357-0.48-0.838-0.721-1.441-0.721   C264.136,165.566,263.521,166.293,263.521,167.16z"/>
	<path d="M270.692,164.248h1.559v3.141c0,0.896,0.434,1.354,1.166,1.359c0.527,0,0.979-0.24,1.354-0.721v-3.779h1.564v5.818h-1.5   v-0.469c-0.439,0.393-0.967,0.586-1.576,0.586c-1.635,0-2.566-1.254-2.566-2.854V164.248z"/>
	<path d="M279.54,169.305c-0.592-0.58-0.891-1.295-0.891-2.145c0-1.693,1.354-3.035,3.129-3.035c0.99,0,1.887,0.463,2.449,1.166   l-1.102,0.973c-0.352-0.463-0.803-0.697-1.348-0.697c-0.896,0-1.57,0.703-1.57,1.594c0,0.914,0.668,1.588,1.605,1.588   c0.592,0,1.107-0.34,1.395-0.768l1.201,0.896c-0.656,0.873-1.535,1.307-2.643,1.307C280.87,170.184,280.132,169.891,279.54,169.305   z"/>
	<path d="M287.556,165.566h-1.617v-1.318h1.617v-1.623h1.564v1.623h1.916v1.318h-1.916v2.221c0,0.674,0.258,1.02,0.984,1.02   c0.246,0,0.457-0.018,0.633-0.059l0.24,1.318c-0.223,0.076-0.545,0.117-0.973,0.117c-1.846,0-2.449-1.025-2.449-2.578V165.566z"/>
</g>
<g enable-background="new    ">
	<path d="M240.436,185.066v-8.402h2.637c2.414,0,3.527,1.072,4.119,2.268c0.299,0.604,0.445,1.248,0.445,1.934   c0,1.377-0.633,2.643-1.67,3.41c-0.721,0.527-1.682,0.791-2.895,0.791H240.436z M242.053,178.105v5.52h1.201   c1.875,0,2.76-1.354,2.76-2.76s-0.885-2.76-2.76-2.76H242.053z"/>
	<path d="M249.652,182.16c0-1.682,1.148-3.035,2.83-3.035c1.588,0,2.748,1.33,2.748,2.977c0,0.17-0.012,0.316-0.035,0.445h-4.031   c0.076,0.814,0.744,1.377,1.57,1.377c0.557,0,1.049-0.223,1.465-0.668l0.885,0.885c-0.562,0.656-1.471,1.043-2.385,1.043   C250.941,185.184,249.652,183.965,249.652,182.16z M253.637,181.404c-0.047-0.545-0.545-1.02-1.154-1.02   c-0.627,0-1.172,0.475-1.248,1.02H253.637z"/>
	<path d="M257.779,183.291c0.428,0.381,0.961,0.574,1.6,0.574c0.416,0,0.744-0.205,0.744-0.492c0-0.322-0.439-0.533-0.99-0.709   s-1.154-0.357-1.541-0.844c-0.193-0.24-0.293-0.539-0.293-0.885c0-1.072,1.037-1.811,2.232-1.811c0.721,0,1.57,0.27,1.969,0.592   l-0.732,1.125c-0.369-0.264-0.738-0.398-1.113-0.393c-0.445,0-0.791,0.182-0.791,0.463c0,0.275,0.434,0.445,0.996,0.621   c0.557,0.176,1.154,0.381,1.535,0.896c0.193,0.264,0.287,0.58,0.287,0.955c0,1.072-1.043,1.799-2.314,1.799   c-0.861,0-1.641-0.258-2.344-0.779L257.779,183.291z"/>
	<path d="M264.177,177.889c-0.199-0.193-0.299-0.428-0.299-0.709c0-0.557,0.457-0.996,1.02-0.996c0.557,0,1.02,0.439,1.02,0.996   c0,0.562-0.463,0.996-1.02,0.996C264.616,178.176,264.376,178.082,264.177,177.889z M265.677,179.248v5.818h-1.559v-5.818H265.677z   "/>
	<path d="M267.991,182.16c0-1.711,1.266-3.035,2.854-3.035c0.656,0,1.225,0.199,1.705,0.592v-0.469h1.5v5.496   c0,1.893-0.697,2.602-1.6,3.012c-0.451,0.205-0.955,0.311-1.506,0.311c-1.107,0-2.209-0.498-2.801-1.201l0.984-1.02   c0.521,0.557,1.125,0.838,1.811,0.838c1.055,0,1.547-0.539,1.553-1.834v-0.193c-0.457,0.352-0.979,0.527-1.564,0.527   c-0.85,0-1.682-0.375-2.203-0.979C268.237,183.637,267.991,182.951,267.991,182.16z M269.55,182.16c0,0.914,0.65,1.588,1.535,1.588   c0.604,0,1.072-0.24,1.406-0.721v-1.74c-0.357-0.48-0.838-0.721-1.441-0.721C270.165,180.566,269.55,181.293,269.55,182.16z"/>
	<path d="M278.403,185.066h-1.559v-5.818h1.5v0.469c0.961-0.779,2.619-0.902,3.656,0.346c0.398,0.475,0.598,1.154,0.604,2.039v2.965   h-1.564v-3.082c0-0.99-0.486-1.418-1.219-1.418c-0.592,0-1.16,0.352-1.418,0.721V185.066z"/>
</g>
<g enable-background="new    ">
	<path d="M240.377,307.665h1.617v4.98c0,1.389,0.826,2.104,1.98,2.104c1.148,0,1.98-0.703,1.98-2.104v-4.98h1.617v4.863   c0,1.213-0.357,2.145-1.078,2.795c-0.65,0.574-1.488,0.861-2.52,0.861s-1.869-0.287-2.52-0.861   c-0.721-0.65-1.078-1.582-1.078-2.795V307.665z"/>
	<path d="M253.367,312.874l-2.039,3.193h-1.857l2.9-4.477l-2.543-3.926h1.863l1.676,2.654l1.682-2.654h1.857l-2.555,3.926   l2.918,4.477h-1.863L253.367,312.874z"/>
	<path d="M263.633,316.067v-8.402h2.637c2.414,0,3.527,1.072,4.119,2.268c0.299,0.604,0.445,1.248,0.445,1.934   c0,1.377-0.633,2.643-1.67,3.41c-0.721,0.527-1.682,0.791-2.895,0.791H263.633z M265.25,309.106v5.52h1.201   c1.875,0,2.76-1.354,2.76-2.76s-0.885-2.76-2.76-2.76H265.25z"/>
	<path d="M272.85,313.161c0-1.682,1.148-3.035,2.83-3.035c1.588,0,2.748,1.33,2.748,2.977c0,0.17-0.012,0.316-0.035,0.445h-4.031   c0.076,0.814,0.744,1.377,1.57,1.377c0.557,0,1.049-0.223,1.465-0.668l0.885,0.885c-0.562,0.656-1.471,1.043-2.385,1.043   C274.139,316.185,272.85,314.966,272.85,313.161z M276.834,312.405c-0.047-0.545-0.545-1.02-1.154-1.02   c-0.627,0-1.172,0.475-1.248,1.02H276.834z"/>
	<path d="M280.977,314.292c0.428,0.381,0.961,0.574,1.6,0.574c0.416,0,0.744-0.205,0.744-0.492c0-0.322-0.439-0.533-0.99-0.709   s-1.154-0.357-1.541-0.844c-0.193-0.24-0.293-0.539-0.293-0.885c0-1.072,1.037-1.811,2.232-1.811c0.721,0,1.57,0.27,1.969,0.592   l-0.732,1.125c-0.369-0.264-0.738-0.398-1.113-0.393c-0.445,0-0.791,0.182-0.791,0.463c0,0.275,0.434,0.445,0.996,0.621   c0.557,0.176,1.154,0.381,1.535,0.896c0.193,0.264,0.287,0.58,0.287,0.955c0,1.072-1.043,1.799-2.314,1.799   c-0.861,0-1.641-0.258-2.344-0.779L280.977,314.292z"/>
	<path d="M287.375,308.89c-0.199-0.193-0.299-0.428-0.299-0.709c0-0.557,0.457-0.996,1.02-0.996c0.557,0,1.02,0.439,1.02,0.996   c0,0.562-0.463,0.996-1.02,0.996C287.814,309.177,287.574,309.083,287.375,308.89z M288.875,310.249v5.818h-1.559v-5.818H288.875z"/>
	<path d="M291.189,313.161c0-1.711,1.266-3.035,2.854-3.035c0.656,0,1.225,0.199,1.705,0.592v-0.469h1.5v5.496   c0,1.893-0.697,2.602-1.6,3.012c-0.451,0.205-0.955,0.311-1.506,0.311c-1.107,0-2.209-0.498-2.801-1.201l0.984-1.02   c0.521,0.557,1.125,0.838,1.811,0.838c1.055,0,1.547-0.539,1.553-1.834v-0.193c-0.457,0.352-0.979,0.527-1.564,0.527   c-0.85,0-1.682-0.375-2.203-0.979C291.436,314.638,291.189,313.952,291.189,313.161z M292.748,313.161   c0,0.914,0.65,1.588,1.535,1.588c0.604,0,1.072-0.24,1.406-0.721v-1.74c-0.357-0.48-0.838-0.721-1.441-0.721   C293.363,311.567,292.748,312.294,292.748,313.161z"/>
	<path d="M301.601,316.067h-1.559v-5.818h1.5v0.469c0.961-0.779,2.619-0.902,3.656,0.346c0.398,0.475,0.598,1.154,0.604,2.039v2.965   h-1.564v-3.082c0-0.99-0.486-1.418-1.219-1.418c-0.592,0-1.16,0.352-1.418,0.721V316.067z"/>
	<path d="M312.101,313.437c0-0.967,0.498-1.787,1.5-2.455c-0.885-1.172-0.855-2.203-0.059-2.906   c0.398-0.352,0.873-0.527,1.418-0.527c1.172,0,2.016,0.826,2.016,1.969c0,0.674-0.369,1.289-1.107,1.857l1.611,1.852   c0.076-0.299,0.117-0.598,0.117-0.902c0-0.404-0.07-0.844-0.205-1.318l1.453-0.352c0.17,0.574,0.252,1.137,0.252,1.682   c0,0.85-0.17,1.564-0.516,2.15l1.383,1.582h-1.945l-0.445-0.504c-0.627,0.416-1.4,0.621-2.326,0.621   C313.565,316.185,312.101,315.054,312.101,313.437z M313.659,313.437c0,0.721,0.668,1.312,1.658,1.312   c0.486,0,0.908-0.111,1.26-0.328l-2.004-2.314C313.964,312.44,313.659,312.886,313.659,313.437z M314.503,309.505   c0,0.223,0.135,0.486,0.404,0.791c0.334-0.299,0.504-0.562,0.504-0.791c0-0.287-0.188-0.516-0.451-0.516   C314.702,308.989,314.503,309.218,314.503,309.505z"/>
</g>
<g enable-background="new    ">
	<path d="M242.053,327.646v3.422h-1.617v-8.402h3.152c1.951,0,2.848,1.09,2.848,2.496c0,1.412-0.879,2.484-2.848,2.484H242.053z    M242.053,324.106v2.104h1.465c0.943,0,1.295-0.504,1.295-1.049c0-0.562-0.352-1.049-1.295-1.055H242.053z"/>
	<path d="M250.127,331.067h-1.559v-5.818h1.5v0.586c0.381-0.475,0.943-0.709,1.688-0.709c0.129,0,0.305,0.018,0.527,0.047   l-0.176,1.453c-0.123-0.041-0.311-0.059-0.562-0.059c-0.627,0-1.189,0.422-1.418,0.838V331.067z"/>
	<path d="M254.709,330.306c-0.592-0.58-0.891-1.295-0.891-2.145c0-1.693,1.336-3.035,3.094-3.035s3.094,1.342,3.094,3.035   s-1.336,3.023-3.094,3.023C256.033,331.185,255.301,330.892,254.709,330.306z M255.811,327.03   c-0.287,0.311-0.434,0.686-0.434,1.131c0,0.896,0.639,1.588,1.535,1.588s1.535-0.691,1.535-1.588c0-0.891-0.639-1.594-1.535-1.594   C256.461,326.567,256.098,326.72,255.811,327.03z"/>
	<path d="M263.164,326.567h-1.617v-1.318h1.617v-1.623h1.564v1.623h1.916v1.318h-1.916v2.221c0,0.674,0.258,1.02,0.984,1.02   c0.246,0,0.457-0.018,0.633-0.059l0.24,1.318c-0.223,0.076-0.545,0.117-0.973,0.117c-1.846,0-2.449-1.025-2.449-2.578V326.567z"/>
	<path d="M269.369,330.306c-0.592-0.58-0.891-1.295-0.891-2.145c0-1.693,1.336-3.035,3.094-3.035s3.094,1.342,3.094,3.035   s-1.336,3.023-3.094,3.023C270.693,331.185,269.961,330.892,269.369,330.306z M270.471,327.03   c-0.287,0.311-0.434,0.686-0.434,1.131c0,0.896,0.639,1.588,1.535,1.588s1.535-0.691,1.535-1.588c0-0.891-0.639-1.594-1.535-1.594   C271.121,326.567,270.758,326.72,270.471,327.03z"/>
	<path d="M277.824,326.567h-1.617v-1.318h1.617v-1.623h1.564v1.623h1.916v1.318h-1.916v2.221c0,0.674,0.258,1.02,0.984,1.02   c0.246,0,0.457-0.018,0.633-0.059l0.24,1.318c-0.223,0.076-0.545,0.117-0.973,0.117c-1.846,0-2.449-1.025-2.449-2.578V326.567z"/>
	<path d="M284.311,333.95l1.611-3.469l-2.607-5.232h1.717l1.705,3.492l1.57-3.492h1.646l-4.008,8.701H284.311z"/>
	<path d="M293.527,333.95h-1.559v-8.701h1.5v0.469c0.961-0.779,2.613-0.885,3.727,0.281c0.557,0.586,0.832,1.307,0.832,2.162   c0,0.791-0.246,1.477-0.732,2.045c-0.533,0.609-1.359,0.979-2.209,0.979c-0.586,0-1.107-0.176-1.559-0.527V333.95z    M293.527,329.028c0.334,0.48,0.803,0.721,1.4,0.721c0.885,0,1.541-0.674,1.541-1.588c0-0.867-0.627-1.594-1.5-1.594   c-0.604,0-1.084,0.24-1.441,0.721V329.028z"/>
	<path d="M300.399,323.89c-0.199-0.193-0.299-0.428-0.299-0.709c0-0.557,0.457-0.996,1.02-0.996c0.557,0,1.02,0.439,1.02,0.996   c0,0.562-0.463,0.996-1.02,0.996C300.839,324.177,300.599,324.083,300.399,323.89z M301.899,325.249v5.818h-1.559v-5.818H301.899z"/>
	<path d="M306.253,331.067h-1.559v-5.818h1.5v0.469c0.961-0.779,2.619-0.902,3.656,0.346c0.398,0.475,0.598,1.154,0.604,2.039v2.965   h-1.564v-3.082c0-0.99-0.486-1.418-1.219-1.418c-0.592,0-1.16,0.352-1.418,0.721V331.067z"/>
	<path d="M312.646,328.161c0-1.711,1.266-3.035,2.854-3.035c0.656,0,1.225,0.199,1.705,0.592v-0.469h1.5v5.496   c0,1.893-0.697,2.602-1.6,3.012c-0.451,0.205-0.955,0.311-1.506,0.311c-1.107,0-2.209-0.498-2.801-1.201l0.984-1.02   c0.521,0.557,1.125,0.838,1.811,0.838c1.055,0,1.547-0.539,1.553-1.834v-0.193c-0.457,0.352-0.979,0.527-1.564,0.527   c-0.85,0-1.682-0.375-2.203-0.979C312.892,329.638,312.646,328.952,312.646,328.161z M314.204,328.161   c0,0.914,0.65,1.588,1.535,1.588c0.604,0,1.072-0.24,1.406-0.721v-1.74c-0.357-0.48-0.838-0.721-1.441-0.721   C314.819,326.567,314.204,327.294,314.204,328.161z"/>
</g>
<g enable-background="new    ">
	<path d="M240.377,465.665h1.617v4.98c0,1.389,0.826,2.104,1.98,2.104c1.148,0,1.98-0.703,1.98-2.104v-4.98h1.617v4.863   c0,1.213-0.357,2.145-1.078,2.795c-0.65,0.574-1.488,0.861-2.52,0.861s-1.869-0.287-2.52-0.861   c-0.721-0.65-1.078-1.582-1.078-2.795V465.665z"/>
	<path d="M252.049,465.665v8.402h-1.617v-8.402H252.049z"/>
	<path d="M259.196,474.067v-8.402h2.637c2.414,0,3.527,1.072,4.119,2.268c0.299,0.604,0.445,1.248,0.445,1.934   c0,1.377-0.633,2.643-1.67,3.41c-0.721,0.527-1.682,0.791-2.895,0.791H259.196z M260.813,467.106v5.52h1.201   c1.875,0,2.76-1.354,2.76-2.76s-0.885-2.76-2.76-2.76H260.813z"/>
	<path d="M268.413,471.161c0-1.682,1.148-3.035,2.83-3.035c1.588,0,2.748,1.33,2.748,2.977c0,0.17-0.012,0.316-0.035,0.445h-4.031   c0.076,0.814,0.744,1.377,1.57,1.377c0.557,0,1.049-0.223,1.465-0.668l0.885,0.885c-0.562,0.656-1.471,1.043-2.385,1.043   C269.702,474.185,268.413,472.966,268.413,471.161z M272.397,470.405c-0.047-0.545-0.545-1.02-1.154-1.02   c-0.627,0-1.172,0.475-1.248,1.02H272.397z"/>
	<path d="M276.54,472.292c0.428,0.381,0.961,0.574,1.6,0.574c0.416,0,0.744-0.205,0.744-0.492c0-0.322-0.439-0.533-0.99-0.709   s-1.154-0.357-1.541-0.844c-0.193-0.24-0.293-0.539-0.293-0.885c0-1.072,1.037-1.811,2.232-1.811c0.721,0,1.57,0.27,1.969,0.592   l-0.732,1.125c-0.369-0.264-0.738-0.398-1.113-0.393c-0.445,0-0.791,0.182-0.791,0.463c0,0.275,0.434,0.445,0.996,0.621   c0.557,0.176,1.154,0.381,1.535,0.896c0.193,0.264,0.287,0.58,0.287,0.955c0,1.072-1.043,1.799-2.314,1.799   c-0.861,0-1.641-0.258-2.344-0.779L276.54,472.292z"/>
	<path d="M282.938,466.89c-0.199-0.193-0.299-0.428-0.299-0.709c0-0.557,0.457-0.996,1.02-0.996c0.557,0,1.02,0.439,1.02,0.996   c0,0.562-0.463,0.996-1.02,0.996C283.378,467.177,283.138,467.083,282.938,466.89z M284.438,468.249v5.818h-1.559v-5.818H284.438z"/>
	<path d="M286.753,471.161c0-1.711,1.266-3.035,2.854-3.035c0.656,0,1.225,0.199,1.705,0.592v-0.469h1.5v5.496   c0,1.893-0.697,2.602-1.6,3.012c-0.451,0.205-0.955,0.311-1.506,0.311c-1.107,0-2.209-0.498-2.801-1.201l0.984-1.02   c0.521,0.557,1.125,0.838,1.811,0.838c1.055,0,1.547-0.539,1.553-1.834v-0.193c-0.457,0.352-0.979,0.527-1.564,0.527   c-0.85,0-1.682-0.375-2.203-0.979C286.999,472.638,286.753,471.952,286.753,471.161z M288.312,471.161   c0,0.914,0.65,1.588,1.535,1.588c0.604,0,1.072-0.24,1.406-0.721v-1.74c-0.357-0.48-0.838-0.721-1.441-0.721   C288.927,469.567,288.312,470.294,288.312,471.161z"/>
	<path d="M297.164,474.067h-1.559v-5.818h1.5v0.469c0.961-0.779,2.619-0.902,3.656,0.346c0.398,0.475,0.598,1.154,0.604,2.039v2.965   h-1.564v-3.082c0-0.99-0.486-1.418-1.219-1.418c-0.592,0-1.16,0.352-1.418,0.721V474.067z"/>
</g>
<g enable-background="new    ">
	<path d="M240.436,629.2v-8.402h2.637c2.414,0,3.527,1.072,4.119,2.268c0.299,0.604,0.445,1.248,0.445,1.934   c0,1.377-0.633,2.643-1.67,3.41c-0.721,0.527-1.682,0.791-2.895,0.791H240.436z M242.053,622.239v5.52h1.201   c1.875,0,2.76-1.354,2.76-2.76s-0.885-2.76-2.76-2.76H242.053z"/>
	<path d="M249.652,626.294c0-1.682,1.148-3.035,2.83-3.035c1.588,0,2.748,1.33,2.748,2.977c0,0.17-0.012,0.316-0.035,0.445h-4.031   c0.076,0.814,0.744,1.377,1.57,1.377c0.557,0,1.049-0.223,1.465-0.668l0.885,0.885c-0.562,0.656-1.471,1.043-2.385,1.043   C250.941,629.317,249.652,628.099,249.652,626.294z M253.637,625.538c-0.047-0.545-0.545-1.02-1.154-1.02   c-0.627,0-1.172,0.475-1.248,1.02H253.637z"/>
	<path d="M260.404,629.2h-1.084l-2.678-5.818h1.623l1.594,3.551l1.6-3.551h1.617L260.404,629.2z"/>
	<path d="M264.43,626.294c0-1.682,1.148-3.035,2.83-3.035c1.588,0,2.748,1.33,2.748,2.977c0,0.17-0.012,0.316-0.035,0.445h-4.031   c0.076,0.814,0.744,1.377,1.57,1.377c0.557,0,1.049-0.223,1.465-0.668l0.885,0.885c-0.562,0.656-1.471,1.043-2.385,1.043   C265.719,629.317,264.43,628.099,264.43,626.294z M268.414,625.538c-0.047-0.545-0.545-1.02-1.154-1.02   c-0.627,0-1.172,0.475-1.248,1.02H268.414z"/>
	<path d="M273.881,620.681v8.52h-1.559v-8.52H273.881z"/>
	<path d="M277.086,628.438c-0.592-0.58-0.891-1.295-0.891-2.145c0-1.693,1.336-3.035,3.094-3.035s3.094,1.342,3.094,3.035   s-1.336,3.023-3.094,3.023C278.41,629.317,277.678,629.024,277.086,628.438z M278.188,625.163   c-0.287,0.311-0.434,0.686-0.434,1.131c0,0.896,0.639,1.588,1.535,1.588s1.535-0.691,1.535-1.588c0-0.891-0.639-1.594-1.535-1.594   C278.838,624.7,278.475,624.853,278.188,625.163z"/>
	<path d="M286.262,632.083h-1.559v-8.701h1.5v0.469c0.961-0.779,2.613-0.885,3.727,0.281c0.557,0.586,0.832,1.307,0.832,2.162   c0,0.791-0.246,1.477-0.732,2.045c-0.533,0.609-1.359,0.979-2.209,0.979c-0.586,0-1.107-0.176-1.559-0.527V632.083z    M286.262,627.161c0.334,0.48,0.803,0.721,1.4,0.721c0.885,0,1.541-0.674,1.541-1.588c0-0.867-0.627-1.594-1.5-1.594   c-0.604,0-1.084,0.24-1.441,0.721V627.161z"/>
	<path d="M294.635,629.2h-1.559v-5.818h1.5v0.469c0.885-0.779,2.52-0.896,3.527,0.322c0.574-0.609,1.26-0.914,2.062-0.914   c0.797,0,1.576,0.357,2.039,0.938c0.393,0.48,0.586,1.119,0.586,1.922v3.082h-1.559v-3.146c0-0.896-0.428-1.354-1.16-1.354   c-0.609,0-1.148,0.387-1.406,0.768c0.029,0.258,0.047,0.475,0.047,0.65v3.082h-1.559v-3.146c0-0.896-0.422-1.354-1.166-1.354   c-0.527,0-0.979,0.24-1.354,0.721V629.2z"/>
	<path d="M304.987,626.294c0-1.682,1.148-3.035,2.83-3.035c1.588,0,2.748,1.33,2.748,2.977c0,0.17-0.012,0.316-0.035,0.445h-4.031   c0.076,0.814,0.744,1.377,1.57,1.377c0.557,0,1.049-0.223,1.465-0.668l0.885,0.885c-0.562,0.656-1.471,1.043-2.385,1.043   C306.276,629.317,304.987,628.099,304.987,626.294z M308.972,625.538c-0.047-0.545-0.545-1.02-1.154-1.02   c-0.627,0-1.172,0.475-1.248,1.02H308.972z"/>
	<path d="M314.438,629.2h-1.559v-5.818h1.5v0.469c0.961-0.779,2.619-0.902,3.656,0.346c0.398,0.475,0.598,1.154,0.604,2.039v2.965   h-1.564v-3.082c0-0.99-0.486-1.418-1.219-1.418c-0.592,0-1.16,0.352-1.418,0.721V629.2z"/>
	<path d="M322.026,624.7h-1.617v-1.318h1.617v-1.623h1.564v1.623h1.916v1.318h-1.916v2.221c0,0.674,0.258,1.02,0.984,1.02   c0.246,0,0.457-0.018,0.633-0.059l0.24,1.318c-0.223,0.076-0.545,0.117-0.973,0.117c-1.846,0-2.449-1.025-2.449-2.578V624.7z"/>
</g>
<g enable-background="new    ">
	<path d="M240.436,759.2v-8.402h2.637c2.414,0,3.527,1.072,4.119,2.268c0.299,0.604,0.445,1.248,0.445,1.934   c0,1.377-0.633,2.643-1.67,3.41c-0.721,0.527-1.682,0.791-2.895,0.791H240.436z M242.053,752.239v5.52h1.201   c1.875,0,2.76-1.354,2.76-2.76s-0.885-2.76-2.76-2.76H242.053z"/>
	<path d="M249.652,756.294c0-1.682,1.148-3.035,2.83-3.035c1.588,0,2.748,1.33,2.748,2.977c0,0.17-0.012,0.316-0.035,0.445h-4.031   c0.076,0.814,0.744,1.377,1.57,1.377c0.557,0,1.049-0.223,1.465-0.668l0.885,0.885c-0.562,0.656-1.471,1.043-2.385,1.043   C250.941,759.317,249.652,758.099,249.652,756.294z M253.637,755.538c-0.047-0.545-0.545-1.02-1.154-1.02   c-0.627,0-1.172,0.475-1.248,1.02H253.637z"/>
	<path d="M259.104,750.681v8.52h-1.559v-8.52H259.104z"/>
	<path d="M261.957,752.022c-0.199-0.193-0.299-0.428-0.299-0.709c0-0.557,0.457-0.996,1.02-0.996c0.557,0,1.02,0.439,1.02,0.996   c0,0.562-0.463,0.996-1.02,0.996C262.396,752.31,262.156,752.216,261.957,752.022z M263.457,753.382v5.818h-1.559v-5.818H263.457z"/>
	<path d="M269.229,759.2h-1.084l-2.678-5.818h1.623l1.594,3.551l1.6-3.551h1.617L269.229,759.2z"/>
	<path d="M273.254,756.294c0-1.682,1.148-3.035,2.83-3.035c1.588,0,2.748,1.33,2.748,2.977c0,0.17-0.012,0.316-0.035,0.445h-4.031   c0.076,0.814,0.744,1.377,1.57,1.377c0.557,0,1.049-0.223,1.465-0.668l0.885,0.885c-0.562,0.656-1.471,1.043-2.385,1.043   C274.543,759.317,273.254,758.099,273.254,756.294z M277.238,755.538c-0.047-0.545-0.545-1.02-1.154-1.02   c-0.627,0-1.172,0.475-1.248,1.02H277.238z"/>
	<path d="M282.705,759.2h-1.559v-5.818h1.5v0.586c0.381-0.475,0.943-0.709,1.688-0.709c0.129,0,0.305,0.018,0.527,0.047   l-0.176,1.453c-0.123-0.041-0.311-0.059-0.562-0.059c-0.627,0-1.189,0.422-1.418,0.838V759.2z"/>
	<path d="M287.691,762.083l1.611-3.469l-2.607-5.232h1.717l1.705,3.492l1.57-3.492h1.646l-4.008,8.701H287.691z"/>
</g>
</svg>