<svg xmlns="http://www.w3.org/2000/svg" xmlns:xlink="http://www.w3.org/1999/xlink" version="1.1" id="Layer_1" x="0px" y="0px" width="580" height="140" viewBox="0 0 580 140" enable-background="new 0 0 580 140" xml:space="preserve">
<g>
	<g>
		<path d="M117.558,25.196v18.905h-3.639V25.196H117.558z"/>
		<path fill="#87C6BD" d="M132.256,33.976h-3.639V31.01h3.639v-3.652h3.52v3.652h4.311v2.966h-4.311v4.997    c0,1.516,0.58,2.294,2.215,2.294c0.554,0,1.028-0.04,1.424-0.132l0.541,2.966c-0.501,0.171-1.226,0.264-2.188,0.264    c-4.153,0-5.511-2.307-5.511-5.801V33.976z"/>
		<path fill="#87C6BD" d="M142.238,37.562c0-3.85,2.848-6.829,6.42-6.829c1.477,0,2.755,0.448,3.836,1.332V31.01h3.375v13.091    h-3.375v-1.055c-1.042,0.883-2.268,1.318-3.652,1.318C144.822,44.365,142.238,41.095,142.238,37.562z M145.745,37.562    c0,2.057,1.463,3.573,3.454,3.573c1.358,0,2.413-0.541,3.164-1.622v-3.916c-0.804-1.081-1.885-1.622-3.243-1.622    C147.129,33.976,145.745,35.611,145.745,37.562z"/>
		<path fill="#87C6BD" d="M161.118,42.387c-1.332-1.305-2.004-2.914-2.004-4.825c0-3.81,3.045-6.829,7.04-6.829    c2.228,0,4.245,1.042,5.511,2.624l-2.479,2.188c-0.791-1.042-1.806-1.569-3.032-1.569c-2.017,0-3.533,1.582-3.533,3.586    c0,2.057,1.503,3.573,3.612,3.573c1.332,0,2.492-0.765,3.138-1.727l2.703,2.017c-1.477,1.964-3.454,2.94-5.946,2.94    C164.111,44.365,162.45,43.706,161.118,42.387z"/>
		<path fill="#87C6BD" d="M178.356,38.432v5.669h-3.507V24.932h3.507v10.31l4.509-4.232h4.944l-6.407,5.88l7.211,7.211h-4.72    L178.356,38.432z"/>
		<path fill="#87C6BD" d="M194.627,24.932v19.169h-3.507V24.932H194.627z"/>
		<path fill="#87C6BD" d="M197.947,37.562c0-3.784,2.584-6.829,6.368-6.829c3.573,0,6.183,2.993,6.183,6.697    c0,0.382-0.026,0.712-0.079,1.002h-9.07c0.171,1.833,1.674,3.098,3.533,3.098c1.252,0,2.36-0.501,3.296-1.503l1.991,1.991    c-1.266,1.477-3.309,2.347-5.366,2.347C200.848,44.365,197.947,41.623,197.947,37.562z M206.912,35.861    c-0.105-1.226-1.226-2.294-2.597-2.294c-1.411,0-2.637,1.068-2.808,2.294H206.912z"/>
		<path d="M220.741,37.562c0-3.85,2.848-6.829,6.42-6.829c1.477,0,2.755,0.448,3.836,1.332V31.01h3.375v13.091h-3.375v-1.055    c-1.042,0.883-2.268,1.318-3.652,1.318C223.325,44.365,220.741,41.095,220.741,37.562z M224.248,37.562    c0,2.057,1.463,3.573,3.454,3.573c1.358,0,2.413-0.541,3.164-1.622v-3.916c-0.804-1.081-1.885-1.622-3.243-1.622    C225.632,33.976,224.248,35.611,224.248,37.562z"/>
		<path d="M250.152,44.101h-3.375V24.932h3.507v7.014c1.028-0.804,2.254-1.213,3.691-1.213c3.573,0,6.434,2.979,6.434,6.829    c0,3.533-2.571,6.816-6.618,6.803c-1.384,0-2.597-0.435-3.639-1.318V44.101z M250.284,39.513c0.751,1.081,1.806,1.622,3.151,1.622    c1.991,0,3.467-1.516,3.467-3.573c0-1.951-1.411-3.586-3.375-3.586c-1.358,0-2.439,0.541-3.243,1.622V39.513z"/>
		<path d="M267.161,44.101h-3.507V31.01h3.375v1.318c0.857-1.068,2.123-1.595,3.797-1.595c0.29,0,0.686,0.04,1.187,0.105    l-0.396,3.27c-0.277-0.092-0.699-0.132-1.266-0.132c-1.411,0-2.676,0.949-3.19,1.885V44.101z"/>
		<path d="M275.632,42.387c-1.332-1.305-2.004-2.914-2.004-4.825c0-3.81,3.006-6.829,6.961-6.829s6.961,3.019,6.961,6.829    s-3.006,6.803-6.961,6.803C278.612,44.365,276.964,43.706,275.632,42.387z M278.111,35.018c-0.646,0.699-0.976,1.542-0.976,2.544    c0,2.017,1.437,3.573,3.454,3.573s3.454-1.556,3.454-3.573c0-2.004-1.437-3.586-3.454-3.586    C279.574,33.976,278.757,34.319,278.111,35.018z"/>
		<path d="M289.932,37.562c0-3.85,2.848-6.829,6.42-6.829c1.477,0,2.756,0.448,3.837,1.332V31.01h3.375v13.091h-3.375v-1.055    c-1.042,0.883-2.268,1.318-3.651,1.318C292.516,44.365,289.932,41.095,289.932,37.562z M293.438,37.562    c0,2.057,1.464,3.573,3.454,3.573c1.357,0,2.412-0.541,3.164-1.622v-3.916c-0.805-1.081-1.885-1.622-3.243-1.622    C294.822,33.976,293.438,35.611,293.438,37.562z"/>
		<path d="M306.854,37.562c0-3.85,2.848-6.829,6.421-6.829c1.437,0,2.677,0.409,3.704,1.213v-7.014h3.508v19.169h-3.375v-1.055    c-1.042,0.883-2.268,1.318-3.652,1.318C309.438,44.365,306.854,41.095,306.854,37.562z M310.361,37.562    c0,2.057,1.463,3.573,3.453,3.573c1.358,0,2.413-0.541,3.164-1.622v-3.916c-0.804-1.081-1.885-1.622-3.242-1.622    C311.745,33.976,310.361,35.611,310.361,37.562z"/>
		<path d="M339.588,44.101h-2.439l-6.024-13.091h3.651l3.586,7.989l3.6-7.989h3.639L339.588,44.101z"/>
		<path d="M346.559,37.562c0-3.85,2.848-6.829,6.42-6.829c1.477,0,2.756,0.448,3.837,1.332V31.01h3.375v13.091h-3.375v-1.055    c-1.042,0.883-2.268,1.318-3.651,1.318C349.143,44.365,346.559,41.095,346.559,37.562z M350.065,37.562    c0,2.057,1.464,3.573,3.454,3.573c1.357,0,2.412-0.541,3.164-1.622v-3.916c-0.805-1.081-1.885-1.622-3.243-1.622    C351.449,33.976,350.065,35.611,350.065,37.562z"/>
		<path d="M367.869,44.101h-3.508V31.01h3.375v1.318c0.857-1.068,2.123-1.595,3.797-1.595c0.291,0,0.686,0.04,1.188,0.105    l-0.396,3.27c-0.276-0.092-0.698-0.132-1.266-0.132c-1.41,0-2.676,0.949-3.189,1.885V44.101z"/>
		<path d="M375.562,27.951c-0.447-0.435-0.672-0.962-0.672-1.595c0-1.252,1.028-2.241,2.294-2.241c1.253,0,2.294,0.989,2.294,2.241    c0,1.266-1.041,2.241-2.294,2.241C376.552,28.597,376.012,28.386,375.562,27.951z M378.938,31.01v13.091h-3.506V31.01H378.938z"/>
		<path d="M382.19,37.562c0-3.784,2.584-6.829,6.368-6.829c3.572,0,6.183,2.993,6.183,6.697c0,0.382-0.026,0.712-0.079,1.002h-9.07    c0.172,1.833,1.674,3.098,3.533,3.098c1.252,0,2.359-0.501,3.296-1.503l1.991,1.991c-1.266,1.477-3.31,2.347-5.366,2.347    C385.091,44.365,382.19,41.623,382.19,37.562z M391.155,35.861c-0.105-1.226-1.226-2.294-2.597-2.294    c-1.411,0-2.637,1.068-2.809,2.294H391.155z"/>
		<path d="M400.167,33.976h-3.639V31.01h3.639v-3.652h3.521v3.652h4.311v2.966h-4.311v4.997c0,1.516,0.58,2.294,2.215,2.294    c0.553,0,1.027-0.04,1.424-0.132l0.54,2.966c-0.501,0.171-1.226,0.264-2.188,0.264c-4.152,0-5.511-2.307-5.511-5.801V33.976z"/>
		<path d="M412.423,50.587l3.626-7.805l-5.867-11.773h3.863l3.836,7.857l3.533-7.857h3.705l-9.018,19.578H412.423z"/>
		<path d="M436.693,42.387c-1.332-1.305-2.004-2.914-2.004-4.825c0-3.81,3.006-6.829,6.961-6.829s6.961,3.019,6.961,6.829    s-3.006,6.803-6.961,6.803C439.672,44.365,438.024,43.706,436.693,42.387z M439.172,35.018c-0.646,0.699-0.977,1.542-0.977,2.544    c0,2.017,1.438,3.573,3.455,3.573c2.017,0,3.453-1.556,3.453-3.573c0-2.004-1.437-3.586-3.453-3.586    C440.635,33.976,439.817,34.319,439.172,35.018z"/>
		<path d="M453.716,44.101V33.976h-3.375V31.01h3.375v-0.541c0-3.889,2.162-5.814,5.484-5.814c0.751,0,1.45,0.079,2.069,0.25    l-0.54,2.993c-0.329-0.092-0.673-0.132-1.042-0.132c-0.883,0-1.542,0.25-1.977,0.751c-0.33,0.409-0.488,1.107-0.488,2.083v0.409    h4.047v2.966h-4.047v10.125H453.716z"/>
		<path d="M91.386,71.562c0-3.85,2.848-6.829,6.42-6.829c1.437,0,2.676,0.409,3.705,1.213v-7.014h3.507v19.169h-3.375v-1.055    c-1.042,0.883-2.268,1.318-3.652,1.318C93.97,78.365,91.386,75.095,91.386,71.562z M94.893,71.562    c0,2.057,1.463,3.573,3.454,3.573c1.358,0,2.413-0.541,3.164-1.622v-3.916c-0.804-1.081-1.885-1.622-3.243-1.622    C96.277,67.976,94.893,69.611,94.893,71.562z"/>
		<path d="M109.329,61.951c-0.448-0.435-0.672-0.962-0.672-1.595c0-1.252,1.028-2.241,2.294-2.241c1.252,0,2.294,0.989,2.294,2.241    c0,1.266-1.042,2.241-2.294,2.241C110.318,62.597,109.777,62.386,109.329,61.951z M112.704,65.01v13.091h-3.507V65.01H112.704z"/>
		<path d="M117.36,74.106c0.962,0.857,2.162,1.292,3.599,1.292c0.936,0,1.674-0.461,1.674-1.107c0-0.725-0.989-1.2-2.228-1.595    s-2.597-0.804-3.467-1.898c-0.435-0.541-0.659-1.213-0.659-1.991c0-2.413,2.333-4.074,5.023-4.074c1.622,0,3.533,0.606,4.43,1.332    l-1.648,2.531c-0.831-0.593-1.661-0.896-2.505-0.883c-1.002,0-1.78,0.409-1.78,1.042c0,0.62,0.976,1.002,2.241,1.397    c1.252,0.396,2.597,0.857,3.454,2.017c0.435,0.593,0.646,1.305,0.646,2.149c0,2.413-2.347,4.047-5.208,4.047    c-1.938,0-3.691-0.58-5.273-1.753L117.36,74.106z"/>
		<path d="M130.49,76.387c-1.332-1.305-2.004-2.914-2.004-4.825c0-3.81,3.045-6.829,7.04-6.829c2.228,0,4.245,1.042,5.511,2.624    l-2.479,2.188c-0.791-1.042-1.806-1.569-3.032-1.569c-2.017,0-3.533,1.582-3.533,3.586c0,2.057,1.503,3.573,3.612,3.573    c1.332,0,2.492-0.765,3.138-1.727l2.703,2.017c-1.477,1.964-3.454,2.94-5.946,2.94C133.483,78.365,131.822,77.706,130.49,76.387z"/>
		<path d="M144.292,61.951c-0.448-0.435-0.672-0.962-0.672-1.595c0-1.252,1.028-2.241,2.294-2.241c1.252,0,2.294,0.989,2.294,2.241    c0,1.266-1.042,2.241-2.294,2.241C145.28,62.597,144.74,62.386,144.292,61.951z M147.667,65.01v13.091h-3.507V65.01H147.667z"/>
		<path d="M155.353,84.587h-3.507V65.01h3.375v1.055c2.162-1.753,5.88-1.991,8.385,0.633c1.252,1.318,1.872,2.94,1.872,4.865    c0,1.78-0.554,3.322-1.648,4.601c-1.2,1.371-3.059,2.202-4.97,2.202c-1.318,0-2.492-0.396-3.507-1.187V84.587z M155.353,73.513    c0.751,1.081,1.806,1.622,3.151,1.622c1.991,0,3.467-1.516,3.467-3.573c0-1.951-1.411-3.586-3.375-3.586    c-1.358,0-2.439,0.541-3.243,1.622V73.513z"/>
		<path d="M172.261,58.932v19.169h-3.507V58.932H172.261z"/>
		<path d="M176.595,61.951c-0.448-0.435-0.672-0.962-0.672-1.595c0-1.252,1.028-2.241,2.294-2.241c1.252,0,2.294,0.989,2.294,2.241    c0,1.266-1.042,2.241-2.294,2.241C177.583,62.597,177.043,62.386,176.595,61.951z M179.97,65.01v13.091h-3.507V65.01H179.97z"/>
		<path d="M187.656,78.101h-3.507V65.01h3.375v1.055c2.162-1.753,5.893-2.03,8.227,0.778c0.896,1.068,1.345,2.597,1.358,4.588v6.671    h-3.52v-6.935c0-2.228-1.094-3.19-2.742-3.19c-1.332,0-2.61,0.791-3.19,1.622V78.101z"/>
		<path d="M200.168,71.562c0-3.784,2.584-6.829,6.368-6.829c3.573,0,6.183,2.993,6.183,6.697c0,0.382-0.026,0.712-0.079,1.002h-9.07    c0.171,1.833,1.674,3.098,3.533,3.098c1.252,0,2.36-0.501,3.296-1.503l1.991,1.991c-1.266,1.477-3.309,2.347-5.366,2.347    C203.068,78.365,200.168,75.623,200.168,71.562z M209.133,69.861c-0.105-1.226-1.226-2.294-2.597-2.294    c-1.411,0-2.637,1.068-2.808,2.294H209.133z"/>
		<path d="M216.416,74.106c0.962,0.857,2.162,1.292,3.599,1.292c0.936,0,1.674-0.461,1.674-1.107c0-0.725-0.989-1.2-2.228-1.595    s-2.597-0.804-3.467-1.898c-0.435-0.541-0.659-1.213-0.659-1.991c0-2.413,2.333-4.074,5.023-4.074c1.622,0,3.533,0.606,4.43,1.332    l-1.648,2.531c-0.831-0.593-1.661-0.896-2.505-0.883c-1.002,0-1.78,0.409-1.78,1.042c0,0.62,0.976,1.002,2.241,1.397    c1.252,0.396,2.597,0.857,3.454,2.017c0.435,0.593,0.646,1.305,0.646,2.149c0,2.413-2.347,4.047-5.208,4.047    c-1.938,0-3.691-0.58-5.273-1.753L216.416,74.106z"/>
		<path d="M236.928,61.951c-0.448-0.435-0.672-0.962-0.672-1.595c0-1.252,1.028-2.241,2.294-2.241c1.252,0,2.294,0.989,2.294,2.241    c0,1.266-1.042,2.241-2.294,2.241C237.917,62.597,237.376,62.386,236.928,61.951z M240.303,65.01v13.091h-3.507V65.01H240.303z"/>
		<path d="M247.99,78.101h-3.507V65.01h3.375v1.055c2.162-1.753,5.893-2.03,8.227,0.778c0.896,1.068,1.345,2.597,1.358,4.588v6.671    h-3.52v-6.935c0-2.228-1.094-3.19-2.742-3.19c-1.332,0-2.61,0.791-3.19,1.622V78.101z"/>
		<path d="M271.719,67.976h-3.639V65.01h3.639v-3.652h3.52v3.652h4.311v2.966h-4.311v4.997c0,1.516,0.58,2.294,2.215,2.294    c0.554,0,1.028-0.04,1.424-0.132l0.541,2.966c-0.501,0.171-1.226,0.264-2.188,0.264c-4.153,0-5.511-2.307-5.511-5.801V67.976z"/>
		<path d="M286.281,78.101h-3.507V58.932h3.507v7.014c1.041-0.804,2.228-1.213,3.559-1.213c3.705,0,5.881,2.703,5.894,6.697v6.671    h-3.521v-6.935c0-2.228-1.094-3.19-2.742-3.19c-1.331,0-2.609,0.791-3.189,1.622V78.101z"/>
		<path d="M298.741,71.562c0-3.784,2.584-6.829,6.368-6.829c3.572,0,6.183,2.993,6.183,6.697c0,0.382-0.026,0.712-0.079,1.002h-9.07    c0.172,1.833,1.674,3.098,3.533,3.098c1.252,0,2.359-0.501,3.296-1.503l1.991,1.991c-1.266,1.477-3.31,2.347-5.366,2.347    C301.642,78.365,298.741,75.623,298.741,71.562z M307.706,69.861c-0.105-1.226-1.226-2.294-2.597-2.294    c-1.411,0-2.637,1.068-2.809,2.294H307.706z"/>
		<path d="M321.535,71.562c0-3.85,2.848-6.829,6.42-6.829c1.477,0,2.756,0.448,3.836,1.332V65.01h3.375v13.091h-3.375v-1.055    c-1.041,0.883-2.268,1.318-3.651,1.318C324.119,78.365,321.535,75.095,321.535,71.562z M325.041,71.562    c0,2.057,1.464,3.573,3.455,3.573c1.357,0,2.412-0.541,3.164-1.622v-3.916c-0.805-1.081-1.886-1.622-3.244-1.622    C326.426,67.976,325.041,69.611,325.041,71.562z"/>
		<path d="M338.457,71.562c0-3.85,2.848-6.829,6.42-6.829c1.477,0,2.756,0.448,3.837,1.332V65.01h3.375v12.366    c0,4.258-1.569,5.854-3.599,6.776c-1.016,0.461-2.149,0.699-3.389,0.699c-2.492,0-4.971-1.121-6.302-2.703l2.215-2.294    c1.173,1.252,2.531,1.885,4.073,1.885c2.373,0,3.48-1.213,3.494-4.126v-0.435c-1.028,0.791-2.201,1.187-3.52,1.187    c-1.912,0-3.784-0.844-4.957-2.202C339.011,74.884,338.457,73.342,338.457,71.562z M341.964,71.562    c0,2.057,1.464,3.573,3.454,3.573c1.357,0,2.412-0.541,3.164-1.622v-3.916c-0.805-1.081-1.885-1.622-3.243-1.622    C343.348,67.976,341.964,69.611,341.964,71.562z"/>
		<path d="M356.4,61.951c-0.448-0.435-0.672-0.962-0.672-1.595c0-1.252,1.027-2.241,2.293-2.241c1.253,0,2.295,0.989,2.295,2.241    c0,1.266-1.042,2.241-2.295,2.241C357.389,62.597,356.849,62.386,356.4,61.951z M359.775,65.01v13.091h-3.507V65.01H359.775z"/>
		<path d="M367.483,58.932v19.169h-3.507V58.932H367.483z"/>
		<path d="M370.803,71.562c0-3.784,2.584-6.829,6.368-6.829c3.573,0,6.183,2.993,6.183,6.697c0,0.382-0.025,0.712-0.078,1.002h-9.07    c0.171,1.833,1.674,3.098,3.533,3.098c1.252,0,2.359-0.501,3.295-1.503l1.991,1.991c-1.266,1.477-3.31,2.347-5.366,2.347    C373.703,78.365,370.803,75.623,370.803,71.562z M379.768,69.861c-0.105-1.226-1.226-2.294-2.597-2.294    c-1.411,0-2.637,1.068-2.808,2.294H379.768z"/>
		<path d="M398.185,84.587h-3.507V65.01h3.375v1.055c2.162-1.753,5.88-1.991,8.385,0.633c1.252,1.318,1.872,2.94,1.872,4.865    c0,1.78-0.554,3.322-1.647,4.601c-1.2,1.371-3.059,2.202-4.971,2.202c-1.318,0-2.492-0.396-3.507-1.187V84.587z M398.185,73.513    c0.751,1.081,1.806,1.622,3.151,1.622c1.99,0,3.467-1.516,3.467-3.573c0-1.951-1.41-3.586-3.375-3.586    c-1.357,0-2.439,0.541-3.243,1.622V73.513z"/>
		<path d="M415.107,78.101H411.6V65.01h3.375v1.318c0.857-1.068,2.123-1.595,3.797-1.595c0.291,0,0.686,0.04,1.188,0.105    l-0.396,3.27c-0.276-0.092-0.698-0.132-1.266-0.132c-1.41,0-2.676,0.949-3.189,1.885V78.101z"/>
		<path d="M423.578,76.387c-1.332-1.305-2.004-2.914-2.004-4.825c0-3.81,3.006-6.829,6.961-6.829s6.961,3.019,6.961,6.829    s-3.006,6.803-6.961,6.803C426.558,78.365,424.91,77.706,423.578,76.387z M426.057,69.018c-0.646,0.699-0.976,1.542-0.976,2.544    c0,2.017,1.437,3.573,3.454,3.573s3.454-1.556,3.454-3.573c0-2.004-1.437-3.586-3.454-3.586    C427.52,67.976,426.703,68.319,426.057,69.018z"/>
		<path d="M439.817,76.387c-1.331-1.305-2.004-2.914-2.004-4.825c0-3.81,3.046-6.829,7.04-6.829c2.229,0,4.245,1.042,5.511,2.624    l-2.479,2.188c-0.791-1.042-1.806-1.569-3.032-1.569c-2.018,0-3.533,1.582-3.533,3.586c0,2.057,1.503,3.573,3.612,3.573    c1.331,0,2.491-0.765,3.138-1.727l2.703,2.017c-1.477,1.964-3.455,2.94-5.946,2.94C442.811,78.365,441.148,77.706,439.817,76.387z    "/>
		<path d="M452.541,71.562c0-3.784,2.584-6.829,6.367-6.829c3.572,0,6.184,2.993,6.184,6.697c0,0.382-0.027,0.712-0.08,1.002h-9.07    c0.172,1.833,1.675,3.098,3.533,3.098c1.253,0,2.36-0.501,3.297-1.503l1.99,1.991c-1.266,1.477-3.309,2.347-5.365,2.347    C455.441,78.365,452.541,75.623,452.541,71.562z M461.506,69.861c-0.105-1.226-1.227-2.294-2.598-2.294    c-1.41,0-2.637,1.068-2.809,2.294H461.506z"/>
		<path d="M468.788,74.106c0.962,0.857,2.162,1.292,3.599,1.292c0.937,0,1.675-0.461,1.675-1.107c0-0.725-0.989-1.2-2.228-1.595    c-1.24-0.396-2.598-0.804-3.468-1.898c-0.435-0.541-0.659-1.213-0.659-1.991c0-2.413,2.334-4.074,5.023-4.074    c1.621,0,3.533,0.606,4.43,1.332l-1.648,2.531c-0.83-0.593-1.661-0.896-2.505-0.883c-1.002,0-1.78,0.409-1.78,1.042    c0,0.62,0.977,1.002,2.242,1.397c1.252,0.396,2.597,0.857,3.453,2.017c0.436,0.593,0.646,1.305,0.646,2.149    c0,2.413-2.347,4.047-5.207,4.047c-1.938,0-3.691-0.58-5.273-1.753L468.788,74.106z"/>
		<path d="M481.363,74.106c0.963,0.857,2.162,1.292,3.6,1.292c0.936,0,1.674-0.461,1.674-1.107c0-0.725-0.988-1.2-2.229-1.595    c-1.238-0.396-2.597-0.804-3.467-1.898c-0.436-0.541-0.659-1.213-0.659-1.991c0-2.413,2.333-4.074,5.022-4.074    c1.622,0,3.533,0.606,4.43,1.332l-1.647,2.531c-0.831-0.593-1.661-0.896-2.505-0.883c-1.002,0-1.779,0.409-1.779,1.042    c0,0.62,0.975,1.002,2.24,1.397c1.253,0.396,2.598,0.857,3.455,2.017c0.435,0.593,0.646,1.305,0.646,2.149    c0,2.413-2.347,4.047-5.208,4.047c-1.938,0-3.691-0.58-5.273-1.753L481.363,74.106z"/>
		<path d="M75.481,110.387c-1.332-1.305-2.004-2.914-2.004-4.825c0-3.81,3.006-6.829,6.961-6.829s6.961,3.019,6.961,6.829    s-3.006,6.803-6.961,6.803C78.461,112.365,76.813,111.706,75.481,110.387z M77.96,103.018c-0.646,0.699-0.976,1.542-0.976,2.544    c0,2.017,1.437,3.573,3.454,3.573s3.454-1.556,3.454-3.573c0-2.004-1.437-3.586-3.454-3.586    C79.423,101.976,78.606,102.319,77.96,103.018z"/>
		<path d="M92.504,112.101v-10.125h-3.375V99.01h3.375v-0.541c0-3.889,2.162-5.814,5.484-5.814c0.751,0,1.45,0.079,2.07,0.25    l-0.541,2.993c-0.33-0.092-0.672-0.132-1.042-0.132c-0.883,0-1.542,0.25-1.978,0.751c-0.33,0.409-0.488,1.107-0.488,2.083v0.409    h4.047v2.966h-4.047v10.125H92.504z"/>
		<path d="M112.318,110.387c-1.332-1.305-2.004-2.914-2.004-4.825c0-3.81,3.045-6.829,7.04-6.829c2.228,0,4.245,1.042,5.511,2.624    l-2.479,2.188c-0.791-1.042-1.806-1.569-3.032-1.569c-2.017,0-3.533,1.582-3.533,3.586c0,2.057,1.503,3.573,3.612,3.573    c1.332,0,2.492-0.765,3.138-1.727l2.703,2.017c-1.477,1.964-3.454,2.94-5.946,2.94    C115.311,112.365,113.65,111.706,112.318,110.387z"/>
		<path d="M129.557,112.101h-3.507V99.01h3.375v1.318c0.857-1.068,2.123-1.595,3.797-1.595c0.29,0,0.686,0.04,1.187,0.105    l-0.396,3.27c-0.277-0.092-0.699-0.132-1.266-0.132c-1.411,0-2.676,0.949-3.19,1.885V112.101z"/>
		<path d="M136.065,105.562c0-3.784,2.584-6.829,6.368-6.829c3.573,0,6.183,2.993,6.183,6.697c0,0.382-0.026,0.712-0.079,1.002    h-9.07c0.171,1.833,1.674,3.098,3.533,3.098c1.252,0,2.36-0.501,3.296-1.503l1.991,1.991c-1.266,1.477-3.309,2.347-5.366,2.347    C138.965,112.365,136.065,109.623,136.065,105.562z M145.03,103.861c-0.105-1.226-1.226-2.294-2.597-2.294    c-1.411,0-2.637,1.068-2.808,2.294H145.03z"/>
		<path d="M150.987,105.562c0-3.85,2.848-6.829,6.42-6.829c1.477,0,2.755,0.448,3.836,1.332V99.01h3.375v13.091h-3.375v-1.055    c-1.042,0.883-2.268,1.318-3.652,1.318C153.571,112.365,150.987,109.095,150.987,105.562z M154.494,105.562    c0,2.057,1.463,3.573,3.454,3.573c1.358,0,2.413-0.541,3.164-1.622v-3.916c-0.804-1.081-1.885-1.622-3.243-1.622    C155.878,101.976,154.494,103.611,154.494,105.562z"/>
		<path d="M170.904,101.976h-3.639V99.01h3.639v-3.652h3.52v3.652h4.311v2.966h-4.311v4.997c0,1.516,0.58,2.294,2.215,2.294    c0.554,0,1.028-0.04,1.424-0.132l0.541,2.966c-0.501,0.171-1.226,0.264-2.188,0.264c-4.153,0-5.511-2.307-5.511-5.801V101.976z"/>
		<path d="M181.967,95.951c-0.448-0.435-0.672-0.962-0.672-1.595c0-1.252,1.028-2.241,2.294-2.241c1.252,0,2.294,0.989,2.294,2.241    c0,1.266-1.042,2.241-2.294,2.241C182.956,96.597,182.415,96.386,181.967,95.951z M185.342,99.01v13.091h-3.507V99.01H185.342z"/>
		<path d="M193.028,112.101h-3.507V99.01h3.375v1.055c2.162-1.753,5.893-2.03,8.227,0.778c0.896,1.068,1.345,2.597,1.358,4.588    v6.671h-3.52v-6.935c0-2.228-1.094-3.19-2.742-3.19c-1.332,0-2.61,0.791-3.19,1.622V112.101z"/>
		<path d="M205.489,105.562c0-3.85,2.848-6.829,6.42-6.829c1.477,0,2.755,0.448,3.836,1.332V99.01h3.375v12.366    c0,4.258-1.569,5.854-3.599,6.776c-1.015,0.461-2.149,0.699-3.388,0.699c-2.492,0-4.97-1.121-6.302-2.703l2.215-2.294    c1.173,1.252,2.531,1.885,4.074,1.885c2.373,0,3.48-1.213,3.494-4.126v-0.435c-1.028,0.791-2.202,1.187-3.52,1.187    c-1.912,0-3.784-0.844-4.957-2.202C206.042,108.884,205.489,107.342,205.489,105.562z M208.996,105.562    c0,2.057,1.463,3.573,3.454,3.573c1.358,0,2.413-0.541,3.164-1.622v-3.916c-0.804-1.081-1.885-1.622-3.243-1.622    C210.38,101.976,208.996,103.611,208.996,105.562z"/>
		<path d="M235.032,112.101h-3.507V99.01h3.375v1.055c1.991-1.753,5.669-2.017,7.937,0.725c1.292-1.371,2.834-2.057,4.641-2.057    c1.793,0,3.546,0.804,4.588,2.109c0.883,1.081,1.318,2.518,1.318,4.324v6.935h-3.507v-7.08c0-2.017-0.962-3.045-2.61-3.045    c-1.371,0-2.584,0.87-3.164,1.727c0.066,0.58,0.105,1.068,0.105,1.463v6.935h-3.507v-7.08c0-2.017-0.949-3.045-2.624-3.045    c-1.187,0-2.202,0.541-3.045,1.622V112.101z"/>
		<path d="M256.44,105.562c0-3.784,2.584-6.829,6.368-6.829c3.573,0,6.183,2.993,6.183,6.697c0,0.382-0.026,0.712-0.079,1.002h-9.07    c0.171,1.833,1.674,3.098,3.533,3.098c1.252,0,2.36-0.501,3.296-1.503l1.991,1.991c-1.266,1.477-3.309,2.347-5.366,2.347    C259.34,112.365,256.44,109.623,256.44,105.562z M265.405,103.861c-0.105-1.226-1.226-2.294-2.597-2.294    c-1.411,0-2.637,1.068-2.808,2.294H265.405z"/>
		<path d="M271.362,105.562c0-3.85,2.848-6.829,6.42-6.829c1.477,0,2.755,0.448,3.836,1.332V99.01h3.375v13.091h-3.375v-1.055    c-1.042,0.883-2.268,1.318-3.652,1.318C273.946,112.365,271.362,109.095,271.362,105.562z M274.869,105.562    c0,2.057,1.463,3.573,3.454,3.573c1.358,0,2.413-0.541,3.164-1.622v-3.916c-0.804-1.081-1.885-1.622-3.243-1.622    C276.253,101.976,274.869,103.611,274.869,105.562z"/>
		<path d="M292.672,112.101h-3.506V99.01h3.375v1.055c2.162-1.753,5.893-2.03,8.227,0.778c0.896,1.068,1.344,2.597,1.357,4.588    v6.671h-3.52v-6.935c0-2.228-1.095-3.19-2.742-3.19c-1.332,0-2.611,0.791-3.191,1.622V112.101z"/>
		<path d="M306.168,95.951c-0.449-0.435-0.673-0.962-0.673-1.595c0-1.252,1.028-2.241,2.294-2.241c1.252,0,2.294,0.989,2.294,2.241    c0,1.266-1.042,2.241-2.294,2.241C307.156,96.597,306.615,96.386,306.168,95.951z M309.543,99.01v13.091h-3.508V99.01H309.543z"/>
		<path d="M317.229,112.101h-3.506V99.01h3.375v1.055c2.162-1.753,5.893-2.03,8.227,0.778c0.896,1.068,1.344,2.597,1.357,4.588    v6.671h-3.52v-6.935c0-2.228-1.095-3.19-2.742-3.19c-1.332,0-2.611,0.791-3.191,1.622V112.101z"/>
		<path d="M329.689,105.562c0-3.85,2.848-6.829,6.421-6.829c1.477,0,2.755,0.448,3.837,1.332V99.01h3.375v12.366    c0,4.258-1.569,5.854-3.6,6.776c-1.016,0.461-2.148,0.699-3.389,0.699c-2.491,0-4.97-1.121-6.301-2.703l2.215-2.294    c1.173,1.252,2.531,1.885,4.073,1.885c2.373,0,3.48-1.213,3.493-4.126v-0.435c-1.027,0.791-2.201,1.187-3.52,1.187    c-1.912,0-3.783-0.844-4.957-2.202C330.244,108.884,329.689,107.342,329.689,105.562z M333.197,105.562    c0,2.057,1.463,3.573,3.453,3.573c1.358,0,2.413-0.541,3.164-1.622v-3.916c-0.804-1.081-1.885-1.622-3.242-1.622    C334.581,101.976,333.197,103.611,333.197,105.562z"/>
		<path d="M349.344,112.101v-10.125h-3.375V99.01h3.375v-0.541c0-3.889,2.162-5.814,5.484-5.814c0.751,0,1.449,0.079,2.069,0.25    l-0.54,2.993c-0.33-0.092-0.673-0.132-1.042-0.132c-0.884,0-1.542,0.25-1.978,0.751c-0.33,0.409-0.488,1.107-0.488,2.083v0.409    h4.048v2.966h-4.048v10.125H349.344z"/>
		<path d="M359.617,99.01h3.506v7.066c0,2.017,0.977,3.045,2.624,3.059c1.187,0,2.202-0.541,3.046-1.622V99.01h3.52v13.091h-3.375    v-1.055c-0.988,0.883-2.176,1.318-3.547,1.318c-3.678,0-5.773-2.821-5.773-6.42V99.01z"/>
		<path d="M379.98,92.932v19.169h-3.508V92.932H379.98z"/>
		<path d="M395.892,118.587h-3.507V99.01h3.375v1.055c2.162-1.753,5.88-1.991,8.385,0.633c1.252,1.318,1.872,2.94,1.872,4.865    c0,1.78-0.554,3.322-1.647,4.601c-1.2,1.371-3.059,2.202-4.971,2.202c-1.318,0-2.492-0.396-3.507-1.187V118.587z M395.892,107.513    c0.751,1.081,1.806,1.622,3.151,1.622c1.99,0,3.467-1.516,3.467-3.573c0-1.951-1.41-3.586-3.375-3.586    c-1.357,0-2.439,0.541-3.243,1.622V107.513z"/>
		<path d="M412.813,112.101h-3.507V99.01h3.375v1.318c0.857-1.068,2.123-1.595,3.797-1.595c0.29,0,0.686,0.04,1.187,0.105    l-0.396,3.27c-0.277-0.092-0.699-0.132-1.266-0.132c-1.41,0-2.676,0.949-3.19,1.885V112.101z"/>
		<path d="M421.285,110.387c-1.332-1.305-2.004-2.914-2.004-4.825c0-3.81,3.006-6.829,6.961-6.829s6.961,3.019,6.961,6.829    s-3.006,6.803-6.961,6.803C424.265,112.365,422.617,111.706,421.285,110.387z M423.764,103.018    c-0.646,0.699-0.976,1.542-0.976,2.544c0,2.017,1.437,3.573,3.454,3.573s3.454-1.556,3.454-3.573c0-2.004-1.437-3.586-3.454-3.586    C425.227,101.976,424.41,102.319,423.764,103.018z"/>
		<path d="M435.585,105.562c0-3.85,2.848-6.829,6.421-6.829c1.437,0,2.676,0.409,3.704,1.213v-7.014h3.507v19.169h-3.375v-1.055    c-1.041,0.883-2.268,1.318-3.652,1.318C438.169,112.365,435.585,109.095,435.585,105.562z M439.092,105.562    c0,2.057,1.463,3.573,3.454,3.573c1.358,0,2.413-0.541,3.164-1.622v-3.916c-0.804-1.081-1.886-1.622-3.243-1.622    C440.477,101.976,439.092,103.611,439.092,105.562z"/>
		<path d="M453.195,99.01h3.507v7.066c0,2.017,0.976,3.045,2.624,3.059c1.186,0,2.201-0.541,3.045-1.622V99.01h3.52v13.091h-3.375    v-1.055c-0.988,0.883-2.175,1.318-3.546,1.318c-3.679,0-5.774-2.821-5.774-6.42V99.01z"/>
		<path d="M471.139,110.387c-1.331-1.305-2.004-2.914-2.004-4.825c0-3.81,3.046-6.829,7.041-6.829c2.228,0,4.244,1.042,5.51,2.624    l-2.479,2.188c-0.791-1.042-1.806-1.569-3.031-1.569c-2.018,0-3.533,1.582-3.533,3.586c0,2.057,1.502,3.573,3.611,3.573    c1.332,0,2.492-0.765,3.139-1.727l2.702,2.017c-1.477,1.964-3.454,2.94-5.946,2.94    C474.132,112.365,472.471,111.706,471.139,110.387z"/>
		<path d="M487.494,101.976h-3.639V99.01h3.639v-3.652h3.521v3.652h4.312v2.966h-4.312v4.997c0,1.516,0.58,2.294,2.215,2.294    c0.554,0,1.028-0.04,1.424-0.132l0.54,2.966c-0.5,0.171-1.226,0.264-2.188,0.264c-4.153,0-5.512-2.307-5.512-5.801V101.976z"/>
		<path d="M499.271,108.106c0.963,0.857,2.162,1.292,3.6,1.292c0.936,0,1.674-0.461,1.674-1.107c0-0.725-0.988-1.2-2.229-1.595    c-1.238-0.396-2.597-0.804-3.467-1.898c-0.436-0.541-0.659-1.213-0.659-1.991c0-2.413,2.333-4.074,5.022-4.074    c1.622,0,3.533,0.606,4.43,1.332l-1.647,2.531c-0.831-0.593-1.661-0.896-2.505-0.883c-1.002,0-1.779,0.409-1.779,1.042    c0,0.62,0.975,1.002,2.24,1.397c1.253,0.396,2.598,0.857,3.455,2.017c0.435,0.593,0.646,1.305,0.646,2.149    c0,2.413-2.347,4.047-5.208,4.047c-1.938,0-3.691-0.58-5.273-1.753L499.271,108.106z"/>
	</g>
	<line fill="none" stroke="#000000" stroke-miterlimit="10" x1="399.605" y1="81.101" x2="498.678" y2="81.101"/>
	<line fill="none" stroke="#000000" stroke-miterlimit="10" x1="352.98" y1="81.101" x2="391.73" y2="81.101"/>
	<line fill="none" stroke="#000000" stroke-miterlimit="10" x1="321.73" y1="81.101" x2="336.98" y2="81.101"/>
	<polygon points="494.82,85.191 494.139,84.458 497.75,81.102 494.139,77.746 494.82,77.012 499.218,81.102  "/>
</g>
</svg>