<svg xmlns="http://www.w3.org/2000/svg" xmlns:xlink="http://www.w3.org/1999/xlink" version="1.1" id="Ebene_1" x="0px" y="0px" width="820" height="300" viewBox="0 0 820 300" enable-background="new 0 0 820 300" xml:space="preserve">
<g>
	<g>
		<circle fill="none" stroke="#000000" stroke-miterlimit="10" stroke-dasharray="2.0086,2.0086" cx="65.5" cy="104.8" r="55"/>
	</g>
	<g>
		<circle fill="none" stroke="#000000" stroke-miterlimit="10" stroke-dasharray="2.0086,2.0086" cx="754.5" cy="104.8" r="55"/>
	</g>
	<g>
		<circle fill="none" stroke="#000000" stroke-miterlimit="10" stroke-dasharray="1.9993,1.9993" cx="170.7" cy="102.8" r="70"/>
	</g>
	<g>
		<circle fill="none" stroke="#000000" stroke-miterlimit="10" stroke-dasharray="2.0031,2.0031" cx="315.5" cy="104.8" r="95"/>
	</g>
	<g>
		<circle fill="none" stroke="#000000" stroke-miterlimit="10" stroke-dasharray="2.0031,2.0031" cx="624.5" cy="104.8" r="95"/>
	</g>
	<g>
		<circle fill="none" stroke="#000000" stroke-miterlimit="10" stroke-dasharray="1.9947,1.9947" cx="469.5" cy="104.8" r="80"/>
	</g>
</g>
<g>
	<g>
		<line fill="none" stroke="#000000" stroke-miterlimit="10" x1="170.9" y1="32.7" x2="227.9" y2="32.7"/>
		<g>
			<polygon points="225,36.8 224.3,36.1 227.9,32.7 224.3,29.4 225,28.7 229.4,32.7    "/>
		</g>
	</g>
</g>
<g>
	<g>
		<line fill="none" stroke="#000000" stroke-miterlimit="10" x1="315.9" y1="9.7" x2="372.9" y2="9.7"/>
		<g>
			<polygon points="370,13.8 369.3,13.1 372.9,9.7 369.3,6.4 370,5.7 374.4,9.7    "/>
		</g>
	</g>
</g>
<g>
	<g>
		<line fill="none" stroke="#000000" stroke-miterlimit="10" x1="624.9" y1="199.7" x2="567.9" y2="199.7"/>
		<g>
			<polygon points="571.3,195.7 572,196.4 568.4,199.7 572,203.1 571.3,203.8 566.9,199.7    "/>
		</g>
	</g>
</g>
<g>
	<g>
		<line fill="none" stroke="#000000" stroke-miterlimit="10" x1="469.9" y1="24.7" x2="526.9" y2="24.7"/>
		<g>
			<polygon points="524,28.8 523.3,28.1 526.9,24.7 523.3,21.4 524,20.7 528.4,24.7    "/>
		</g>
	</g>
</g>
<g>
	<g>
		<line fill="none" stroke="#000000" stroke-miterlimit="10" x1="624.9" y1="9.7" x2="681.9" y2="9.7"/>
		<g>
			<polygon points="679,13.8 678.3,13.1 681.9,9.7 678.3,6.4 679,5.7 683.4,9.7    "/>
		</g>
	</g>
</g>
<g>
	<g>
		<line fill="none" stroke="#000000" stroke-miterlimit="10" x1="65.9" y1="49.7" x2="106.9" y2="49.7"/>
		<g>
			<polygon points="104.1,53.8 103.4,53.1 107.1,49.7 103.4,46.4 104.1,45.7 108.5,49.7    "/>
		</g>
	</g>
</g>
<g>
	<g>
		<line fill="none" stroke="#000000" stroke-miterlimit="10" x1="754.9" y1="159.7" x2="712.9" y2="159.7"/>
		<g>
			<polygon points="716.3,155.7 717,156.4 713.4,159.7 717,163.1 716.3,163.8 711.9,159.7    "/>
		</g>
	</g>
</g>
<g>
	<g>
		<line fill="none" stroke="#000000" stroke-miterlimit="10" x1="468.9" y1="184.7" x2="411.9" y2="184.7"/>
		<g>
			<polygon points="415.3,180.7 416,181.4 412.4,184.7 416,188.1 415.3,188.8 410.9,184.7    "/>
		</g>
	</g>
</g>
<g>
	<g>
		<line fill="none" stroke="#000000" stroke-miterlimit="10" x1="315.9" y1="199.7" x2="258.9" y2="199.7"/>
		<g>
			<polygon points="262.3,195.7 263,196.4 259.4,199.7 263,203.1 262.3,203.8 257.9,199.7    "/>
		</g>
	</g>
</g>
<g>
	<g>
		<line fill="none" stroke="#000000" stroke-miterlimit="10" x1="169.9" y1="172.7" x2="112.9" y2="172.7"/>
		<g>
			<polygon points="116.3,168.7 117,169.4 113.4,172.7 117,176.1 116.3,176.8 111.9,172.7    "/>
		</g>
	</g>
</g>
<path fill="none" stroke="#000000" stroke-miterlimit="10" d="M754.5,49.8c-16.8,0-31.8,7.5-41.9,19.4  C698.5,34.4,664.4,9.8,624.5,9.8c-38,0-70.8,22.3-86,54.6c-13.9-23.7-39.6-39.6-69-39.6c-29,0-54.5,15.5-68.5,38.6  c-15.4-31.7-47.9-53.6-85.5-53.6c-38.1,0-71,22.5-86.1,54.9c-12.5-19.2-34.1-31.9-58.7-31.9c-27,0-50.5,15.3-62.1,37.8  C98.5,58,83,49.8,65.6,49.8c-30.4,0-55,24.6-55,55c0,30.4,24.6,55,55,55c18.2,0,34.3-8.8,44.3-22.4c12,21.1,34.8,35.4,60.8,35.4  c23.9,0,45-12,57.6-30.3c14.6,33.7,48.1,57.3,87.2,57.3c37.6,0,70.1-21.899,85.5-53.6c14,23.1,39.4,38.6,68.5,38.6  c29.4,0,55.1-15.899,69-39.6c15.2,32.2,48,54.6,86,54.6c39.9,0,74-24.6,88.1-59.4c10.101,11.9,25.101,19.4,41.9,19.4  c30.4,0,55-24.6,55-55C809.5,74.4,784.9,49.8,754.5,49.8z"/>
<defs>
	<filter id="Adobe_OpacityMaskFilter" filterUnits="userSpaceOnUse" x="-146.454" y="-12.954" width="1115.107" height="227.607">
		<feColorMatrix type="matrix" values="1 0 0 0 0  0 1 0 0 0  0 0 1 0 0  0 0 0 1 0"/>
	</filter>
</defs>
<mask maskUnits="userSpaceOnUse" x="-146.454" y="-12.954" width="1115.107" height="227.607" id="SVGID_1_">
	<g filter="url(#Adobe_OpacityMaskFilter)">
		<g>
			<circle fill="#FFFFFF" cx="65.5" cy="104.8" r="35"/>
			<circle fill="#FFFFFF" cx="754.5" cy="104.8" r="35"/>
			<circle fill="#FFFFFF" cx="170.7" cy="102.8" r="60"/>
			<circle fill="#FFFFFF" cx="315.5" cy="104.8" r="85"/>
			<circle fill="#FFFFFF" cx="624.5" cy="104.8" r="85"/>
			<circle fill="#FFFFFF" cx="469.5" cy="104.8" r="35"/>
			<path fill="#FFFFFF" d="M86.6,76.8c11.1,8.3,21.9,8.8,36.2-10.2l1.4,74.1c-15-18.4-25.8-17.6-36.5-8.8L86.6,76.8z"/>
			<path fill="#FFFFFF" d="M221.9,71.6c3.8,6.3,12.7,4.9,17.3-4.5l-1,73.1c-4.4-9.5-13.2-11.2-17.2-5L221.9,71.6z"/>
			<path fill="#FFFFFF" d="M383.9,55.4c28,39.1,48,32.4,64,20.9v57c-16-11.5-36-18.2-64,20.9V55.4z"/>
			<path fill="#FFFFFF" d="M553.9,154.2c-28-39.6-49-32.7-65-21V76.3c16,11.7,37,18.6,65-21V154.2z"/>
			<path fill="#FFFFFF" d="M730.9,131.9c-8-7-21-7.3-34,15.8V61.9c13,23.2,26,22.8,34,15.8V131.9z"/>
		</g>
	</g>
</mask>
<g mask="url(#SVGID_1_)">
	<line fill="none" stroke="#87C6BD" stroke-miterlimit="10" x1="-146.1" y1="214.3" x2="80.8" y2="-12.6"/>
	<line fill="none" stroke="#87C6BD" stroke-miterlimit="10" x1="-140.1" y1="214.3" x2="86.8" y2="-12.6"/>
	<line fill="none" stroke="#87C6BD" stroke-miterlimit="10" x1="-134.1" y1="214.3" x2="92.8" y2="-12.6"/>
	<line fill="none" stroke="#87C6BD" stroke-miterlimit="10" x1="-128.1" y1="214.3" x2="98.8" y2="-12.6"/>
	<line fill="none" stroke="#87C6BD" stroke-miterlimit="10" x1="-122.1" y1="214.3" x2="104.8" y2="-12.6"/>
	<line fill="none" stroke="#87C6BD" stroke-miterlimit="10" x1="-116.1" y1="214.3" x2="110.8" y2="-12.6"/>
	<line fill="none" stroke="#87C6BD" stroke-miterlimit="10" x1="-110.1" y1="214.3" x2="116.8" y2="-12.6"/>
	<line fill="none" stroke="#87C6BD" stroke-miterlimit="10" x1="-104.1" y1="214.3" x2="122.8" y2="-12.6"/>
	<line fill="none" stroke="#87C6BD" stroke-miterlimit="10" x1="-98.1" y1="214.3" x2="128.8" y2="-12.6"/>
	<line fill="none" stroke="#87C6BD" stroke-miterlimit="10" x1="-92.1" y1="214.3" x2="134.8" y2="-12.6"/>
	<line fill="none" stroke="#87C6BD" stroke-miterlimit="10" x1="-86.1" y1="214.3" x2="140.8" y2="-12.6"/>
	<line fill="none" stroke="#87C6BD" stroke-miterlimit="10" x1="-80.1" y1="214.3" x2="146.8" y2="-12.6"/>
	<line fill="none" stroke="#87C6BD" stroke-miterlimit="10" x1="-74.1" y1="214.3" x2="152.8" y2="-12.6"/>
	<line fill="none" stroke="#87C6BD" stroke-miterlimit="10" x1="-68.1" y1="214.3" x2="158.8" y2="-12.6"/>
	<line fill="none" stroke="#87C6BD" stroke-miterlimit="10" x1="-62.1" y1="214.3" x2="164.8" y2="-12.6"/>
	<line fill="none" stroke="#87C6BD" stroke-miterlimit="10" x1="-56.1" y1="214.3" x2="170.8" y2="-12.6"/>
	<line fill="none" stroke="#87C6BD" stroke-miterlimit="10" x1="-50.1" y1="214.3" x2="176.8" y2="-12.6"/>
	<line fill="none" stroke="#87C6BD" stroke-miterlimit="10" x1="-44.1" y1="214.3" x2="182.8" y2="-12.6"/>
	<line fill="none" stroke="#87C6BD" stroke-miterlimit="10" x1="-38.1" y1="214.3" x2="188.8" y2="-12.6"/>
	<line fill="none" stroke="#87C6BD" stroke-miterlimit="10" x1="-32.1" y1="214.3" x2="194.7" y2="-12.6"/>
	<line fill="none" stroke="#87C6BD" stroke-miterlimit="10" x1="-26.1" y1="214.3" x2="200.7" y2="-12.6"/>
	<line fill="none" stroke="#87C6BD" stroke-miterlimit="10" x1="-20.1" y1="214.3" x2="206.7" y2="-12.6"/>
	<line fill="none" stroke="#87C6BD" stroke-miterlimit="10" x1="-14.1" y1="214.3" x2="212.7" y2="-12.6"/>
	<line fill="none" stroke="#87C6BD" stroke-miterlimit="10" x1="-8.1" y1="214.3" x2="218.7" y2="-12.6"/>
	<line fill="none" stroke="#87C6BD" stroke-miterlimit="10" x1="-2.1" y1="214.3" x2="224.7" y2="-12.6"/>
	<line fill="none" stroke="#87C6BD" stroke-miterlimit="10" x1="3.9" y1="214.3" x2="230.7" y2="-12.6"/>
	<line fill="none" stroke="#87C6BD" stroke-miterlimit="10" x1="9.9" y1="214.3" x2="236.7" y2="-12.6"/>
	<line fill="none" stroke="#87C6BD" stroke-miterlimit="10" x1="15.9" y1="214.3" x2="242.7" y2="-12.6"/>
	<line fill="none" stroke="#87C6BD" stroke-miterlimit="10" x1="21.9" y1="214.3" x2="248.7" y2="-12.6"/>
	<line fill="none" stroke="#87C6BD" stroke-miterlimit="10" x1="27.9" y1="214.3" x2="254.7" y2="-12.6"/>
	<line fill="none" stroke="#87C6BD" stroke-miterlimit="10" x1="33.8" y1="214.3" x2="260.7" y2="-12.6"/>
	<line fill="none" stroke="#87C6BD" stroke-miterlimit="10" x1="39.8" y1="214.3" x2="266.7" y2="-12.6"/>
	<line fill="none" stroke="#87C6BD" stroke-miterlimit="10" x1="45.8" y1="214.3" x2="272.7" y2="-12.6"/>
	<line fill="none" stroke="#87C6BD" stroke-miterlimit="10" x1="51.8" y1="214.3" x2="278.7" y2="-12.6"/>
	<line fill="none" stroke="#87C6BD" stroke-miterlimit="10" x1="57.8" y1="214.3" x2="284.7" y2="-12.6"/>
	<line fill="none" stroke="#87C6BD" stroke-miterlimit="10" x1="63.8" y1="214.3" x2="290.7" y2="-12.6"/>
	<line fill="none" stroke="#87C6BD" stroke-miterlimit="10" x1="69.8" y1="214.3" x2="296.7" y2="-12.6"/>
	<line fill="none" stroke="#87C6BD" stroke-miterlimit="10" x1="75.8" y1="214.3" x2="302.7" y2="-12.6"/>
	<line fill="none" stroke="#87C6BD" stroke-miterlimit="10" x1="81.8" y1="214.3" x2="308.7" y2="-12.6"/>
	<line fill="none" stroke="#87C6BD" stroke-miterlimit="10" x1="87.8" y1="214.3" x2="314.7" y2="-12.6"/>
	<line fill="none" stroke="#87C6BD" stroke-miterlimit="10" x1="93.8" y1="214.3" x2="320.7" y2="-12.6"/>
	<line fill="none" stroke="#87C6BD" stroke-miterlimit="10" x1="99.8" y1="214.3" x2="326.7" y2="-12.6"/>
	<line fill="none" stroke="#87C6BD" stroke-miterlimit="10" x1="105.8" y1="214.3" x2="332.7" y2="-12.6"/>
	<line fill="none" stroke="#87C6BD" stroke-miterlimit="10" x1="111.8" y1="214.3" x2="338.7" y2="-12.6"/>
	<line fill="none" stroke="#87C6BD" stroke-miterlimit="10" x1="117.8" y1="214.3" x2="344.7" y2="-12.6"/>
	<line fill="none" stroke="#87C6BD" stroke-miterlimit="10" x1="123.8" y1="214.3" x2="350.7" y2="-12.6"/>
	<line fill="none" stroke="#87C6BD" stroke-miterlimit="10" x1="129.8" y1="214.3" x2="356.7" y2="-12.6"/>
	<line fill="none" stroke="#87C6BD" stroke-miterlimit="10" x1="135.8" y1="214.3" x2="362.7" y2="-12.6"/>
	<line fill="none" stroke="#87C6BD" stroke-miterlimit="10" x1="141.8" y1="214.3" x2="368.7" y2="-12.6"/>
	<line fill="none" stroke="#87C6BD" stroke-miterlimit="10" x1="147.8" y1="214.3" x2="374.6" y2="-12.6"/>
	<line fill="none" stroke="#87C6BD" stroke-miterlimit="10" x1="153.8" y1="214.3" x2="380.6" y2="-12.6"/>
	<line fill="none" stroke="#87C6BD" stroke-miterlimit="10" x1="159.8" y1="214.3" x2="386.6" y2="-12.6"/>
	<line fill="none" stroke="#87C6BD" stroke-miterlimit="10" x1="165.8" y1="214.3" x2="392.6" y2="-12.6"/>
	<line fill="none" stroke="#87C6BD" stroke-miterlimit="10" x1="171.8" y1="214.3" x2="398.6" y2="-12.6"/>
	<line fill="none" stroke="#87C6BD" stroke-miterlimit="10" x1="177.8" y1="214.3" x2="404.6" y2="-12.6"/>
	<line fill="none" stroke="#87C6BD" stroke-miterlimit="10" x1="183.8" y1="214.3" x2="410.6" y2="-12.6"/>
	<line fill="none" stroke="#87C6BD" stroke-miterlimit="10" x1="189.8" y1="214.3" x2="416.6" y2="-12.6"/>
	<line fill="none" stroke="#87C6BD" stroke-miterlimit="10" x1="195.8" y1="214.3" x2="422.6" y2="-12.6"/>
	<line fill="none" stroke="#87C6BD" stroke-miterlimit="10" x1="201.8" y1="214.3" x2="428.6" y2="-12.6"/>
	<line fill="none" stroke="#87C6BD" stroke-miterlimit="10" x1="207.8" y1="214.3" x2="434.6" y2="-12.6"/>
	<line fill="none" stroke="#87C6BD" stroke-miterlimit="10" x1="213.7" y1="214.3" x2="440.6" y2="-12.6"/>
	<line fill="none" stroke="#87C6BD" stroke-miterlimit="10" x1="219.7" y1="214.3" x2="446.6" y2="-12.6"/>
	<line fill="none" stroke="#87C6BD" stroke-miterlimit="10" x1="225.7" y1="214.3" x2="452.6" y2="-12.6"/>
	<line fill="none" stroke="#87C6BD" stroke-miterlimit="10" x1="231.7" y1="214.3" x2="458.6" y2="-12.6"/>
	<line fill="none" stroke="#87C6BD" stroke-miterlimit="10" x1="237.7" y1="214.3" x2="464.6" y2="-12.6"/>
	<line fill="none" stroke="#87C6BD" stroke-miterlimit="10" x1="243.7" y1="214.3" x2="470.6" y2="-12.6"/>
	<line fill="none" stroke="#87C6BD" stroke-miterlimit="10" x1="249.7" y1="214.3" x2="476.6" y2="-12.6"/>
	<line fill="none" stroke="#87C6BD" stroke-miterlimit="10" x1="255.7" y1="214.3" x2="482.6" y2="-12.6"/>
	<line fill="none" stroke="#87C6BD" stroke-miterlimit="10" x1="261.7" y1="214.3" x2="488.6" y2="-12.6"/>
	<line fill="none" stroke="#87C6BD" stroke-miterlimit="10" x1="267.7" y1="214.3" x2="494.6" y2="-12.6"/>
	<line fill="none" stroke="#87C6BD" stroke-miterlimit="10" x1="273.7" y1="214.3" x2="500.6" y2="-12.6"/>
	<line fill="none" stroke="#87C6BD" stroke-miterlimit="10" x1="279.7" y1="214.3" x2="506.6" y2="-12.6"/>
	<line fill="none" stroke="#87C6BD" stroke-miterlimit="10" x1="285.7" y1="214.3" x2="512.6" y2="-12.6"/>
	<line fill="none" stroke="#87C6BD" stroke-miterlimit="10" x1="291.7" y1="214.3" x2="518.6" y2="-12.6"/>
	<line fill="none" stroke="#87C6BD" stroke-miterlimit="10" x1="297.7" y1="214.3" x2="524.6" y2="-12.6"/>
	<line fill="none" stroke="#87C6BD" stroke-miterlimit="10" x1="303.7" y1="214.3" x2="530.6" y2="-12.6"/>
	<line fill="none" stroke="#87C6BD" stroke-miterlimit="10" x1="309.7" y1="214.3" x2="536.6" y2="-12.6"/>
	<line fill="none" stroke="#87C6BD" stroke-miterlimit="10" x1="315.7" y1="214.3" x2="542.6" y2="-12.6"/>
	<line fill="none" stroke="#87C6BD" stroke-miterlimit="10" x1="321.7" y1="214.3" x2="548.6" y2="-12.6"/>
	<line fill="none" stroke="#87C6BD" stroke-miterlimit="10" x1="327.7" y1="214.3" x2="554.5" y2="-12.6"/>
	<line fill="none" stroke="#87C6BD" stroke-miterlimit="10" x1="333.7" y1="214.3" x2="560.5" y2="-12.6"/>
	<line fill="none" stroke="#87C6BD" stroke-miterlimit="10" x1="339.7" y1="214.3" x2="566.5" y2="-12.6"/>
	<line fill="none" stroke="#87C6BD" stroke-miterlimit="10" x1="345.7" y1="214.3" x2="572.5" y2="-12.6"/>
	<line fill="none" stroke="#87C6BD" stroke-miterlimit="10" x1="351.7" y1="214.3" x2="578.5" y2="-12.6"/>
	<line fill="none" stroke="#87C6BD" stroke-miterlimit="10" x1="357.7" y1="214.3" x2="584.5" y2="-12.6"/>
	<line fill="none" stroke="#87C6BD" stroke-miterlimit="10" x1="363.7" y1="214.3" x2="590.5" y2="-12.6"/>
	<line fill="none" stroke="#87C6BD" stroke-miterlimit="10" x1="369.7" y1="214.3" x2="596.5" y2="-12.6"/>
	<line fill="none" stroke="#87C6BD" stroke-miterlimit="10" x1="375.7" y1="214.3" x2="602.5" y2="-12.6"/>
	<line fill="none" stroke="#87C6BD" stroke-miterlimit="10" x1="381.7" y1="214.3" x2="608.5" y2="-12.6"/>
	<line fill="none" stroke="#87C6BD" stroke-miterlimit="10" x1="387.7" y1="214.3" x2="614.5" y2="-12.6"/>
	<line fill="none" stroke="#87C6BD" stroke-miterlimit="10" x1="393.7" y1="214.3" x2="620.5" y2="-12.6"/>
	<line fill="none" stroke="#87C6BD" stroke-miterlimit="10" x1="399.6" y1="214.3" x2="626.5" y2="-12.6"/>
	<line fill="none" stroke="#87C6BD" stroke-miterlimit="10" x1="405.6" y1="214.3" x2="632.5" y2="-12.6"/>
	<line fill="none" stroke="#87C6BD" stroke-miterlimit="10" x1="411.6" y1="214.3" x2="638.5" y2="-12.6"/>
	<line fill="none" stroke="#87C6BD" stroke-miterlimit="10" x1="417.6" y1="214.3" x2="644.5" y2="-12.6"/>
	<line fill="none" stroke="#87C6BD" stroke-miterlimit="10" x1="423.6" y1="214.3" x2="650.5" y2="-12.6"/>
	<line fill="none" stroke="#87C6BD" stroke-miterlimit="10" x1="429.6" y1="214.3" x2="656.5" y2="-12.6"/>
	<line fill="none" stroke="#87C6BD" stroke-miterlimit="10" x1="435.6" y1="214.3" x2="662.5" y2="-12.6"/>
	<line fill="none" stroke="#87C6BD" stroke-miterlimit="10" x1="441.6" y1="214.3" x2="668.5" y2="-12.6"/>
	<line fill="none" stroke="#87C6BD" stroke-miterlimit="10" x1="447.6" y1="214.3" x2="674.5" y2="-12.6"/>
	<line fill="none" stroke="#87C6BD" stroke-miterlimit="10" x1="453.6" y1="214.3" x2="680.5" y2="-12.6"/>
	<line fill="none" stroke="#87C6BD" stroke-miterlimit="10" x1="459.6" y1="214.3" x2="686.5" y2="-12.6"/>
	<line fill="none" stroke="#87C6BD" stroke-miterlimit="10" x1="465.6" y1="214.3" x2="692.5" y2="-12.6"/>
	<line fill="none" stroke="#87C6BD" stroke-miterlimit="10" x1="471.6" y1="214.3" x2="698.5" y2="-12.6"/>
	<line fill="none" stroke="#87C6BD" stroke-miterlimit="10" x1="477.6" y1="214.3" x2="704.5" y2="-12.6"/>
	<line fill="none" stroke="#87C6BD" stroke-miterlimit="10" x1="483.6" y1="214.3" x2="710.5" y2="-12.6"/>
	<line fill="none" stroke="#87C6BD" stroke-miterlimit="10" x1="489.6" y1="214.3" x2="716.5" y2="-12.6"/>
	<line fill="none" stroke="#87C6BD" stroke-miterlimit="10" x1="495.6" y1="214.3" x2="722.5" y2="-12.6"/>
	<line fill="none" stroke="#87C6BD" stroke-miterlimit="10" x1="501.6" y1="214.3" x2="728.5" y2="-12.6"/>
	<line fill="none" stroke="#87C6BD" stroke-miterlimit="10" x1="507.6" y1="214.3" x2="734.4" y2="-12.6"/>
	<line fill="none" stroke="#87C6BD" stroke-miterlimit="10" x1="513.6" y1="214.3" x2="740.4" y2="-12.6"/>
	<line fill="none" stroke="#87C6BD" stroke-miterlimit="10" x1="519.6" y1="214.3" x2="746.4" y2="-12.6"/>
	<line fill="none" stroke="#87C6BD" stroke-miterlimit="10" x1="525.6" y1="214.3" x2="752.4" y2="-12.6"/>
	<line fill="none" stroke="#87C6BD" stroke-miterlimit="10" x1="531.6" y1="214.3" x2="758.4" y2="-12.6"/>
	<line fill="none" stroke="#87C6BD" stroke-miterlimit="10" x1="537.6" y1="214.3" x2="764.4" y2="-12.6"/>
	<line fill="none" stroke="#87C6BD" stroke-miterlimit="10" x1="543.6" y1="214.3" x2="770.4" y2="-12.6"/>
	<line fill="none" stroke="#87C6BD" stroke-miterlimit="10" x1="549.6" y1="214.3" x2="776.4" y2="-12.6"/>
	<line fill="none" stroke="#87C6BD" stroke-miterlimit="10" x1="555.6" y1="214.3" x2="782.4" y2="-12.6"/>
	<line fill="none" stroke="#87C6BD" stroke-miterlimit="10" x1="561.6" y1="214.3" x2="788.4" y2="-12.6"/>
	<line fill="none" stroke="#87C6BD" stroke-miterlimit="10" x1="567.6" y1="214.3" x2="794.4" y2="-12.6"/>
	<line fill="none" stroke="#87C6BD" stroke-miterlimit="10" x1="573.6" y1="214.3" x2="800.4" y2="-12.6"/>
	<line fill="none" stroke="#87C6BD" stroke-miterlimit="10" x1="579.5" y1="214.3" x2="806.4" y2="-12.6"/>
	<line fill="none" stroke="#87C6BD" stroke-miterlimit="10" x1="585.5" y1="214.3" x2="812.4" y2="-12.6"/>
	<line fill="none" stroke="#87C6BD" stroke-miterlimit="10" x1="591.5" y1="214.3" x2="818.4" y2="-12.6"/>
	<line fill="none" stroke="#87C6BD" stroke-miterlimit="10" x1="597.5" y1="214.3" x2="824.4" y2="-12.6"/>
	<line fill="none" stroke="#87C6BD" stroke-miterlimit="10" x1="603.5" y1="214.3" x2="830.4" y2="-12.6"/>
	<line fill="none" stroke="#87C6BD" stroke-miterlimit="10" x1="609.5" y1="214.3" x2="836.4" y2="-12.6"/>
	<line fill="none" stroke="#87C6BD" stroke-miterlimit="10" x1="615.5" y1="214.3" x2="842.4" y2="-12.6"/>
	<line fill="none" stroke="#87C6BD" stroke-miterlimit="10" x1="621.5" y1="214.3" x2="848.4" y2="-12.6"/>
	<line fill="none" stroke="#87C6BD" stroke-miterlimit="10" x1="627.5" y1="214.3" x2="854.4" y2="-12.6"/>
	<line fill="none" stroke="#87C6BD" stroke-miterlimit="10" x1="633.5" y1="214.3" x2="860.4" y2="-12.6"/>
	<line fill="none" stroke="#87C6BD" stroke-miterlimit="10" x1="639.5" y1="214.3" x2="866.4" y2="-12.6"/>
	<line fill="none" stroke="#87C6BD" stroke-miterlimit="10" x1="645.5" y1="214.3" x2="872.4" y2="-12.6"/>
	<line fill="none" stroke="#87C6BD" stroke-miterlimit="10" x1="651.5" y1="214.3" x2="878.4" y2="-12.6"/>
	<line fill="none" stroke="#87C6BD" stroke-miterlimit="10" x1="657.5" y1="214.3" x2="884.4" y2="-12.6"/>
	<line fill="none" stroke="#87C6BD" stroke-miterlimit="10" x1="663.5" y1="214.3" x2="890.4" y2="-12.6"/>
	<line fill="none" stroke="#87C6BD" stroke-miterlimit="10" x1="669.5" y1="214.3" x2="896.4" y2="-12.6"/>
	<line fill="none" stroke="#87C6BD" stroke-miterlimit="10" x1="675.5" y1="214.3" x2="902.4" y2="-12.6"/>
	<line fill="none" stroke="#87C6BD" stroke-miterlimit="10" x1="681.5" y1="214.3" x2="908.4" y2="-12.6"/>
	<line fill="none" stroke="#87C6BD" stroke-miterlimit="10" x1="687.5" y1="214.3" x2="914.4" y2="-12.6"/>
	<line fill="none" stroke="#87C6BD" stroke-miterlimit="10" x1="693.5" y1="214.3" x2="920.3" y2="-12.6"/>
	<line fill="none" stroke="#87C6BD" stroke-miterlimit="10" x1="699.5" y1="214.3" x2="926.3" y2="-12.6"/>
	<line fill="none" stroke="#87C6BD" stroke-miterlimit="10" x1="705.5" y1="214.3" x2="932.3" y2="-12.6"/>
	<line fill="none" stroke="#87C6BD" stroke-miterlimit="10" x1="711.5" y1="214.3" x2="938.3" y2="-12.6"/>
	<line fill="none" stroke="#87C6BD" stroke-miterlimit="10" x1="717.5" y1="214.3" x2="944.3" y2="-12.6"/>
	<line fill="none" stroke="#87C6BD" stroke-miterlimit="10" x1="723.5" y1="214.3" x2="950.3" y2="-12.6"/>
	<line fill="none" stroke="#87C6BD" stroke-miterlimit="10" x1="729.5" y1="214.3" x2="956.3" y2="-12.6"/>
	<line fill="none" stroke="#87C6BD" stroke-miterlimit="10" x1="735.5" y1="214.3" x2="962.3" y2="-12.6"/>
	<line fill="none" stroke="#87C6BD" stroke-miterlimit="10" x1="741.5" y1="214.3" x2="968.3" y2="-12.6"/>
</g>
<g enable-background="new    ">
	<path d="M35.93,241.521v3.721h-1.617v-8.402h3.059c0.768,0,1.383,0.211,1.834,0.627c0.498,0.475,0.744,1.043,0.744,1.717   s-0.246,1.242-0.744,1.717c-0.24,0.223-0.516,0.387-0.838,0.492l3.146,3.85H39.51l-2.988-3.721H35.93z M35.93,238.28v1.799h1.348   c0.779,0,1.055-0.393,1.055-0.885c0-0.516-0.287-0.914-1.055-0.914H35.93z"/>
	<path d="M42.569,242.335c0-1.682,1.148-3.035,2.83-3.035c1.588,0,2.748,1.33,2.748,2.977c0,0.17-0.012,0.316-0.035,0.445h-4.031   c0.076,0.814,0.744,1.377,1.57,1.377c0.557,0,1.049-0.223,1.465-0.668L48,244.315c-0.562,0.656-1.471,1.043-2.385,1.043   C43.858,245.358,42.569,244.14,42.569,242.335z M46.553,241.579c-0.047-0.545-0.545-1.02-1.154-1.02   c-0.627,0-1.172,0.475-1.248,1.02H46.553z"/>
	<path d="M50.696,243.466c0.428,0.381,0.961,0.574,1.6,0.574c0.416,0,0.744-0.205,0.744-0.492c0-0.322-0.439-0.533-0.99-0.709   s-1.154-0.357-1.541-0.844c-0.193-0.24-0.293-0.539-0.293-0.885c0-1.072,1.037-1.811,2.232-1.811c0.721,0,1.57,0.27,1.969,0.592   l-0.732,1.125c-0.369-0.264-0.738-0.398-1.113-0.393c-0.445,0-0.791,0.182-0.791,0.463c0,0.275,0.434,0.445,0.996,0.621   c0.557,0.176,1.154,0.381,1.535,0.896c0.193,0.264,0.287,0.58,0.287,0.955c0,1.072-1.043,1.799-2.314,1.799   c-0.861,0-1.641-0.258-2.344-0.779L50.696,243.466z"/>
	<path d="M56.555,242.335c0-1.682,1.148-3.035,2.83-3.035c1.588,0,2.748,1.33,2.748,2.977c0,0.17-0.012,0.316-0.035,0.445h-4.031   c0.076,0.814,0.744,1.377,1.57,1.377c0.557,0,1.049-0.223,1.465-0.668l0.885,0.885c-0.562,0.656-1.471,1.043-2.385,1.043   C57.844,245.358,56.555,244.14,56.555,242.335z M60.539,241.579c-0.047-0.545-0.545-1.02-1.154-1.02   c-0.627,0-1.172,0.475-1.248,1.02H60.539z"/>
	<path d="M64.084,242.335c0-1.711,1.266-3.035,2.854-3.035c0.656,0,1.225,0.199,1.705,0.592v-0.469h1.5v5.818h-1.5v-0.469   c-0.463,0.393-1.008,0.586-1.623,0.586C65.232,245.358,64.084,243.905,64.084,242.335z M65.643,242.335   c0,0.914,0.65,1.588,1.535,1.588c0.604,0,1.072-0.24,1.406-0.721v-1.74c-0.357-0.48-0.838-0.721-1.441-0.721   C66.258,240.741,65.643,241.468,65.643,242.335z"/>
	<path d="M74.496,245.241h-1.559v-5.818h1.5v0.586c0.381-0.475,0.943-0.709,1.688-0.709c0.129,0,0.305,0.018,0.527,0.047   l-0.176,1.453c-0.123-0.041-0.311-0.059-0.562-0.059c-0.627,0-1.189,0.422-1.418,0.838V245.241z"/>
	<path d="M79.078,244.479c-0.592-0.58-0.891-1.295-0.891-2.145c0-1.693,1.354-3.035,3.129-3.035c0.99,0,1.887,0.463,2.449,1.166   l-1.102,0.973c-0.352-0.463-0.803-0.697-1.348-0.697c-0.896,0-1.57,0.703-1.57,1.594c0,0.914,0.668,1.588,1.605,1.588   c0.592,0,1.107-0.34,1.395-0.768l1.201,0.896c-0.656,0.873-1.535,1.307-2.643,1.307C80.408,245.358,79.67,245.065,79.078,244.479z"/>
	<path d="M87.697,245.241h-1.559v-8.52h1.559v3.117c0.463-0.357,0.99-0.539,1.582-0.539c1.646,0,2.613,1.201,2.619,2.977v2.965   h-1.564v-3.082c0-0.99-0.486-1.418-1.219-1.418c-0.592,0-1.16,0.352-1.418,0.721V245.241z"/>
</g>
<g enable-background="new    ">
	<path d="M145.003,241.819v3.422h-1.617v-8.402h3.152c1.951,0,2.848,1.09,2.848,2.496c0,1.412-0.879,2.484-2.848,2.484H145.003z    M145.003,238.28v2.104h1.465c0.943,0,1.295-0.504,1.295-1.049c0-0.562-0.352-1.049-1.295-1.055H145.003z"/>
	<path d="M153.077,245.241h-1.559v-5.818h1.5v0.586c0.381-0.475,0.943-0.709,1.688-0.709c0.129,0,0.305,0.018,0.527,0.047   l-0.176,1.453c-0.123-0.041-0.311-0.059-0.562-0.059c-0.627,0-1.189,0.422-1.418,0.838V245.241z"/>
	<path d="M157.659,244.479c-0.592-0.58-0.891-1.295-0.891-2.145c0-1.693,1.336-3.035,3.094-3.035s3.094,1.342,3.094,3.035   s-1.336,3.023-3.094,3.023C158.983,245.358,158.251,245.065,157.659,244.479z M158.761,241.204   c-0.287,0.311-0.434,0.686-0.434,1.131c0,0.896,0.639,1.588,1.535,1.588s1.535-0.691,1.535-1.588c0-0.891-0.639-1.594-1.535-1.594   C159.411,240.741,159.048,240.894,158.761,241.204z"/>
	<path d="M164.913,242.335c0-1.711,1.266-3.035,2.854-3.035c0.639,0,1.189,0.182,1.646,0.539v-3.117h1.559v8.52h-1.5v-0.469   c-0.463,0.393-1.008,0.586-1.623,0.586C166.061,245.358,164.913,243.905,164.913,242.335z M166.471,242.335   c0,0.914,0.65,1.588,1.535,1.588c0.604,0,1.072-0.24,1.406-0.721v-1.74c-0.357-0.48-0.838-0.721-1.441-0.721   C167.086,240.741,166.471,241.468,166.471,242.335z"/>
	<path d="M173.643,239.423h1.559v3.141c0,0.896,0.434,1.354,1.166,1.359c0.527,0,0.979-0.24,1.354-0.721v-3.779h1.564v5.818h-1.5   v-0.469c-0.439,0.393-0.967,0.586-1.576,0.586c-1.635,0-2.566-1.254-2.566-2.854V239.423z"/>
	<path d="M182.491,244.479c-0.592-0.58-0.891-1.295-0.891-2.145c0-1.693,1.354-3.035,3.129-3.035c0.99,0,1.887,0.463,2.449,1.166   l-1.102,0.973c-0.352-0.463-0.803-0.697-1.348-0.697c-0.896,0-1.57,0.703-1.57,1.594c0,0.914,0.668,1.588,1.605,1.588   c0.592,0,1.107-0.34,1.395-0.768l1.201,0.896c-0.656,0.873-1.535,1.307-2.643,1.307   C183.821,245.358,183.083,245.065,182.491,244.479z"/>
	<path d="M190.506,240.741h-1.617v-1.318h1.617V237.8h1.564v1.623h1.916v1.318h-1.916v2.221c0,0.674,0.258,1.02,0.984,1.02   c0.246,0,0.457-0.018,0.633-0.059l0.24,1.318c-0.223,0.076-0.545,0.117-0.973,0.117c-1.846,0-2.449-1.025-2.449-2.578V240.741z"/>
</g>
<g enable-background="new    ">
	<path d="M148.085,260.241v-8.402h2.637c2.414,0,3.527,1.072,4.119,2.268c0.299,0.604,0.445,1.248,0.445,1.934   c0,1.377-0.633,2.643-1.67,3.41c-0.721,0.527-1.682,0.791-2.895,0.791H148.085z M149.703,253.28v5.52h1.201   c1.875,0,2.76-1.354,2.76-2.76s-0.885-2.76-2.76-2.76H149.703z"/>
	<path d="M157.302,257.335c0-1.682,1.148-3.035,2.83-3.035c1.588,0,2.748,1.33,2.748,2.977c0,0.17-0.012,0.316-0.035,0.445h-4.031   c0.076,0.814,0.744,1.377,1.57,1.377c0.557,0,1.049-0.223,1.465-0.668l0.885,0.885c-0.562,0.656-1.471,1.043-2.385,1.043   C158.591,260.358,157.302,259.14,157.302,257.335z M161.287,256.579c-0.047-0.545-0.545-1.02-1.154-1.02   c-0.627,0-1.172,0.475-1.248,1.02H161.287z"/>
	<path d="M165.429,258.466c0.428,0.381,0.961,0.574,1.6,0.574c0.416,0,0.744-0.205,0.744-0.492c0-0.322-0.439-0.533-0.99-0.709   s-1.154-0.357-1.541-0.844c-0.193-0.24-0.293-0.539-0.293-0.885c0-1.072,1.037-1.811,2.232-1.811c0.721,0,1.57,0.27,1.969,0.592   l-0.732,1.125c-0.369-0.264-0.738-0.398-1.113-0.393c-0.445,0-0.791,0.182-0.791,0.463c0,0.275,0.434,0.445,0.996,0.621   c0.557,0.176,1.154,0.381,1.535,0.896c0.193,0.264,0.287,0.58,0.287,0.955c0,1.072-1.043,1.799-2.314,1.799   c-0.861,0-1.641-0.258-2.344-0.779L165.429,258.466z"/>
	<path d="M171.827,253.063c-0.199-0.193-0.299-0.428-0.299-0.709c0-0.557,0.457-0.996,1.02-0.996c0.557,0,1.02,0.439,1.02,0.996   c0,0.562-0.463,0.996-1.02,0.996C172.267,253.351,172.026,253.257,171.827,253.063z M173.327,254.423v5.818h-1.559v-5.818H173.327z   "/>
	<path d="M175.642,257.335c0-1.711,1.266-3.035,2.854-3.035c0.656,0,1.225,0.199,1.705,0.592v-0.469h1.5v5.496   c0,1.893-0.697,2.602-1.6,3.012c-0.451,0.205-0.955,0.311-1.506,0.311c-1.107,0-2.209-0.498-2.801-1.201l0.984-1.02   c0.521,0.557,1.125,0.838,1.811,0.838c1.055,0,1.547-0.539,1.553-1.834v-0.193c-0.457,0.352-0.979,0.527-1.564,0.527   c-0.85,0-1.682-0.375-2.203-0.979C175.888,258.812,175.642,258.126,175.642,257.335z M177.2,257.335   c0,0.914,0.65,1.588,1.535,1.588c0.604,0,1.072-0.24,1.406-0.721v-1.74c-0.357-0.48-0.838-0.721-1.441-0.721   C177.815,255.741,177.2,256.468,177.2,257.335z"/>
	<path d="M186.054,260.241h-1.559v-5.818h1.5v0.469c0.961-0.779,2.619-0.902,3.656,0.346c0.398,0.475,0.598,1.154,0.604,2.039v2.965   h-1.564v-3.082c0-0.99-0.486-1.418-1.219-1.418c-0.592,0-1.16,0.352-1.418,0.721V260.241z"/>
</g>
<g enable-background="new    ">
	<path d="M272.319,236.839h1.617v4.98c0,1.389,0.826,2.104,1.98,2.104c1.148,0,1.98-0.703,1.98-2.104v-4.98h1.617v4.863   c0,1.213-0.357,2.145-1.078,2.795c-0.65,0.574-1.488,0.861-2.52,0.861s-1.869-0.287-2.52-0.861   c-0.721-0.65-1.078-1.582-1.078-2.795V236.839z"/>
	<path d="M285.31,242.048l-2.039,3.193h-1.857l2.9-4.477l-2.543-3.926h1.863l1.676,2.654l1.682-2.654h1.857l-2.555,3.926   l2.918,4.477h-1.863L285.31,242.048z"/>
	<path d="M295.575,245.241v-8.402h2.637c2.414,0,3.527,1.072,4.119,2.268c0.299,0.604,0.445,1.248,0.445,1.934   c0,1.377-0.633,2.643-1.67,3.41c-0.721,0.527-1.682,0.791-2.895,0.791H295.575z M297.192,238.28v5.52h1.201   c1.875,0,2.76-1.354,2.76-2.76s-0.885-2.76-2.76-2.76H297.192z"/>
	<path d="M304.792,242.335c0-1.682,1.148-3.035,2.83-3.035c1.588,0,2.748,1.33,2.748,2.977c0,0.17-0.012,0.316-0.035,0.445h-4.031   c0.076,0.814,0.744,1.377,1.57,1.377c0.557,0,1.049-0.223,1.465-0.668l0.885,0.885c-0.562,0.656-1.471,1.043-2.385,1.043   C306.081,245.358,304.792,244.14,304.792,242.335z M308.776,241.579c-0.047-0.545-0.545-1.02-1.154-1.02   c-0.627,0-1.172,0.475-1.248,1.02H308.776z"/>
	<path d="M312.918,243.466c0.428,0.381,0.961,0.574,1.6,0.574c0.416,0,0.744-0.205,0.744-0.492c0-0.322-0.439-0.533-0.99-0.709   s-1.154-0.357-1.541-0.844c-0.193-0.24-0.293-0.539-0.293-0.885c0-1.072,1.037-1.811,2.232-1.811c0.721,0,1.57,0.27,1.969,0.592   l-0.732,1.125c-0.369-0.264-0.738-0.398-1.113-0.393c-0.445,0-0.791,0.182-0.791,0.463c0,0.275,0.434,0.445,0.996,0.621   c0.557,0.176,1.154,0.381,1.535,0.896c0.193,0.264,0.287,0.58,0.287,0.955c0,1.072-1.043,1.799-2.314,1.799   c-0.861,0-1.641-0.258-2.344-0.779L312.918,243.466z"/>
	<path d="M319.317,238.063c-0.199-0.193-0.299-0.428-0.299-0.709c0-0.557,0.457-0.996,1.02-0.996c0.557,0,1.02,0.439,1.02,0.996   c0,0.562-0.463,0.996-1.02,0.996C319.756,238.351,319.516,238.257,319.317,238.063z M320.817,239.423v5.818h-1.559v-5.818H320.817z   "/>
	<path d="M323.131,242.335c0-1.711,1.266-3.035,2.854-3.035c0.656,0,1.225,0.199,1.705,0.592v-0.469h1.5v5.496   c0,1.893-0.697,2.602-1.6,3.012c-0.451,0.205-0.955,0.311-1.506,0.311c-1.107,0-2.209-0.498-2.801-1.201l0.984-1.02   c0.521,0.557,1.125,0.838,1.811,0.838c1.055,0,1.547-0.539,1.553-1.834v-0.193c-0.457,0.352-0.979,0.527-1.564,0.527   c-0.85,0-1.682-0.375-2.203-0.979C323.377,243.812,323.131,243.126,323.131,242.335z M324.69,242.335   c0,0.914,0.65,1.588,1.535,1.588c0.604,0,1.072-0.24,1.406-0.721v-1.74c-0.357-0.48-0.838-0.721-1.441-0.721   C325.305,240.741,324.69,241.468,324.69,242.335z"/>
	<path d="M333.543,245.241h-1.559v-5.818h1.5v0.469c0.961-0.779,2.619-0.902,3.656,0.346c0.398,0.475,0.598,1.154,0.604,2.039v2.965   h-1.564v-3.082c0-0.99-0.486-1.418-1.219-1.418c-0.592,0-1.16,0.352-1.418,0.721V245.241z"/>
	<path d="M344.043,242.61c0-0.967,0.498-1.787,1.5-2.455c-0.885-1.172-0.855-2.203-0.059-2.906c0.398-0.352,0.873-0.527,1.418-0.527   c1.172,0,2.016,0.826,2.016,1.969c0,0.674-0.369,1.289-1.107,1.857l1.611,1.852c0.076-0.299,0.117-0.598,0.117-0.902   c0-0.404-0.07-0.844-0.205-1.318l1.453-0.352c0.17,0.574,0.252,1.137,0.252,1.682c0,0.85-0.17,1.564-0.516,2.15l1.383,1.582h-1.945   l-0.445-0.504c-0.627,0.416-1.4,0.621-2.326,0.621C345.508,245.358,344.043,244.228,344.043,242.61z M345.602,242.61   c0,0.721,0.668,1.312,1.658,1.312c0.486,0,0.908-0.111,1.26-0.328l-2.004-2.314C345.906,241.614,345.602,242.06,345.602,242.61z    M346.445,238.679c0,0.223,0.135,0.486,0.404,0.791c0.334-0.299,0.504-0.562,0.504-0.791c0-0.287-0.188-0.516-0.451-0.516   C346.645,238.163,346.445,238.392,346.445,238.679z"/>
</g>
<g enable-background="new    ">
	<path d="M273.895,256.819v3.422h-1.617v-8.402h3.152c1.951,0,2.848,1.09,2.848,2.496c0,1.412-0.879,2.484-2.848,2.484H273.895z    M273.895,253.28v2.104h1.465c0.943,0,1.295-0.504,1.295-1.049c0-0.562-0.352-1.049-1.295-1.055H273.895z"/>
	<path d="M281.969,260.241h-1.559v-5.818h1.5v0.586c0.381-0.475,0.943-0.709,1.688-0.709c0.129,0,0.305,0.018,0.527,0.047   l-0.176,1.453c-0.123-0.041-0.311-0.059-0.562-0.059c-0.627,0-1.189,0.422-1.418,0.838V260.241z"/>
	<path d="M286.551,259.479c-0.592-0.58-0.891-1.295-0.891-2.145c0-1.693,1.336-3.035,3.094-3.035s3.094,1.342,3.094,3.035   s-1.336,3.023-3.094,3.023C287.875,260.358,287.143,260.065,286.551,259.479z M287.653,256.204   c-0.287,0.311-0.434,0.686-0.434,1.131c0,0.896,0.639,1.588,1.535,1.588s1.535-0.691,1.535-1.588c0-0.891-0.639-1.594-1.535-1.594   C288.303,255.741,287.94,255.894,287.653,256.204z"/>
	<path d="M295.006,255.741h-1.617v-1.318h1.617V252.8h1.564v1.623h1.916v1.318h-1.916v2.221c0,0.674,0.258,1.02,0.984,1.02   c0.246,0,0.457-0.018,0.633-0.059l0.24,1.318c-0.223,0.076-0.545,0.117-0.973,0.117c-1.846,0-2.449-1.025-2.449-2.578V255.741z"/>
	<path d="M301.211,259.479c-0.592-0.58-0.891-1.295-0.891-2.145c0-1.693,1.336-3.035,3.094-3.035s3.094,1.342,3.094,3.035   s-1.336,3.023-3.094,3.023C302.535,260.358,301.803,260.065,301.211,259.479z M302.312,256.204   c-0.287,0.311-0.434,0.686-0.434,1.131c0,0.896,0.639,1.588,1.535,1.588s1.535-0.691,1.535-1.588c0-0.891-0.639-1.594-1.535-1.594   C302.963,255.741,302.6,255.894,302.312,256.204z"/>
	<path d="M309.666,255.741h-1.617v-1.318h1.617V252.8h1.564v1.623h1.916v1.318h-1.916v2.221c0,0.674,0.258,1.02,0.984,1.02   c0.246,0,0.457-0.018,0.633-0.059l0.24,1.318c-0.223,0.076-0.545,0.117-0.973,0.117c-1.846,0-2.449-1.025-2.449-2.578V255.741z"/>
	<path d="M316.152,263.124l1.611-3.469l-2.607-5.232h1.717l1.705,3.492l1.57-3.492h1.646l-4.008,8.701H316.152z"/>
	<path d="M325.369,263.124h-1.559v-8.701h1.5v0.469c0.961-0.779,2.613-0.885,3.727,0.281c0.557,0.586,0.832,1.307,0.832,2.162   c0,0.791-0.246,1.477-0.732,2.045c-0.533,0.609-1.359,0.979-2.209,0.979c-0.586,0-1.107-0.176-1.559-0.527V263.124z    M325.369,258.202c0.334,0.48,0.803,0.721,1.4,0.721c0.885,0,1.541-0.674,1.541-1.588c0-0.867-0.627-1.594-1.5-1.594   c-0.604,0-1.084,0.24-1.441,0.721V258.202z"/>
	<path d="M332.242,253.063c-0.199-0.193-0.299-0.428-0.299-0.709c0-0.557,0.457-0.996,1.02-0.996c0.557,0,1.02,0.439,1.02,0.996   c0,0.562-0.463,0.996-1.02,0.996C332.681,253.351,332.441,253.257,332.242,253.063z M333.742,254.423v5.818h-1.559v-5.818H333.742z   "/>
	<path d="M338.095,260.241h-1.559v-5.818h1.5v0.469c0.961-0.779,2.619-0.902,3.656,0.346c0.398,0.475,0.598,1.154,0.604,2.039v2.965   h-1.564v-3.082c0-0.99-0.486-1.418-1.219-1.418c-0.592,0-1.16,0.352-1.418,0.721V260.241z"/>
	<path d="M344.488,257.335c0-1.711,1.266-3.035,2.854-3.035c0.656,0,1.225,0.199,1.705,0.592v-0.469h1.5v5.496   c0,1.893-0.697,2.602-1.6,3.012c-0.451,0.205-0.955,0.311-1.506,0.311c-1.107,0-2.209-0.498-2.801-1.201l0.984-1.02   c0.521,0.557,1.125,0.838,1.811,0.838c1.055,0,1.547-0.539,1.553-1.834v-0.193c-0.457,0.352-0.979,0.527-1.564,0.527   c-0.85,0-1.682-0.375-2.203-0.979C344.734,258.812,344.488,258.126,344.488,257.335z M346.046,257.335   c0,0.914,0.65,1.588,1.535,1.588c0.604,0,1.072-0.24,1.406-0.721v-1.74c-0.357-0.48-0.838-0.721-1.441-0.721   C346.662,255.741,346.046,256.468,346.046,257.335z"/>
</g>
<g enable-background="new    ">
	<path d="M436.451,236.839h1.617v4.98c0,1.389,0.826,2.104,1.98,2.104c1.148,0,1.98-0.703,1.98-2.104v-4.98h1.617v4.863   c0,1.213-0.357,2.145-1.078,2.795c-0.65,0.574-1.488,0.861-2.52,0.861s-1.869-0.287-2.52-0.861   c-0.721-0.65-1.078-1.582-1.078-2.795V236.839z"/>
	<path d="M448.123,236.839v8.402h-1.617v-8.402H448.123z"/>
	<path d="M455.271,245.241v-8.402h2.637c2.414,0,3.527,1.072,4.119,2.268c0.299,0.604,0.445,1.248,0.445,1.934   c0,1.377-0.633,2.643-1.67,3.41c-0.721,0.527-1.682,0.791-2.895,0.791H455.271z M456.889,238.28v5.52h1.201   c1.875,0,2.76-1.354,2.76-2.76s-0.885-2.76-2.76-2.76H456.889z"/>
	<path d="M464.488,242.335c0-1.682,1.148-3.035,2.83-3.035c1.588,0,2.748,1.33,2.748,2.977c0,0.17-0.012,0.316-0.035,0.445H466   c0.076,0.814,0.744,1.377,1.57,1.377c0.557,0,1.049-0.223,1.465-0.668l0.885,0.885c-0.562,0.656-1.471,1.043-2.385,1.043   C465.777,245.358,464.488,244.14,464.488,242.335z M468.473,241.579c-0.047-0.545-0.545-1.02-1.154-1.02   c-0.627,0-1.172,0.475-1.248,1.02H468.473z"/>
	<path d="M472.615,243.466c0.428,0.381,0.961,0.574,1.6,0.574c0.416,0,0.744-0.205,0.744-0.492c0-0.322-0.439-0.533-0.99-0.709   s-1.154-0.357-1.541-0.844c-0.193-0.24-0.293-0.539-0.293-0.885c0-1.072,1.037-1.811,2.232-1.811c0.721,0,1.57,0.27,1.969,0.592   l-0.732,1.125c-0.369-0.264-0.738-0.398-1.113-0.393c-0.445,0-0.791,0.182-0.791,0.463c0,0.275,0.434,0.445,0.996,0.621   c0.557,0.176,1.154,0.381,1.535,0.896c0.193,0.264,0.287,0.58,0.287,0.955c0,1.072-1.043,1.799-2.314,1.799   c-0.861,0-1.641-0.258-2.344-0.779L472.615,243.466z"/>
	<path d="M479.014,238.063c-0.199-0.193-0.299-0.428-0.299-0.709c0-0.557,0.457-0.996,1.02-0.996c0.557,0,1.02,0.439,1.02,0.996   c0,0.562-0.463,0.996-1.02,0.996C479.453,238.351,479.213,238.257,479.014,238.063z M480.514,239.423v5.818h-1.559v-5.818H480.514z   "/>
	<path d="M482.828,242.335c0-1.711,1.266-3.035,2.854-3.035c0.656,0,1.225,0.199,1.705,0.592v-0.469h1.5v5.496   c0,1.893-0.697,2.602-1.6,3.012c-0.451,0.205-0.955,0.311-1.506,0.311c-1.107,0-2.209-0.498-2.801-1.201l0.984-1.02   c0.521,0.557,1.125,0.838,1.811,0.838c1.055,0,1.547-0.539,1.553-1.834v-0.193c-0.457,0.352-0.979,0.527-1.564,0.527   c-0.85,0-1.682-0.375-2.203-0.979C483.074,243.812,482.828,243.126,482.828,242.335z M484.387,242.335   c0,0.914,0.65,1.588,1.535,1.588c0.604,0,1.072-0.24,1.406-0.721v-1.74c-0.357-0.48-0.838-0.721-1.441-0.721   C485.002,240.741,484.387,241.468,484.387,242.335z"/>
	<path d="M493.24,245.241h-1.559v-5.818h1.5v0.469c0.961-0.779,2.619-0.902,3.656,0.346c0.398,0.475,0.598,1.154,0.604,2.039v2.965   h-1.564v-3.082c0-0.99-0.486-1.418-1.219-1.418c-0.592,0-1.16,0.352-1.418,0.721V245.241z"/>
</g>
<g enable-background="new    ">
	<path d="M578.844,245.241v-8.402h2.637c2.414,0,3.527,1.072,4.119,2.268c0.299,0.604,0.445,1.248,0.445,1.934   c0,1.377-0.633,2.643-1.67,3.41c-0.721,0.527-1.682,0.791-2.895,0.791H578.844z M580.461,238.28v5.52h1.201   c1.875,0,2.76-1.354,2.76-2.76s-0.885-2.76-2.76-2.76H580.461z"/>
	<path d="M588.061,242.335c0-1.682,1.148-3.035,2.83-3.035c1.588,0,2.748,1.33,2.748,2.977c0,0.17-0.012,0.316-0.035,0.445h-4.031   c0.076,0.814,0.744,1.377,1.57,1.377c0.557,0,1.049-0.223,1.465-0.668l0.885,0.885c-0.562,0.656-1.471,1.043-2.385,1.043   C589.35,245.358,588.061,244.14,588.061,242.335z M592.045,241.579c-0.047-0.545-0.545-1.02-1.154-1.02   c-0.627,0-1.172,0.475-1.248,1.02H592.045z"/>
	<path d="M598.812,245.241h-1.084l-2.678-5.818h1.623l1.594,3.551l1.6-3.551h1.617L598.812,245.241z"/>
	<path d="M602.837,242.335c0-1.682,1.148-3.035,2.83-3.035c1.588,0,2.748,1.33,2.748,2.977c0,0.17-0.012,0.316-0.035,0.445h-4.031   c0.076,0.814,0.744,1.377,1.57,1.377c0.557,0,1.049-0.223,1.465-0.668l0.885,0.885c-0.562,0.656-1.471,1.043-2.385,1.043   C604.126,245.358,602.837,244.14,602.837,242.335z M606.821,241.579c-0.047-0.545-0.545-1.02-1.154-1.02   c-0.627,0-1.172,0.475-1.248,1.02H606.821z"/>
	<path d="M612.288,236.722v8.52h-1.559v-8.52H612.288z"/>
	<path d="M615.493,244.479c-0.592-0.58-0.891-1.295-0.891-2.145c0-1.693,1.336-3.035,3.094-3.035s3.094,1.342,3.094,3.035   s-1.336,3.023-3.094,3.023C616.817,245.358,616.085,245.065,615.493,244.479z M616.595,241.204   c-0.287,0.311-0.434,0.686-0.434,1.131c0,0.896,0.639,1.588,1.535,1.588s1.535-0.691,1.535-1.588c0-0.891-0.639-1.594-1.535-1.594   C617.245,240.741,616.882,240.894,616.595,241.204z"/>
	<path d="M624.669,248.124h-1.559v-8.701h1.5v0.469c0.961-0.779,2.613-0.885,3.727,0.281c0.557,0.586,0.832,1.307,0.832,2.162   c0,0.791-0.246,1.477-0.732,2.045c-0.533,0.609-1.359,0.979-2.209,0.979c-0.586,0-1.107-0.176-1.559-0.527V248.124z    M624.669,243.202c0.334,0.48,0.803,0.721,1.4,0.721c0.885,0,1.541-0.674,1.541-1.588c0-0.867-0.627-1.594-1.5-1.594   c-0.604,0-1.084,0.24-1.441,0.721V243.202z"/>
	<path d="M633.042,245.241h-1.559v-5.818h1.5v0.469c0.885-0.779,2.52-0.896,3.527,0.322c0.574-0.609,1.26-0.914,2.062-0.914   c0.797,0,1.576,0.357,2.039,0.938c0.393,0.48,0.586,1.119,0.586,1.922v3.082h-1.559v-3.146c0-0.896-0.428-1.354-1.16-1.354   c-0.609,0-1.148,0.387-1.406,0.768c0.029,0.258,0.047,0.475,0.047,0.65v3.082h-1.559v-3.146c0-0.896-0.422-1.354-1.166-1.354   c-0.527,0-0.979,0.24-1.354,0.721V245.241z"/>
	<path d="M643.395,242.335c0-1.682,1.148-3.035,2.83-3.035c1.588,0,2.748,1.33,2.748,2.977c0,0.17-0.012,0.316-0.035,0.445h-4.031   c0.076,0.814,0.744,1.377,1.57,1.377c0.557,0,1.049-0.223,1.465-0.668l0.885,0.885c-0.562,0.656-1.471,1.043-2.385,1.043   C644.684,245.358,643.395,244.14,643.395,242.335z M647.379,241.579c-0.047-0.545-0.545-1.02-1.154-1.02   c-0.627,0-1.172,0.475-1.248,1.02H647.379z"/>
	<path d="M652.846,245.241h-1.559v-5.818h1.5v0.469c0.961-0.779,2.619-0.902,3.656,0.346c0.398,0.475,0.598,1.154,0.604,2.039v2.965   h-1.564v-3.082c0-0.99-0.486-1.418-1.219-1.418c-0.592,0-1.16,0.352-1.418,0.721V245.241z"/>
	<path d="M660.434,240.741h-1.617v-1.318h1.617V237.8h1.564v1.623h1.916v1.318h-1.916v2.221c0,0.674,0.258,1.02,0.984,1.02   c0.246,0,0.457-0.018,0.633-0.059l0.24,1.318c-0.223,0.076-0.545,0.117-0.973,0.117c-1.846,0-2.449-1.025-2.449-2.578V240.741z"/>
</g>
<g enable-background="new    ">
	<path d="M725.92,245.241v-8.402h2.637c2.414,0,3.527,1.072,4.119,2.268c0.299,0.604,0.445,1.248,0.445,1.934   c0,1.377-0.633,2.643-1.67,3.41c-0.721,0.527-1.682,0.791-2.895,0.791H725.92z M727.537,238.28v5.52h1.201   c1.875,0,2.76-1.354,2.76-2.76s-0.885-2.76-2.76-2.76H727.537z"/>
	<path d="M735.137,242.335c0-1.682,1.148-3.035,2.83-3.035c1.588,0,2.748,1.33,2.748,2.977c0,0.17-0.012,0.316-0.035,0.445h-4.031   c0.076,0.814,0.744,1.377,1.57,1.377c0.557,0,1.049-0.223,1.465-0.668l0.885,0.885c-0.562,0.656-1.471,1.043-2.385,1.043   C736.426,245.358,735.137,244.14,735.137,242.335z M739.121,241.579c-0.047-0.545-0.545-1.02-1.154-1.02   c-0.627,0-1.172,0.475-1.248,1.02H739.121z"/>
	<path d="M744.588,236.722v8.52h-1.559v-8.52H744.588z"/>
	<path d="M747.44,238.063c-0.199-0.193-0.299-0.428-0.299-0.709c0-0.557,0.457-0.996,1.02-0.996c0.557,0,1.02,0.439,1.02,0.996   c0,0.562-0.463,0.996-1.02,0.996C747.88,238.351,747.64,238.257,747.44,238.063z M748.94,239.423v5.818h-1.559v-5.818H748.94z"/>
	<path d="M754.712,245.241h-1.084l-2.678-5.818h1.623l1.594,3.551l1.6-3.551h1.617L754.712,245.241z"/>
	<path d="M758.737,242.335c0-1.682,1.148-3.035,2.83-3.035c1.588,0,2.748,1.33,2.748,2.977c0,0.17-0.012,0.316-0.035,0.445h-4.031   c0.076,0.814,0.744,1.377,1.57,1.377c0.557,0,1.049-0.223,1.465-0.668l0.885,0.885c-0.562,0.656-1.471,1.043-2.385,1.043   C760.026,245.358,758.737,244.14,758.737,242.335z M762.722,241.579c-0.047-0.545-0.545-1.02-1.154-1.02   c-0.627,0-1.172,0.475-1.248,1.02H762.722z"/>
	<path d="M768.188,245.241h-1.559v-5.818h1.5v0.586c0.381-0.475,0.943-0.709,1.688-0.709c0.129,0,0.305,0.018,0.527,0.047   l-0.176,1.453c-0.123-0.041-0.311-0.059-0.562-0.059c-0.627,0-1.189,0.422-1.418,0.838V245.241z"/>
	<path d="M773.175,248.124l1.611-3.469l-2.607-5.232h1.717l1.705,3.492l1.57-3.492h1.646l-4.008,8.701H773.175z"/>
</g>
</svg>