<svg version="1.1" xmlns="http://www.w3.org/2000/svg" xmlns:xlink="http://www.w3.org/1999/xlink" x="0px" y="0px" width="425.6" height="45.4" viewBox="0 0 425.6 45.4" enable-background="new 0 0 425.6 45.4" xml:space="preserve">
				<defs>
					<clipPath id="workflow-clip">
						<path d="M19.9 40.3h-4.5L4.2 6.7h6.5l7 21 7.4-21h4.6l7.4 21 7-21h6.5L39.4 40.3h-4.6L27.3 19l-7.4 21.3zM75.4 35.7c-3.3-3.3-4.9-7.4-4.9-12.3 0-9.7 7.3-17.3 17.5-17.3s17.5 7.5 17.5 17.3S98.3 40.7 88 40.7c-5.1 0-9.3-1.6-12.6-5zm4.7-20.4c-2.1 2.2-3.1 5-3.1 8.2C77 29.9 81.7 35 88 35s11-5.1 11-11.5S94.3 12 88 12c-3.1 0-5.7 1.1-7.9 3.3zM136.6 25.4v14.9h-6.5V6.7h12.2c3.1 0 5.5.8 7.3 2.5 2 1.9 3 4.2 3 6.9s-1 5-3 6.9c-1 .9-2.1 1.5-3.4 2l12.6 15.4h-8l-12-14.9h-2.2zm0-13v7.2h5.4c3.1 0 4.2-1.6 4.2-3.5 0-2.1-1.1-3.7-4.2-3.7h-5.4zM188 23.7v16.5h-6.5V6.7h6.5v13.5l12.7-13.5h8.6L194.5 22 211 40.3h-8.3L188 23.7zM240.3 25.2v15.1h-6.5V6.7H254v5.8h-13.7v7h10.3v5.8h-10.3zM297.8 34.5v5.8h-20.6V6.7h6.5v27.8h14.1zM323.4 35.7c-3.3-3.3-4.9-7.4-4.9-12.3 0-9.7 7.3-17.3 17.5-17.3s17.5 7.5 17.5 17.3-7.3 17.3-17.5 17.3c-5.2 0-9.4-1.6-12.6-5zm4.7-20.4c-2.1 2.2-3.2 4.9-3.2 8.2 0 6.4 4.8 11.5 11 11.5s11-5.1 11-11.5S342.2 12 336 12c-3.2 0-5.8 1.1-7.9 3.3zM389.1 40.3h-4.5L373.4 6.7h6.5l7 21 7.4-21h4.6l7.4 21 7-21h6.5l-11.1 33.6h-4.6L396.6 19l-7.5 21.3z"></path>
					</clipPath>
				</defs>
				<g class="letters" clip-path="url(#workflow-clip)" stroke="#1D1D1F" fill="none" stroke-miterlimit="10">
					<g class="letter-r" stroke="#1D1D1F" fill="none">
						<path class="outline-1" d="M130.1,6.7h12.2c3.1,0,5.5,0.8,7.3,2.5c2,1.9,3,4.2,3,6.9" stroke="#1D1D1F" fill="none"></path>
						<line class="outline-2" x1="130.1" y1="40.3" x2="130.1" y2="6.7" stroke="#1D1D1F" fill="none"></line>
						<path class="outline-3" d="M152.7,16c0,2.7-1,5-3,6.9c-1,0.9-2.1,1.5-3.4,2l12.6,15.4" stroke="#1D1D1F" fill="none"></path>
						<path class="outline-4" d="M136.6,16v3.6h5.4c3.1,0,4.2-1.6,4.2-3.5" stroke="#1D1D1F" fill="none"></path>
						<path class="outline-5" d="M146.2,16.1c0-2.1-1.1-3.7-4.2-3.7h-5.4V16" stroke="#1D1D1F" fill="none"></path>
						<line class="fill-1" x1="133.4" y1="40.7" x2="133.4" y2="7.1" stroke="#1D1D1F" fill="none" stroke-width="7.5px"></line>
						<path class="fill-2" d="M132.8,22.5h9.3c5.4,0,7.3-2.8,7.3-6.3c0-3.7-2-6.6-7.3-6.6h-9.3" stroke="#1D1D1F" fill="none" stroke-width="7.5px"></path>
						<line class="fill-3" x1="157.2" y1="43.2" x2="140.6" y2="22.5" stroke="#1D1D1F" fill="none" stroke-width="7.5px"></line>
					</g>
					<g class="letter-o letter-o-1" stroke="#1D1D1F" fill="none">
						<path class="outline-1" d="M105.9,23.6c0,9.8-7.4,17.5-17.7,17.5c-5.2,0-9.4-1.7-12.8-5.1c-3.3-3.3-5-7.5-5-12.5c0-9.8,7.4-17.5,17.7-17.5S105.9,13.8,105.9,23.6" stroke="#1D1D1F" fill="none"></path>
						<path class="outline-2" d="M77,23.6c0,6.5,4.9,11.6,11.1,11.6c6.3,0,11.1-5.2,11.1-11.6S94.4,12,88.1,12c-3.1,0-5.9,1.1-8,3.4S77,20.4,77,23.6" stroke="#1D1D1F" fill="none"></path>
						<path class="fill" d="M97.4,12c-2.4-2.1-5.7-3.4-9.3-3.4c-4.2,0-7.6,1.5-10.3,4.4c-2.7,2.9-4.2,6.5-4.2,10.6c0,8.4,6.3,15.1,14.5,15.1s14.5-6.7,14.5-15.1C102.6,18.8,100.7,14.7,97.4,12" stroke="#1D1D1F" fill="none" stroke-width="7.5px"></path>
					</g>
					<g class="letter-o letter-o-2" stroke="#1D1D1F" fill="none">
						<path class="outline-1" d="M353.7,23.6c0,9.8-7.4,17.5-17.7,17.5c-5.2,0-9.4-1.7-12.8-5.1c-3.3-3.3-5-7.5-5-12.5c0-9.8,7.4-17.5,17.7-17.5C346.3,6.1,353.7,13.8,353.7,23.6" stroke="#1D1D1F" fill="none"></path>
						<path class="outline-2" d="M324.7,23.6c0,6.5,4.9,11.6,11.1,11.6S347,30.1,347,23.6S342.1,12,335.9,12c-3.1,0-5.9,1.1-8,3.4C325.7,17.7,324.7,20.4,324.7,23.6" stroke="#1D1D1F" fill="none"></path>
						<path class="fill" d="M345.2,12c-2.4-2.1-5.7-3.4-9.3-3.4c-4.2,0-7.6,1.5-10.3,4.4c-2.7,2.9-4.2,6.5-4.2,10.6c0,8.4,6.3,15.1,14.5,15.1s14.5-6.7,14.5-15.1C350.3,18.8,348.4,14.7,345.2,12" stroke="#1D1D1F" fill="none" stroke-width="7.5px"></path>
					</g>
					<g class="letter-f" stroke="#1D1D1F" fill="none">
						<polyline class="outline-3" points="250.6,25.2 240.3,25.2 240.3,40.3" stroke="#1D1D1F" fill="none"></polyline>
						<polyline class="outline-2" points="254,12.4 240.3,12.4 240.3,19.4 250.6,19.4" stroke="#1D1D1F" fill="none"></polyline>
						<polyline class="outline-1" points="233.8,40.3 233.8,6.7 254,6.7" stroke="#1D1D1F" fill="none"></polyline>
						<line class="fill-3" x1="237" y1="22.3" x2="237" y2="40.3" stroke="#1D1D1F" fill="none" stroke-width="7.5px"></line>
						<line class="fill-1" x1="250.6" y1="22.3" x2="237" y2="22.3" stroke="#1D1D1F" fill="none" stroke-width="7.5px"></line>
						<polyline class="fill-2" points="254,9.5 237,9.5 237,22.3" stroke="#1D1D1F" fill="none" stroke-width="7.5px"></polyline>
					</g>
					<g class="letter-l" stroke="#1D1D1F" fill="none">
						<polyline class="outline-2" points="283.7,6.7 283.7,34.5 297.8,34.5" stroke="#1D1D1F" fill="none"></polyline>
						<polyline class="outline-1" points="297.8,40.3 277.2,40.3 277.2,6.7" stroke="#1D1D1F" fill="none"></polyline>
						<line class="fill-2" x1="280.4" y1="40.4" x2="280.4" y2="6.7" stroke="#1D1D1F" fill="none" stroke-width="7.5px"></line>
						<line class="fill-1" x1="297.8" y1="37.4" x2="280.4" y2="37.4" stroke="#1D1D1F" fill="none" stroke-width="7.5px"></line>
					</g>
					<g class="letter-w letter-w-1" stroke="#1D1D1F" fill="none">
						<polyline class="outline-1" points="50.5,6.4 39.4,40 34.8,40 27.3,18.8 19.9,40 15.3,40 4.2,6.4" stroke="#1D1D1F" fill="none"></polyline>
						<polyline class="fill-2" points="23.2,21 27.3,9.3 37.1,37.1 47.8,4.9 " stroke="#1D1D1F" fill="none" stroke-width="7.5px"></polyline>
						<polyline class="fill-1" points="6.9,4.9 17.6,37.1 23.2,21" stroke="#1D1D1F" fill="none" stroke-width="7.5px"></polyline>
						<polyline class="outline-2" points="10.7,6.4 17.7,27.4 25.1,6.4 29.6,6.4 37,27.4 44,6.4" stroke="#1D1D1F" fill="none"></polyline>
					</g>
					<g class="letter-w letter-w-2" stroke="#1D1D1F" fill="none">
						<polyline class="outline-1" points="419.8,6.4 408.6,40 404.1,40 396.6,18.8 389.1,40 384.6,40 373.4,6.4" stroke="#1D1D1F" fill="none"></polyline>
						<polyline class="fill-2" points="392.5,21 396.6,9.3 406.3,37.1 417,4.9" stroke="#1D1D1F" fill="none" stroke-width="7.5px"></polyline>
						<polyline class="fill-1" points="376.2,4.9 386.9,37.1 392.5,21" stroke="#1D1D1F" fill="none" stroke-width="7.5px"></polyline>
						<polyline class="outline-2" points="380,6.4 386.9,27.4 394.3,6.4 398.9,6.4 406.3,27.4 413.2,6.4" stroke="#1D1D1F" fill="none"></polyline>
					</g>
					<g class="letter-k" stroke="#1D1D1F" fill="none">
						<line class="outline-1" x1="181.5" y1="40.5" x2="181.5" y2="6.9" stroke="#1D1D1F" fill="none"></line>
						<polyline class="outline-2" points="194.5,22.3 211,40.5 202.7,40.5" stroke="#1D1D1F" fill="none"></polyline>
						<polyline class="outline-3" points="188,20.3 200.7,6.9 209.3,6.9" stroke="#1D1D1F" fill="none"></polyline>
						<line class="fill-1" x1="184.8" y1="40.5" x2="184.8" y2="6.9" stroke="#1D1D1F" fill="none" stroke-width="7.5px"></line>
						<line class="fill-2" x1="208.2" y1="4" x2="188.4" y2="24.5" stroke="#1D1D1F" fill="none" stroke-width="7.5px"></line>
						<line class="fill-3" x1="208.2" y1="42.4" x2="188.2" y2="20.1" stroke="#1D1D1F" fill="none" stroke-width="7.5px"></line>
					</g>
				</g>
			</svg>