<svg version="1.1" xmlns="http://www.w3.org/2000/svg" xmlns:xlink="http://www.w3.org/1999/xlink" x="0px" y="0px" width="314.6" height="45.4" viewBox="0 0 314.6 45.4" enable-background="new 0 0 223.9 45.4" xml:space="preserve">
				<defs>
					<clipPath id="letters-clip">
						<path d="M28.2 34.5v5.8H7.5V6.7H14v27.8h14.2zM72.2 34.5v5.8H51.5V6.7h20.2v5.8H58v7h10.3v5.8H58v9.4h14.2zM103.3 40.3V12.4h-8.9V6.7h24.2v5.8h-8.9v27.8h-6.4zM149.6 40.3V12.4h-8.9V6.7H165v5.8h-8.9v27.8h-6.5zM209 34.5v5.8h-20.6V6.7h20.2v5.8h-13.7v7h10.3v5.8h-10.3v9.4H209zM240.4 25.4v14.9h-6.5V6.7h12.2c3.1 0 5.5.8 7.3 2.5 2 1.9 3 4.2 3 6.9s-1 5-3 6.9c-1 .9-2.1 1.5-3.4 2l12.6 15.4h-8l-12-14.9h-2.2zm0-13v7.2h5.4c3.1 0 4.2-1.6 4.2-3.5 0-2.1-1.1-3.7-4.2-3.7h-5.4zM286.3 31.3c2.2 2.5 4.9 3.7 7.9 3.7 2.9 0 4.9-1.8 4.9-4.2 0-2.6-2-3.9-6.2-5.5-2.1-.8-3.6-1.5-4.5-2-3.2-1.9-4.8-4.4-4.8-7.6 0-5.7 5.2-9.4 11.1-9.4 3.6 0 6.9 1.1 9.8 3.2l-3.4 4.8c-1.6-1.5-3.5-2.2-5.8-2.2-2.7 0-5.2 1.2-5.2 3.6 0 1.9 2.5 3.3 5.5 4.5s6.3 2.3 8.4 5.2c1.1 1.5 1.6 3.3 1.6 5.4 0 5.8-5.2 10.1-11.4 10.1-4.4 0-8.5-1.7-12.2-5l4.3-4.6z"></path>
					</clipPath>
				</defs>
				<g class="letters" clip-path="url(#letters-clip)" stroke="#1D1D1F" fill="none" stroke-miterlimit="10">
					<g class="letter-r" stroke="#1D1D1F" fill="none">
						<path class="outline-1" d="M233.9,6.7h12.2c3.1,0,5.5,0.8,7.3,2.5c2,1.9,3,4.2,3,6.9" stroke="#1D1D1F" fill="none"></path>
						<line class="outline-2" x1="233.9" y1="40.3" x2="233.9" y2="6.7" stroke="#1D1D1F" fill="none"></line>
						<path class="outline-3" d="M256.4,16c0,2.7-1,5-3,6.9c-1,0.9-2.1,1.5-3.4,2l12.6,15.4" stroke="#1D1D1F" fill="none"></path>
						<path class="outline-4" d="M240.4,16v3.6h5.4c3.1,0,4.2-1.6,4.2-3.5" stroke="#1D1D1F" fill="none"></path>
						<path class="outline-5" d="M250,16.1c0-2.1-1.1-3.7-4.2-3.7h-5.4V16" stroke="#1D1D1F" fill="none"></path>
						<line class="fill-1" x1="237.1" y1="40.7" x2="237.1" y2="7.1" stroke="#1D1D1F" fill="none" stroke-width="7.5px"></line>
						<path class="fill-2" d="M236.5,22.5h9.3c5.4,0,7.3-2.8,7.3-6.3c0-3.7-2-6.6-7.3-6.6h-9.3" stroke="#1D1D1F" fill="none" stroke-width="7.5px"></path>
						<line class="fill-3" x1="261" y1="43.2" x2="244.3" y2="22.5" stroke="#1D1D1F" fill="none" stroke-width="7.5px"></line>
					</g>
					<g class="letter-t letter-t-2" stroke="#1D1D1F" fill="none">
						<polyline class="outline-3" points="149.6,40.3 149.6,12.4 140.7,12.4" stroke="#1D1D1F" fill="none"></polyline>
						<polyline class="outline-2" points="165,12.4 156.1,12.4 156.1,40.3" stroke="#1D1D1F" fill="none"></polyline>
						<line class="outline-1" x1="140.7" y1="6.7" x2="165" y2="6.7" stroke="#1D1D1F" fill="none"></line>
						<line class="fill-3" x1="152.9" y1="40.3" x2="152.9" y2="9.5" stroke="#1D1D1F" fill="none" stroke-width="7.5px"></line>
						<line class="fill-2" x1="152.9" y1="9.5" x2="165" y2="9.5" stroke="#1D1D1F" fill="none" stroke-width="7.5px"></line>
						<line class="fill-1" x1="140.7" y1="9.5" x2="152.9" y2="9.5" stroke="#1D1D1F" fill="none" stroke-width="7.5px"></line>
					</g>
					<g class="letter-t letter-t-1" stroke="#1D1D1F" fill="none">
						<polyline class="outline-3" points="103.3,40.3 103.3,12.4 94.4,12.4" stroke="#1D1D1F" fill="none"></polyline>
						<polyline class="outline-2" points="118.6,12.4 109.7,12.4 109.7,40.3" stroke="#1D1D1F" fill="none"></polyline>
						<line class="outline-1" x1="94.4" y1="6.7" x2="118.6" y2="6.7" stroke="#1D1D1F" fill="none"></line>
						<line class="fill-3" x1="106.5" y1="40.3" x2="106.5" y2="9.5" stroke="#1D1D1F" fill="none" stroke-width="7.5px"></line>
						<line class="fill-2" x1="106.5" y1="9.5" x2="118.6" y2="9.5" stroke="#1D1D1F" fill="none" stroke-width="7.5px"></line>
						<line class="fill-1" x1="94.4" y1="9.5" x2="106.5" y2="9.5" stroke="#1D1D1F" fill="none" stroke-width="7.5px"></line>
					</g>
					<g class="letter-e letter-e-1" stroke="#1D1D1F" fill="none">
						<polyline class="outline-3" points="68.3,25.2 58,25.2 58,34.5 72.2,34.5" stroke="#1D1D1F" fill="none"></polyline>
						<polyline class="outline-2" points="71.7,12.4 58,12.4 58,19.4 68.3,19.4" stroke="#1D1D1F" fill="none"></polyline>
						<polyline class="outline-1" points="72.2,40.3 51.5,40.3 51.5,6.7 71.7,6.7 " stroke="#1D1D1F" fill="none"></polyline>
						<polyline class="fill-3" points="54.8,22.3 54.8,37.4 72.2,37.4" stroke="#1D1D1F" fill="none" stroke-width="7.5px"></polyline>
						<line class="fill-1" x1="68.3" y1="22.3" x2="54.8" y2="22.3" stroke="#1D1D1F" fill="none" stroke-width="7.5px"></line>
						<polyline class="fill-2" points="71.7,9.5 54.8,9.5 54.8,22.3" stroke="#1D1D1F" fill="none" stroke-width="7.5px"></polyline>
					</g>
					<g class="letter-e letter-e-2" stroke="#1D1D1F" fill="none">
						<polyline class="outline-3" points="205.1,25.2 194.8,25.2 194.8,34.5 209,34.5" stroke="#1D1D1F" fill="none"></polyline>
						<polyline class="outline-2" points="208.5,12.4 194.8,12.4 194.8,19.4 205.1,19.4" stroke="#1D1D1F" fill="none"></polyline>
						<polyline class="outline-1" points="209,40.3 188.3,40.3 188.3,6.7 208.5,6.7" stroke="#1D1D1F" fill="none"></polyline>
						<polyline class="fill-3" points="191.6,22.3 191.6,37.4 209,37.4" stroke="#1D1D1F" fill="none" stroke-width="7.5px"></polyline>
						<line class="fill-1" x1="205.1" y1="22.3" x2="191.6" y2="22.3" stroke="#1D1D1F" fill="none" stroke-width="7.5px"></line>
						<polyline class="fill-2" points="208.5,9.5 191.6,9.5 191.6,22.3" stroke="#1D1D1F" fill="none" stroke-width="7.5px"></polyline>
					</g>
					<g class="letter-s" stroke="#1D1D1F" fill="none">
						<path class="fill-2" d="M293.7,22.4c1.6,0.7,3.4,1.4,5.1,2.5c2.6,1.5,3.6,3.5,3.6,5.8c0,4.1-3.6,7.2-8.1,7.2c-3.7,0-7.1-1.5-10-4.4" stroke="#1D1D1F" fill="none" stroke-width="7.5px"></path>
						<path class="fill-1" d="M293.7,22.4c-0.6-0.2-1.2-0.5-1.7-0.7c-3.1-1.5-5.1-3.5-5.1-6c0-4.1,3.8-6.5,8.1-6.5c3,0,5.5,0.9,7.8,2.7" stroke="#1D1D1F" fill="none" stroke-width="7.5px"></path>
						<path class="outline-2" d="M301.1,14.2c-1.6-1.5-3.5-2.2-5.8-2.2c-2.7,0-5.2,1.2-5.2,3.6c0,1.9,2.5,3.3,5.5,4.5s6.3,2.3,8.4,5.2c1.1,1.5,1.6,3.3,1.6,5.4c0,5.8-5.2,10.1-11.4,10.1c-4.4,0-8.5-1.7-12.2-5" stroke="#1D1D1F" fill="none"></path>
						<path class="outline-1" d="M286.3,31.3c2.2,2.5,4.9,3.7,7.9,3.7c2.9,0,4.9-1.8,4.9-4.2c0-2.6-2-3.9-6.2-5.5c-2.1-0.8-3.6-1.5-4.5-2c-3.2-1.9-4.8-4.4-4.8-7.6c0-5.7,5.2-9.4,11.1-9.4c3.6,0,6.9,1.1,9.8,3.2" stroke="#1D1D1F" fill="none"></path>
					</g>
					<g class="letter-l" stroke="#1D1D1F" fill="none">
						<polyline class="outline-2" points="14,6.6 14,34.4 28.2,34.4" stroke="#1D1D1F" fill="none"></polyline>
						<polyline class="outline-1" points="28.2,40.2 7.5,40.2 7.5,6.6" stroke="#1D1D1F" fill="none"></polyline>
						<line class="fill-2" x1="10.8" y1="40.3" x2="10.8" y2="6.6" stroke="#1D1D1F" fill="none" stroke-width="7.5px"></line>
						<line class="fill-1" x1="28.2" y1="37.3" x2="10.8" y2="37.3" stroke="#1D1D1F" fill="none" stroke-width="7.5px"></line>
					</g>
				</g>
			</svg>