<svg version="1.1" xmlns="http://www.w3.org/2000/svg" xmlns:xlink="http://www.w3.org/1999/xlink" x="0px" y="0px" width="346.9" height="45.4" viewBox="0 0 346.9 45.4" enable-background="new 0 0 223.9 45.4" xml:space="preserve">
				<defs>
					<clipPath id="contact-clip">
						<path d="M10.1 35.8c-3.4-3.3-5-7.4-5-12.3 0-9.8 7.4-17.3 17.7-17.3 4.9 0 9 1.6 12.3 4.8L31 15.4c-2.3-2.3-5-3.4-8.2-3.4-6.4 0-11.2 5.1-11.2 11.5 0 6.5 5 11.5 11.5 11.5 3.9 0 7.1-1.5 9.5-4.7l4.5 4C34 38.2 29 40.7 23 40.7c-5.2 0-9.5-1.6-12.9-4.9zM62.5 35.7c-3.3-3.3-4.9-7.4-4.9-12.3 0-9.7 7.3-17.3 17.5-17.3s17.5 7.5 17.5 17.3-7.3 17.3-17.5 17.3c-5.1 0-9.3-1.6-12.6-5zm4.7-20.4c-2.1 2.2-3.2 4.9-3.2 8.2C64 29.9 68.8 35 75 35s11-5.1 11-11.5S81.4 12 75.1 12c-3.1 0-5.8 1.1-7.9 3.3zM123.7 18.4v21.9h-6.5V6.7h4.5l18.7 21.9V6.7h6.5v33.6h-4.6l-18.6-21.9zM179.2 40.3V12.4h-8.9V6.7h24.2v5.8h-8.9v27.8h-6.4zM221.4 32.8l-3.2 7.4h-6.8l14.4-33.6h4.6l14.4 33.6H238l-3.2-7.4h-13.4zm11-5.7l-4.3-9.9-4.3 9.9h8.6zM268.8 35.8c-3.4-3.3-5-7.4-5-12.3 0-9.8 7.4-17.3 17.7-17.3 4.9 0 9 1.6 12.3 4.8l-4.2 4.4c-2.3-2.3-5-3.4-8.2-3.4-6.4 0-11.2 5.1-11.2 11.5 0 6.5 5 11.5 11.5 11.5 3.9 0 7.1-1.5 9.5-4.7l4.5 4c-3.1 3.9-8.1 6.4-14.1 6.4-5.2 0-9.5-1.6-12.8-4.9zM325.6 40.3V12.4h-8.9V6.7h24.2v5.8H332v27.8h-6.4z"></path>
					</clipPath>
				</defs>
				<g class="letters" clip-path="url(#contact-clip)" stroke="#1D1D1F" fill="none" stroke-miterlimit="10">
					<g class="letter-o" stroke="#1D1D1F" fill="none">
						<path class="outline-1" d="M92.8,23.6c0,9.8-7.4,17.5-17.7,17.5c-5.2,0-9.4-1.7-12.8-5.1c-3.3-3.3-5-7.5-5-12.5c0-9.8,7.4-17.5,17.7-17.5S92.8,13.8,92.8,23.6" stroke="#1D1D1F" fill="none"></path>
						<path class="outline-2" d="M63.9,23.6c0,6.5,4.9,11.6,11.1,11.6c6.3,0,11.1-5.2,11.1-11.6S81.3,12,75,12c-3.1,0-5.9,1.1-8,3.4S63.9,20.4,63.9,23.6" stroke="#1D1D1F" fill="none"></path>
						<path class="fill" d="M84.3,12c-2.4-2.1-5.7-3.4-9.3-3.4c-4.2,0-7.6,1.5-10.3,4.4c-2.7,2.9-4.2,6.5-4.2,10.6c0,8.4,6.3,15.1,14.5,15.1s14.5-6.7,14.5-15.1C89.5,18.8,87.6,14.7,84.3,12" stroke="#1D1D1F" fill="none" stroke-width="7.5px"></path>
					</g>
					<g class="letter-c letter-c-1" stroke="#1D1D1F" fill="none">
						<path class="outline-2" d="M37.1,34.4c-3.1,3.9-8.1,6.4-14.1,6.4c-5.2,0-9.4-1.7-12.8-5s-5-7.4-5-12.3c0-9.8,7.4-17.3,17.7-17.3c4.9,0,9,1.6,12.3,4.8" stroke="#1D1D1F" fill="none"></path>
						<path class="fill-1" d="M33,13.3c-2.8-2.8-6.2-4.1-10.2-4.1c-8.3,0-14.4,6.3-14.4,14.4c0,4.1,1.4,7.5,4.1,10.2C15.2,36.5,18.8,38,23,38c5,0,9.1-2,11.8-5.5" stroke="#1D1D1F" fill="none" stroke-width="7.5px"></path>
						<path class="outline-1" d="M31,15.5c-2.3-2.3-5-3.4-8.2-3.4c-6.4,0-11.2,5.1-11.2,11.5c0,6.5,5,11.5,11.5,11.5c3.9,0,7.1-1.5,9.5-4.7" stroke="#1D1D1F" fill="none"></path>
					</g>
					<g class="letter-c letter-c-2" stroke="#1D1D1F" fill="none">
						<path class="outline-2" d="M295.7,34.3c-3.1,3.9-8.1,6.4-14.1,6.4c-5.2,0-9.4-1.7-12.8-5s-5-7.4-5-12.3c0-9.8,7.4-17.3,17.7-17.3c4.9,0,9,1.6,12.3,4.8" stroke="#1D1D1F" fill="none"></path>
						<path class="fill-1" d="M291.7,13.2c-2.8-2.8-6.2-4.1-10.2-4.1c-8.3,0-14.4,6.3-14.4,14.4c0,4.1,1.4,7.5,4.1,10.2c2.7,2.7,6.3,4.2,10.5,4.2c5,0,9.1-2,11.8-5.5" stroke="#1D1D1F" fill="none" stroke-width="7.5px"></path>
						<path class="outline-1" d="M289.6,15.4c-2.3-2.3-5-3.4-8.2-3.4c-6.4,0-11.2,5.1-11.2,11.5c0,6.5,5,11.5,11.5,11.5c3.9,0,7.1-1.5,9.5-4.7" stroke="#1D1D1F" fill="none"></path>
					</g>
					<g class="letter-a" stroke="#1D1D1F" fill="none">
						<polyline class="outline-3" points="238.1,40.3 234.9,32.9 221.4,32.9 218.2,40.3" stroke="#1D1D1F" fill="none"></polyline>
						<polyline class="outline-2" points="223.8,27.1 232.4,27.1 228.1,17.2 223.8,27.1" stroke="#1D1D1F" fill="none"></polyline>
						<polyline class="outline-1" points="211.5,40.3 225.9,6.7 230.4,6.7 244.8,40.3" stroke="#1D1D1F" fill="none"></polyline>
						<line class="fill-2" x1="223.3" y1="20.6" x2="214.1" y2="42" stroke="#1D1D1F" fill="none" stroke-width="7.5px"></line>
						<polyline class="fill-3" points="242.1,42 228.2,9.2 223.3,20.6" stroke="#1D1D1F" fill="none" stroke-width="7.5px"></polyline>
						<line class="fill-2" x1="237" y1="30" x2="219.3" y2="30" stroke="#1D1D1F" fill="none" stroke-width="7.5px"></line>
					</g>
					<g class="letter-n" stroke="#1D1D1F" fill="none">
						<polyline class="outline-2" points="147,6.8 147,40.4 142.4,40.4 123.7,18.5 123.7,40.4" stroke="#1D1D1F" fill="none"></polyline>
						<polyline class="fill-2" points="137.8,30.1 143.7,36.7 143.7,6.8" stroke="#1D1D1F" fill="none" stroke-width="7.5px"></polyline>
						<polyline class="fill-1" points="120.4,40.4 120.4,10.6 137.8,30.1" stroke="#1D1D1F" fill="none" stroke-width="7.5px"></polyline>
						<polyline class="outline-1" points="117.2,40.4 117.2,6.8 121.8,6.8 140.5,28.7 140.5,6.8" stroke="#1D1D1F" fill="none"></polyline>
					</g>
					<g class="letter-t letter-t-2" stroke="#1D1D1F" fill="none">
						<polyline class="outline-3" points="325.6,40.3 325.6,12.4 316.7,12.4" stroke="#1D1D1F" fill="none"></polyline>
						<polyline class="outline-2" points="340.9,12.4 332.1,12.4 332.1,40.3" stroke="#1D1D1F" fill="none"></polyline>
						<line class="outline-1" x1="316.7" y1="6.7" x2="340.9" y2="6.7" stroke="#1D1D1F" fill="none"></line>
						<line class="fill-3" x1="328.8" y1="40.3" x2="328.8" y2="9.5" stroke="#1D1D1F" fill="none" stroke-width="7.5px"></line>
						<line class="fill-2" x1="328.8" y1="9.5" x2="340.9" y2="9.5" stroke="#1D1D1F" fill="none" stroke-width="7.5px"></line>
						<line class="fill-1" x1="316.7" y1="9.5" x2="328.8" y2="9.5" stroke="#1D1D1F" fill="none" stroke-width="7.5px"></line>
					</g>
					<g class="letter-t letter-t-1" stroke="#1D1D1F" fill="none">
						<polyline class="outline-3" points="179.2,40.4 179.2,12.6 170.4,12.6" stroke="#1D1D1F" fill="none"></polyline>
						<polyline class="outline-2" points="194.6,12.6 185.7,12.6 185.7,40.4" stroke="#1D1D1F" fill="none"></polyline>
						<line class="outline-1" x1="170.4" y1="6.8" x2="194.6" y2="6.8" stroke="#1D1D1F" fill="none"></line>
						<line class="fill-3" x1="182.5" y1="40.4" x2="182.5" y2="9.7" stroke="#1D1D1F" fill="none" stroke-width="7.5px"></line>
						<line class="fill-2" x1="182.5" y1="9.7" x2="194.6" y2="9.7" stroke="#1D1D1F" fill="none" stroke-width="7.5px"></line>
						<line class="fill-1" x1="170.4" y1="9.7" x2="182.5" y2="9.7" stroke="#1D1D1F" fill="none" stroke-width="7.5px"></line>
					</g>
				</g>
			</svg>