<svg version="1.1" xmlns="http://www.w3.org/2000/svg" xmlns:xlink="http://www.w3.org/1999/xlink" x="0px" y="0px" width="314.6" height="45.4" viewBox="0 0 314.6 45.4" enable-background="new 0 0 223.9 45.4" xml:space="preserve">
				<defs>
					<clipPath id="profile-clip">
						<path d="M14 26.6v13.7H7.5V6.7h12.6c7.8 0 11.4 4.4 11.4 10s-3.5 9.9-11.4 9.9H14zm0-14.2v8.4h5.9c3.8 0 5.2-2 5.2-4.2 0-2.3-1.4-4.2-5.2-4.2H14zM61.3 25.4v14.9h-6.5V6.7H67c3.1 0 5.5.8 7.3 2.5 2 1.9 3 4.2 3 6.9s-1 5-3 6.9c-1 .9-2.1 1.5-3.4 2l12.6 15.4h-8l-12-14.9h-2.2zm0-13v7.2h5.4c3.1 0 4.2-1.6 4.2-3.5 0-2.1-1.1-3.7-4.2-3.7h-5.4zM107.2 35.7c-3.3-3.3-4.9-7.4-4.9-12.3 0-9.7 7.3-17.3 17.5-17.3s17.5 7.5 17.5 17.3-7.3 17.3-17.5 17.3c-5.1 0-9.3-1.6-12.6-5zm4.7-20.4c-2.1 2.2-3.2 4.9-3.2 8.2 0 6.4 4.8 11.5 11 11.5s11-5.1 11-11.5-4.8-11.5-11-11.5c-3 0-5.7 1.1-7.8 3.3zM168.4 25.2v15.1h-6.5V6.7h20.2v5.8h-13.7v7h10.3v5.8h-10.3zM211.8 6.7v33.6h-6.5V6.7h6.5zM259.1 34.5v5.8h-20.6V6.7h6.5v27.8h14.1zM303.1 34.5v5.8h-20.6V6.7h20.2v5.8H289v7h10.3v5.8H289v9.4h14.1z"></path>
					</clipPath>
				</defs>
				<g class="letters" clip-path="url(#profile-clip)" stroke="#1D1D1F" fill="none" stroke-miterlimit="10">
					<g class="letter-r" stroke="#1D1D1F" fill="none">
						<path class="outline-1" d="M54.8,6.7H67c3.1,0,5.5,0.8,7.3,2.5c2,1.9,3,4.2,3,6.9" stroke="#1D1D1F" fill="none"></path>
						<line class="outline-2" x1="54.8" y1="40.3" x2="54.8" y2="6.7" stroke="#1D1D1F" fill="none"></line>
						<path class="outline-3" d="M77.3,16c0,2.7-1,5-3,6.9c-1,0.9-2.1,1.5-3.4,2l12.6,15.4" stroke="#1D1D1F" fill="none"></path>
						<path class="outline-4" d="M61.3,16v3.6h5.4c3.1,0,4.2-1.6,4.2-3.5" stroke="#1D1D1F" fill="none"></path>
						<path class="outline-5" d="M70.9,16.1c0-2.1-1.1-3.7-4.2-3.7h-5.4V16" stroke="#1D1D1F" fill="none"></path>
						<line class="fill-1" x1="58" y1="40.7" x2="58" y2="7.1" stroke="#1D1D1F" fill="none" stroke-width="7.5px"></line>
						<path class="fill-2" d="M57.5,22.5h9.3c5.4,0,7.3-2.8,7.3-6.3c0-3.7-2-6.6-7.3-6.6h-9.3" stroke="#1D1D1F" fill="none" stroke-width="7.5px"></path>
						<line class="fill-3" x1="81.9" y1="43.2" x2="65.3" y2="22.5" stroke="#1D1D1F" fill="none" stroke-width="7.5px"></line>
					</g>
					<g class="letter-e" stroke="#1D1D1F" fill="none">
						<polyline class="outline-3" points="299.3,25.2 289,25.2 289,34.5 303.1,34.5" stroke="#1D1D1F" fill="none"></polyline>
						<polyline class="outline-2" points="302.6,12.4 289,12.4 289,19.4 299.3,19.4" stroke="#1D1D1F" fill="none"></polyline>
						<polyline class="outline-1" points="303.1,40.3 282.5,40.3 282.5,6.7 302.6,6.7" stroke="#1D1D1F" fill="none"></polyline>
						<polyline class="fill-3" points="285.7,22.3 285.7,37.4 303.1,37.4" stroke="#1D1D1F" fill="none" stroke-width="7.5px"></polyline>
						<line class="fill-1" x1="299.3" y1="22.3" x2="285.7" y2="22.3" stroke="#1D1D1F" fill="none" stroke-width="7.5px"></line>
						<polyline class="fill-2" points="302.6,9.5 285.7,9.5 285.7,22.3" stroke="#1D1D1F" fill="none" stroke-width="7.5px"></polyline>
					</g>
					<g class="letter-p" stroke="#1D1D1F" fill="none">
						<line class="outline-5" x1="7.5" y1="40.3" x2="7.5" y2="6.7" stroke="#1D1D1F" fill="none"></line>
						<path class="outline-4" d="M31.5,16.6c0,5.6-3.5,9.9-11.4,9.9H14v13.7" stroke="#1D1D1F" fill="none"></path>
						<path class="outline-3" d="M7.5,6.7h12.6c7.8,0,11.4,4.4,11.4,10" stroke="#1D1D1F" fill="none"></path>
						<path class="outline-2" d="M14,16.6v4.2h5.9c3.8,0,5.2-2,5.2-4.2" stroke="#1D1D1F" fill="none"></path>
						<path class="outline-1" d="M25.1,16.6c0-2.3-1.4-4.2-5.2-4.2H14v4.2" stroke="#1D1D1F" fill="none"></path>
						<line class="fill-2" x1="10.8" y1="40.3" x2="10.8" y2="6.7" stroke="#1D1D1F" fill="none" stroke-width="7.5px"></line>
						<path class="fill-1" d="M10.8,9.5l9.2,0c5.8,0,8.3,3.2,8.3,7.1c0,3.9-2.5,7.1-8.3,7.1h-9.2" stroke="#1D1D1F" fill="none" stroke-width="7.5px"></path>
					</g>
					<g class="letter-o" stroke="#1D1D1F" fill="none">
						<path class="outline-1" fill="none" stroke="#020202" stroke-miterlimit="10" d="M137.6,23.6c0,9.8-7.4,17.5-17.7,17.5c-5.2,0-9.4-1.7-12.8-5.1c-3.3-3.3-5-7.5-5-12.5c0-9.8,7.4-17.5,17.7-17.5S137.6,13.8,137.6,23.6"></path>
						<path class="outline-2" fill="none" stroke="#020202" stroke-miterlimit="10" d="M108.7,23.6c0,6.5,4.9,11.6,11.1,11.6c6.3,0,11.1-5.2,11.1-11.6S126.1,12,119.8,12c-3.1,0-5.9,1.1-8,3.4S108.7,20.4,108.7,23.6"></path>
						<path class="fill" fill="none" stroke="#020202" stroke-miterlimit="10" d="M129.1,12c-2.4-2.1-5.7-3.4-9.3-3.4c-4.2,0-7.6,1.5-10.3,4.4c-2.7,2.9-4.2,6.5-4.2,10.6c0,8.4,6.3,15.1,14.5,15.1s14.5-6.7,14.5-15.1C134.3,18.8,132.4,14.7,129.1,12" stroke-width="7.5px"></path>
					</g>
					<g class="letter-i" stroke="#1D1D1F" fill="none">
						<line class="outline-2" x1="211.8" y1="6.9" x2="211.8" y2="40.5" stroke="#1D1D1F" fill="none"></line>
						<line class="outline-1" x1="205.3" y1="40.5" x2="205.3" y2="6.9" stroke="#1D1D1F" fill="none"></line>
						<line class="fill-2" x1="208.5" y1="16.2" x2="208.5" y2="6.9" stroke="#1D1D1F" fill="none" stroke-width="7.5px"></line>
						<line class="fill-1" x1="208.5" y1="40.5" x2="208.5" y2="16.2" stroke="#1D1D1F" fill="none" stroke-width="7.5px"></line>
					</g>
					<g class="letter-f" stroke="#1D1D1F" fill="none">
						<polyline class="outline-3" points="178.7,25.2 168.4,25.2 168.4,40.3" stroke="#1D1D1F" fill="none"></polyline>
						<polyline class="outline-2" points="182.1,12.4 168.4,12.4 168.4,19.4 178.7,19.4" stroke="#1D1D1F" fill="none"></polyline>
						<polyline class="outline-1" points="161.9,40.3 161.9,6.7 182.1,6.7" stroke="#1D1D1F" fill="none"></polyline>
						<line class="fill-3" x1="165.1" y1="22.3" x2="165.1" y2="40.3" stroke="#1D1D1F" fill="none" stroke-width="7.5px"></line>
						<line class="fill-1" x1="178.7" y1="22.3" x2="165.1" y2="22.3" stroke="#1D1D1F" fill="none" stroke-width="7.5px"></line>
						<polyline class="fill-2" points="182.1,9.5 165.1,9.5 165.1,22.3" stroke="#1D1D1F" fill="none" stroke-width="7.5px"></polyline>
					</g>
					<g class="letter-l" stroke="#1D1D1F" fill="none">
						<polyline class="outline-2" points="245,6.7 245,34.5 259.1,34.5" stroke="#1D1D1F" fill="none"></polyline>
						<polyline class="outline-1" points="259.1,40.3 238.5,40.3 238.5,6.7" stroke="#1D1D1F" fill="none"></polyline>
						<line class="fill-2" x1="241.7" y1="40.4" x2="241.7" y2="6.7" stroke="#1D1D1F" fill="none" stroke-width="7.5px"></line>
						<line class="fill-1" x1="259.1" y1="37.4" x2="241.7" y2="37.4" stroke="#1D1D1F" fill="none" stroke-width="7.5px"></line>
					</g>
				</g>
			</svg>